<?xml version="1.0" encoding="UTF-8"?>
<svg xmlns="http://www.w3.org/2000/svg" xmlns:xlink="http://www.w3.org/1999/xlink" width="504pt" height="360pt" viewBox="0 0 504 360">
<defs>
<clipPath id="clip-0">
<path clip-rule="nonzero" d="M 59.039062 59.039062 L 473.757812 59.039062 L 473.757812 286.558594 L 59.039062 286.558594 Z M 59.039062 59.039062 "/>
</clipPath>
</defs>
<rect x="-50.4" y="-36" width="604.8" height="432" fill="rgb(100%, 100%, 100%)" fill-opacity="1"/>
<g clip-path="url(#clip-0)">
<path fill-rule="nonzero" fill="rgb(100%, 100%, 100%)" fill-opacity="1" stroke-width="0.75" stroke-linecap="round" stroke-linejoin="round" stroke="rgb(100%, 100%, 100%)" stroke-opacity="1" stroke-miterlimit="10" d="M 59.039062 286.558594 L 473.757812 286.558594 L 473.757812 59.039062 L 59.039062 59.039062 Z M 59.039062 286.558594 "/>
</g>
<path fill="none" stroke-width="0.75" stroke-linecap="round" stroke-linejoin="round" stroke="rgb(0%, 0%, 0%)" stroke-opacity="1" stroke-miterlimit="10" d="M 308.574219 78.628906 L 308.574219 82.777344 L 308.578125 86.976562 L 308.578125 91.144531 L 308.574219 93.882812 L 308.578125 95.339844 L 308.578125 99.980469 L 308.574219 104.605469 L 308.574219 112.007812 "/>
<path fill="none" stroke-width="0.75" stroke-linecap="round" stroke-linejoin="round" stroke="rgb(0%, 0%, 0%)" stroke-opacity="1" stroke-miterlimit="10" d="M 357.277344 104.386719 L 355.316406 108.050781 "/>
<path fill="none" stroke-width="0.75" stroke-linecap="round" stroke-linejoin="round" stroke="rgb(0%, 0%, 0%)" stroke-opacity="1" stroke-miterlimit="10" d="M 357.917969 95.675781 L 356.011719 99.164062 L 354.101562 102.652344 "/>
<path fill="none" stroke-width="0.75" stroke-linecap="round" stroke-linejoin="round" stroke="rgb(0%, 0%, 0%)" stroke-opacity="1" stroke-miterlimit="10" d="M 360.582031 93.320312 L 359.007812 96.265625 "/>
<path fill="none" stroke-width="0.75" stroke-linecap="round" stroke-linejoin="round" stroke="rgb(0%, 0%, 0%)" stroke-opacity="1" stroke-miterlimit="10" d="M 363.183594 93.132812 L 360.953125 97.316406 "/>
<path fill="none" stroke-width="0.75" stroke-linecap="round" stroke-linejoin="round" stroke="rgb(0%, 0%, 0%)" stroke-opacity="1" stroke-miterlimit="10" d="M 325.492188 70.070312 L 325.492188 72.878906 L 325.457031 73.1875 L 325.394531 73.488281 L 325.371094 73.566406 L 325.300781 73.867188 L 325.261719 74.144531 L 325.246094 74.359375 L 325.25 78.570312 L 325.25 86.90625 L 325.246094 91.078125 L 325.242188 93.90625 L 325.242188 95.269531 "/>
<path fill="none" stroke-width="0.75" stroke-linecap="round" stroke-linejoin="round" stroke="rgb(0%, 0%, 0%)" stroke-opacity="1" stroke-miterlimit="10" d="M 322.890625 73.570312 L 322.898438 78.328125 L 322.785156 78.574219 L 322.785156 82.746094 L 322.78125 86.917969 L 322.78125 95.28125 "/>
<path fill="none" stroke-width="0.75" stroke-linecap="round" stroke-linejoin="round" stroke="rgb(0%, 0%, 0%)" stroke-opacity="1" stroke-miterlimit="10" d="M 320.519531 73.574219 L 320.535156 78.578125 "/>
<path fill="none" stroke-width="0.75" stroke-linecap="round" stroke-linejoin="round" stroke="rgb(0%, 0%, 0%)" stroke-opacity="1" stroke-miterlimit="10" d="M 367.425781 79.816406 L 366.03125 82.433594 L 363.167969 87.808594 "/>
<path fill="none" stroke-width="0.75" stroke-linecap="round" stroke-linejoin="round" stroke="rgb(0%, 0%, 0%)" stroke-opacity="1" stroke-miterlimit="10" d="M 363.644531 88.0625 L 362.675781 89.875 "/>
<path fill="none" stroke-width="0.75" stroke-linecap="round" stroke-linejoin="round" stroke="rgb(0%, 0%, 0%)" stroke-opacity="1" stroke-miterlimit="10" d="M 359.023438 105.339844 L 358.464844 106.386719 L 357.058594 108.949219 L 355.21875 112.390625 L 353.375 115.835938 L 353.226562 116.109375 L 352.625 117.210938 L 351.359375 119.53125 L 349.542969 122.921875 L 349.011719 123.914062 "/>
<path fill="none" stroke-width="0.75" stroke-linecap="round" stroke-linejoin="round" stroke="rgb(0%, 0%, 0%)" stroke-opacity="1" stroke-miterlimit="10" d="M 338.4375 75.472656 L 339.191406 78.554688 "/>
<path fill="none" stroke-width="0.75" stroke-linecap="round" stroke-linejoin="round" stroke="rgb(0%, 0%, 0%)" stroke-opacity="1" stroke-miterlimit="10" d="M 334.800781 70.09375 L 334.796875 75.496094 L 334.796875 95.234375 L 334.792969 96.316406 L 334.792969 102.355469 L 334.789062 104.515625 L 334.789062 106.714844 L 334.785156 108.679688 L 334.785156 111.933594 L 334.78125 116.5 L 334.78125 120.554688 L 334.777344 124.394531 L 334.777344 128.632812 L 334.773438 135.585938 L 334.78125 139.140625 L 334.792969 145.308594 L 334.796875 147.484375 L 334.796875 149.570312 L 334.800781 151.136719 L 334.800781 151.671875 L 334.796875 152.078125 L 334.800781 152.34375 L 334.796875 152.585938 L 334.800781 152.9375 L 334.800781 155.324219 L 334.796875 156.375 L 334.796875 158.234375 L 334.792969 159.871094 L 334.792969 160.089844 L 334.789062 161.949219 L 334.78125 164.652344 L 334.777344 167.167969 L 334.773438 167.777344 L 334.769531 169.253906 L 334.761719 171.339844 L 334.761719 171.996094 L 334.757812 173.429688 L 334.757812 174.207031 L 334.753906 175.484375 L 334.75 176.589844 L 334.746094 178.648438 L 334.738281 181.515625 L 334.730469 184.132812 L 334.722656 186.511719 L 334.71875 189.203125 L 334.710938 191.390625 L 334.707031 193.660156 L 334.703125 195.027344 L 334.703125 195.261719 L 334.699219 195.515625 L 334.691406 198.578125 L 334.6875 198.953125 L 334.679688 201.351562 L 334.679688 201.667969 L 334.671875 204.78125 L 334.664062 206.382812 L 334.664062 206.867188 L 334.652344 209.472656 L 334.644531 212.277344 L 334.640625 213.773438 L 334.640625 214.359375 L 334.625 218.265625 L 334.621094 220.445312 L 334.613281 222.546875 L 334.605469 224.632812 L 334.597656 226.738281 L 334.589844 228.800781 L 334.59375 231.144531 L 334.59375 233.480469 L 334.597656 236.011719 L 334.597656 238.164062 L 334.601562 240.257812 L 334.605469 242.359375 L 334.605469 246.5 L 334.609375 248.128906 L 334.609375 250.742188 L 334.613281 252.84375 L 334.613281 257.019531 L 334.617188 259.101562 L 334.617188 262.289062 L 334.613281 264.035156 L 334.605469 265.480469 L 334.605469 265.929688 L 334.601562 267.441406 L 334.59375 269.035156 L 334.59375 269.734375 L 334.589844 270.566406 L 334.585938 271.691406 L 334.582031 272.652344 L 334.578125 273.691406 L 334.574219 274.738281 L 334.570312 275.769531 L 334.566406 276.820312 L 334.5625 278.132812 "/>
<path fill="none" stroke-width="0.75" stroke-linecap="round" stroke-linejoin="round" stroke="rgb(0%, 0%, 0%)" stroke-opacity="1" stroke-miterlimit="10" d="M 339.667969 95.214844 L 339.664062 96.332031 L 339.664062 102.332031 L 339.660156 104.613281 L 339.660156 106.699219 L 339.65625 108.785156 L 339.65625 110.871094 L 339.652344 116.824219 L 339.59375 120.546875 L 339.59375 124.378906 L 339.589844 128.628906 L 339.320312 129.277344 L 339.328125 135.582031 L 339.324219 137.882812 L 339.328125 139.25 "/>
<path fill="none" stroke-width="0.75" stroke-linecap="round" stroke-linejoin="round" stroke="rgb(0%, 0%, 0%)" stroke-opacity="1" stroke-miterlimit="10" d="M 330.03125 70.105469 L 330.03125 95.253906 L 330.023438 96.242188 L 330.019531 96.816406 L 329.992188 99.890625 L 329.988281 104.535156 L 329.988281 111.945312 "/>
<path fill="none" stroke-width="0.75" stroke-linecap="round" stroke-linejoin="round" stroke="rgb(0%, 0%, 0%)" stroke-opacity="1" stroke-miterlimit="10" d="M 314.988281 95.3125 L 314.984375 96.28125 L 314.984375 108.746094 L 314.980469 111.988281 "/>
<path fill="none" stroke-width="0.75" stroke-linecap="round" stroke-linejoin="round" stroke="rgb(0%, 0%, 0%)" stroke-opacity="1" stroke-miterlimit="10" d="M 312.902344 95.320312 L 312.902344 96.261719 L 312.898438 99.960938 L 312.898438 104.605469 L 312.894531 108.753906 L 312.894531 111.804688 L 312.78125 111.992188 L 312.777344 116.277344 L 312.769531 120.304688 L 312.765625 124.460938 L 312.761719 128.667969 "/>
<path fill="none" stroke-width="0.75" stroke-linecap="round" stroke-linejoin="round" stroke="rgb(0%, 0%, 0%)" stroke-opacity="1" stroke-miterlimit="10" d="M 363.242188 77.625 L 361.964844 79.949219 L 359.226562 85.058594 L 357.589844 88.109375 L 354.527344 93.820312 L 352.617188 97.308594 L 350.707031 100.800781 "/>
<path fill="none" stroke-width="0.75" stroke-linecap="round" stroke-linejoin="round" stroke="rgb(0%, 0%, 0%)" stroke-opacity="1" stroke-miterlimit="10" d="M 353.140625 81.757812 L 355.113281 78.066406 L 356.851562 74.792969 L 356.957031 74.332031 L 356.636719 74.660156 L 354.886719 77.949219 L 352.917969 81.640625 L 349.523438 87.988281 L 349.4375 88.105469 L 349.351562 88.167969 L 349.238281 88.203125 L 349.019531 88.203125 L 348.9375 88.191406 L 348.875 88.167969 L 348.824219 88.132812 "/>
<path fill="none" stroke-width="0.75" stroke-linecap="round" stroke-linejoin="round" stroke="rgb(0%, 0%, 0%)" stroke-opacity="1" stroke-miterlimit="10" d="M 313.269531 67.730469 L 313.285156 73.601562 L 313.304688 78.230469 L 313.304688 78.335938 L 313.394531 78.605469 L 313.382812 82.757812 L 313.371094 86.957031 L 313.359375 91.125 L 313.351562 93.878906 L 313.347656 95.316406 "/>
<path fill="none" stroke-width="0.75" stroke-linecap="round" stroke-linejoin="round" stroke="rgb(0%, 0%, 0%)" stroke-opacity="1" stroke-miterlimit="10" d="M 346.464844 68.285156 L 346.5 74.503906 L 346.167969 75.390625 L 346.1875 78.816406 L 346.199219 81.640625 L 346.214844 84.039062 L 346.230469 87.449219 L 346.25 90.859375 L 346.261719 92.871094 L 346.265625 93.921875 L 346.273438 95.1875 "/>
<path fill="none" stroke-width="0.75" stroke-linecap="round" stroke-linejoin="round" stroke="rgb(0%, 0%, 0%)" stroke-opacity="1" stroke-miterlimit="10" d="M 340.90625 83.800781 L 340.929688 87.464844 L 340.945312 90.875 L 340.964844 93.921875 L 340.96875 95.210938 "/>
<path fill="none" stroke-width="0.75" stroke-linecap="round" stroke-linejoin="round" stroke="rgb(0%, 0%, 0%)" stroke-opacity="1" stroke-miterlimit="10" d="M 363.59375 90.363281 L 362.640625 92.140625 L 362.070312 93.214844 "/>
<path fill="none" stroke-width="0.75" stroke-linecap="round" stroke-linejoin="round" stroke="rgb(0%, 0%, 0%)" stroke-opacity="1" stroke-miterlimit="10" d="M 354.691406 73.144531 L 352.722656 76.816406 L 350.742188 80.519531 L 349.441406 82.945312 L 348.796875 83.59375 "/>
<path fill="none" stroke-width="0.75" stroke-linecap="round" stroke-linejoin="round" stroke="rgb(0%, 0%, 0%)" stroke-opacity="1" stroke-miterlimit="10" d="M 348.785156 70.019531 L 348.8125 74.835938 L 348.816406 75.382812 L 348.808594 79.796875 L 348.777344 80.238281 L 348.785156 81.632812 L 348.796875 83.59375 L 348.800781 84.03125 L 348.820312 87.441406 L 348.824219 88.132812 L 348.839844 90.859375 "/>
<path fill="none" stroke-width="0.75" stroke-linecap="round" stroke-linejoin="round" stroke="rgb(0%, 0%, 0%)" stroke-opacity="1" stroke-miterlimit="10" d="M 361.007812 106.425781 L 359.070312 110.046875 L 357.507812 112.964844 L 357.226562 113.492188 L 355.222656 117.195312 L 355.070312 117.472656 L 353.351562 120.617188 L 351.535156 124.011719 L 349.066406 128.621094 "/>
<path fill="none" stroke-width="0.75" stroke-linecap="round" stroke-linejoin="round" stroke="rgb(0%, 0%, 0%)" stroke-opacity="1" stroke-miterlimit="10" d="M 304.546875 112.019531 L 304.546875 120.328125 L 304.550781 122.40625 L 304.554688 124.488281 "/>
<path fill="none" stroke-width="0.75" stroke-linecap="round" stroke-linejoin="round" stroke="rgb(0%, 0%, 0%)" stroke-opacity="1" stroke-miterlimit="10" d="M 375.632812 84.121094 L 373.355469 88.386719 L 372.222656 90.511719 L 371.085938 92.640625 L 369.011719 96.519531 L 366.882812 100.507812 L 364.910156 104.203125 L 363.109375 107.574219 L 361.175781 111.195312 L 359.335938 114.640625 L 357.292969 118.453125 L 355.519531 121.761719 L 353.683594 125.1875 L 351.804688 128.699219 L 350.292969 131.519531 L 349.664062 132.695312 L 349.003906 133.890625 "/>
<path fill="none" stroke-width="0.75" stroke-linecap="round" stroke-linejoin="round" stroke="rgb(0%, 0%, 0%)" stroke-opacity="1" stroke-miterlimit="10" d="M 337.195312 110.878906 L 337.191406 116.828125 "/>
<path fill="none" stroke-width="0.75" stroke-linecap="round" stroke-linejoin="round" stroke="rgb(0%, 0%, 0%)" stroke-opacity="1" stroke-miterlimit="10" d="M 306.191406 78.640625 L 306.195312 82.789062 L 306.195312 99.988281 L 306.191406 104.617188 L 306.195312 108.78125 L 306.191406 112.015625 "/>
<path fill="none" stroke-width="0.75" stroke-linecap="round" stroke-linejoin="round" stroke="rgb(0%, 0%, 0%)" stroke-opacity="1" stroke-miterlimit="10" d="M 330.785156 111.945312 L 330.78125 116.222656 L 330.777344 120.25 L 330.773438 124.40625 L 330.765625 128.640625 "/>
<path fill="none" stroke-width="0.75" stroke-linecap="round" stroke-linejoin="round" stroke="rgb(0%, 0%, 0%)" stroke-opacity="1" stroke-miterlimit="10" d="M 308.742188 112.003906 L 308.738281 115.613281 L 308.734375 116.289062 L 308.730469 120.316406 L 308.722656 124.472656 L 308.71875 128.679688 L 308.570312 128.929688 L 308.570312 137.011719 L 308.574219 145.351562 "/>
<path fill="none" stroke-width="0.75" stroke-linecap="round" stroke-linejoin="round" stroke="rgb(0%, 0%, 0%)" stroke-opacity="1" stroke-miterlimit="10" d="M 332.367188 70.097656 L 332.394531 75.59375 L 332.367188 78.554688 L 332.367188 95.242188 L 332.371094 96.261719 L 332.375 96.859375 L 332.394531 99.882812 L 332.390625 104.523438 L 332.390625 108.691406 L 332.386719 109.859375 L 332.386719 111.941406 "/>
<path fill="none" stroke-width="0.75" stroke-linecap="round" stroke-linejoin="round" stroke="rgb(0%, 0%, 0%)" stroke-opacity="1" stroke-miterlimit="10" d="M 355.039062 103.164062 L 353.070312 106.839844 L 351.257812 110.230469 L 350.175781 112.207031 L 348.960938 114.429688 "/>
<path fill="none" stroke-width="0.75" stroke-linecap="round" stroke-linejoin="round" stroke="rgb(0%, 0%, 0%)" stroke-opacity="1" stroke-miterlimit="10" d="M 352.671875 92.820312 L 350.769531 96.300781 L 349.007812 99.519531 "/>
<path fill="none" stroke-width="0.75" stroke-linecap="round" stroke-linejoin="round" stroke="rgb(0%, 0%, 0%)" stroke-opacity="1" stroke-miterlimit="10" d="M 318.136719 67.71875 L 318.125 68.84375 L 318.140625 69.976562 L 318.152344 73.582031 L 318.167969 78.582031 L 318.152344 82.765625 L 318.128906 91.109375 L 318.121094 93.90625 L 318.113281 95.300781 L 318.117188 95.753906 L 318.078125 95.984375 L 318.007812 96.207031 L 317.980469 96.265625 L 317.875 96.464844 L 317.738281 96.652344 L 317.324219 97.1875 L 317.214844 97.382812 L 317.128906 97.613281 L 317.082031 97.832031 L 317.066406 98.085938 "/>
<path fill="none" stroke-width="0.75" stroke-linecap="round" stroke-linejoin="round" stroke="rgb(0%, 0%, 0%)" stroke-opacity="1" stroke-miterlimit="10" d="M 315.671875 67.730469 L 315.6875 73.589844 L 315.699219 78.339844 L 315.796875 78.59375 L 315.785156 82.746094 L 315.769531 86.949219 L 315.757812 91.117188 L 315.75 93.90625 L 315.746094 95.308594 "/>
<path fill="none" stroke-width="0.75" stroke-linecap="round" stroke-linejoin="round" stroke="rgb(0%, 0%, 0%)" stroke-opacity="1" stroke-miterlimit="10" d="M 369.472656 80.890625 L 368.382812 82.933594 L 367.507812 84.574219 L 366.617188 86.25 L 365.574219 86.769531 L 365.5 86.835938 L 365.449219 86.910156 L 365.011719 87.707031 L 364.570312 88.53125 "/>
<path fill="none" stroke-width="0.75" stroke-linecap="round" stroke-linejoin="round" stroke="rgb(0%, 0%, 0%)" stroke-opacity="1" stroke-miterlimit="10" d="M 306.65625 112.015625 L 306.652344 116.292969 L 306.644531 120.324219 L 306.640625 124.480469 L 306.640625 126.492188 "/>
<path fill="none" stroke-width="0.75" stroke-linecap="round" stroke-linejoin="round" stroke="rgb(0%, 0%, 0%)" stroke-opacity="1" stroke-miterlimit="10" d="M 320.78125 111.972656 L 320.777344 116.253906 L 320.773438 120.28125 L 320.769531 124.4375 L 320.765625 128.65625 "/>
<path fill="none" stroke-width="0.75" stroke-linecap="round" stroke-linejoin="round" stroke="rgb(0%, 0%, 0%)" stroke-opacity="1" stroke-miterlimit="10" d="M 325.414062 104.554688 L 325.410156 108.714844 L 325.40625 111.957031 "/>
<path fill="none" stroke-width="0.75" stroke-linecap="round" stroke-linejoin="round" stroke="rgb(0%, 0%, 0%)" stroke-opacity="1" stroke-miterlimit="10" d="M 368.277344 88.292969 L 367.210938 90.289062 L 366.375 91.851562 L 365.789062 92.945312 L 362.902344 98.363281 "/>
<path fill="none" stroke-width="0.75" stroke-linecap="round" stroke-linejoin="round" stroke="rgb(0%, 0%, 0%)" stroke-opacity="1" stroke-miterlimit="10" d="M 359.839844 75.84375 L 358.589844 78.179688 L 355.894531 83.203125 L 353.910156 86.910156 L 351.171875 92.011719 "/>
<path fill="none" stroke-width="0.75" stroke-linecap="round" stroke-linejoin="round" stroke="rgb(0%, 0%, 0%)" stroke-opacity="1" stroke-miterlimit="10" d="M 343.546875 81.652344 L 343.5625 84.050781 L 343.578125 87.457031 L 343.597656 90.867188 L 343.613281 93.933594 L 343.621094 95.199219 "/>
<path fill="none" stroke-width="0.75" stroke-linecap="round" stroke-linejoin="round" stroke="rgb(0%, 0%, 0%)" stroke-opacity="1" stroke-miterlimit="10" d="M 328.785156 111.949219 L 328.78125 116.230469 L 328.773438 120.257812 "/>
<path fill="none" stroke-width="0.75" stroke-linecap="round" stroke-linejoin="round" stroke="rgb(0%, 0%, 0%)" stroke-opacity="1" stroke-miterlimit="10" d="M 348.988281 95.332031 L 348.992188 96.394531 L 349 97.550781 L 349.007812 99.519531 L 349.011719 99.875 L 349.023438 102.292969 L 348.972656 104.585938 L 348.941406 106.667969 L 348.910156 108.945312 L 348.910156 110.835938 L 348.914062 111.515625 L 348.960938 114.429688 L 348.972656 116.824219 L 348.980469 118.230469 L 348.984375 119.132812 L 348.992188 120.535156 L 349.003906 122.628906 L 349.011719 123.914062 L 349.011719 124.390625 L 349.066406 128.621094 L 348.859375 129.003906 L 348.871094 132.492188 L 349.003906 133.890625 L 349.015625 136.671875 L 349.03125 138.859375 L 349.039062 141.136719 L 349.066406 145.691406 L 349.066406 145.871094 L 349.207031 149.539062 L 349.214844 150.652344 L 349.21875 151.261719 L 349.21875 151.378906 L 349.222656 151.75 L 349.222656 151.988281 L 349.226562 152.175781 L 349.226562 152.660156 L 349.230469 153.277344 L 349.230469 153.339844 L 349.234375 154.082031 L 349.238281 154.542969 L 349.242188 156.394531 L 349.25 158.246094 L 349.257812 160.101562 L 349.261719 160.996094 L 349.265625 161.875 L 349.277344 164.4375 L 349.230469 166.09375 L 349.257812 167.683594 L 349.285156 169.128906 L 349.28125 169.84375 L 349.28125 170.597656 L 349.277344 172.054688 L 349.277344 173.667969 L 349.265625 174.265625 L 349.234375 176.542969 L 349.246094 178.308594 L 349.265625 178.664062 L 349.277344 178.847656 L 349.3125 179.085938 L 349.585938 181.113281 L 349.589844 181.398438 L 349.5625 181.679688 L 349.496094 181.957031 L 349.417969 182.191406 L 349.332031 182.375 L 349.167969 182.6875 "/>
<path fill="none" stroke-width="0.75" stroke-linecap="round" stroke-linejoin="round" stroke="rgb(0%, 0%, 0%)" stroke-opacity="1" stroke-miterlimit="10" d="M 303.726562 67.785156 L 303.730469 73.648438 L 303.742188 75.5 L 303.746094 78.648438 L 303.8125 82.796875 L 303.8125 112.023438 "/>
<path fill="none" stroke-width="0.75" stroke-linecap="round" stroke-linejoin="round" stroke="rgb(0%, 0%, 0%)" stroke-opacity="1" stroke-miterlimit="10" d="M 352.960938 102.027344 L 350.992188 105.707031 L 349.179688 109.09375 "/>
<path fill="none" stroke-width="0.75" stroke-linecap="round" stroke-linejoin="round" stroke="rgb(0%, 0%, 0%)" stroke-opacity="1" stroke-miterlimit="10" d="M 359.863281 96.726562 L 357.949219 100.21875 L 356.039062 103.710938 "/>
<path fill="none" stroke-width="0.75" stroke-linecap="round" stroke-linejoin="round" stroke="rgb(0%, 0%, 0%)" stroke-opacity="1" stroke-miterlimit="10" d="M 342 75.40625 L 342.019531 78.753906 L 342.027344 80.582031 L 342.03125 81.65625 L 342.046875 84.050781 "/>
<path fill="none" stroke-width="0.75" stroke-linecap="round" stroke-linejoin="round" stroke="rgb(0%, 0%, 0%)" stroke-opacity="1" stroke-miterlimit="10" d="M 314.78125 111.988281 L 314.777344 116.269531 L 314.773438 120.296875 L 314.765625 124.457031 L 314.761719 128.667969 "/>
<path fill="none" stroke-width="0.75" stroke-linecap="round" stroke-linejoin="round" stroke="rgb(0%, 0%, 0%)" stroke-opacity="1" stroke-miterlimit="10" d="M 310.941406 70.027344 L 310.953125 73.613281 L 310.96875 78.492188 L 310.996094 78.617188 L 310.984375 82.765625 L 310.972656 86.964844 L 310.957031 91.136719 L 310.949219 93.894531 L 310.945312 95.015625 L 310.816406 95.328125 L 310.816406 99.972656 L 310.8125 104.613281 L 310.8125 112 L 310.777344 116.28125 L 310.773438 118.933594 L 310.773438 120.3125 L 310.769531 122.269531 L 310.769531 124.46875 L 310.765625 128.671875 L 310.757812 132.78125 L 310.757812 134.800781 L 310.753906 137.007812 "/>
<path fill="none" stroke-width="0.75" stroke-linecap="round" stroke-linejoin="round" stroke="rgb(0%, 0%, 0%)" stroke-opacity="1" stroke-miterlimit="10" d="M 327.621094 70.109375 L 327.625 78.566406 L 327.625 82.421875 L 327.621094 82.738281 L 327.621094 86.90625 L 327.625 90.804688 L 327.679688 91.070312 L 327.679688 93.914062 L 327.675781 94.945312 L 327.59375 95.261719 L 327.59375 99.902344 L 327.589844 104.542969 L 327.589844 108.707031 L 327.585938 111.953125 "/>
<path fill="none" stroke-width="0.75" stroke-linecap="round" stroke-linejoin="round" stroke="rgb(0%, 0%, 0%)" stroke-opacity="1" stroke-miterlimit="10" d="M 321.246094 95.285156 L 321.246094 96.257812 L 321.242188 99.929688 L 321.242188 104.570312 L 321.238281 108.726562 L 321.238281 111.972656 "/>
<path fill="none" stroke-width="0.75" stroke-linecap="round" stroke-linejoin="round" stroke="rgb(0%, 0%, 0%)" stroke-opacity="1" stroke-miterlimit="10" d="M 352.671875 92.820312 L 350.769531 96.300781 L 349.007812 99.519531 "/>
<path fill="none" stroke-width="0.75" stroke-linecap="round" stroke-linejoin="round" stroke="rgb(0%, 0%, 0%)" stroke-opacity="1" stroke-miterlimit="10" d="M 352.929688 72.222656 L 351.035156 75.75 L 349.480469 78.574219 L 348.808594 79.796875 "/>
<path fill="none" stroke-width="0.75" stroke-linecap="round" stroke-linejoin="round" stroke="rgb(0%, 0%, 0%)" stroke-opacity="1" stroke-miterlimit="10" d="M 332.785156 111.9375 L 332.78125 116.21875 L 332.777344 120.246094 L 332.824219 124.402344 L 332.820312 128.636719 "/>
<path fill="none" stroke-width="0.75" stroke-linecap="round" stroke-linejoin="round" stroke="rgb(0%, 0%, 0%)" stroke-opacity="1" stroke-miterlimit="10" d="M 324.785156 111.960938 L 324.78125 116.242188 L 324.773438 120.269531 L 324.769531 124.425781 L 324.765625 128.648438 "/>
<path fill="none" stroke-width="0.75" stroke-linecap="round" stroke-linejoin="round" stroke="rgb(0%, 0%, 0%)" stroke-opacity="1" stroke-miterlimit="10" d="M 319.15625 99.9375 L 319.15625 104.578125 L 319.152344 108.734375 L 319.152344 111.171875 L 318.964844 111.976562 L 318.78125 112.777344 L 318.773438 114.226562 L 318.742188 114.34375 L 318.6875 114.4375 L 318.621094 114.507812 L 318.246094 114.8125 L 318.394531 115.140625 L 318.519531 115.484375 L 318.644531 115.925781 L 318.707031 116.257812 L 318.75 116.59375 L 318.777344 116.859375 L 318.773438 120.289062 L 318.769531 124.441406 L 318.765625 128.660156 L 318.320312 129.609375 L 318.222656 129.902344 L 318.191406 130.207031 L 318.164062 130.28125 L 318.160156 130.746094 L 318.160156 134.789062 L 318.15625 135.09375 L 318.117188 135.535156 L 318.050781 135.96875 L 317.953125 136.398438 L 317.867188 136.679688 L 317.425781 138.1875 L 317.335938 138.617188 L 317.273438 139.054688 L 317.238281 139.570312 "/>
<path fill="none" stroke-width="0.75" stroke-linecap="round" stroke-linejoin="round" stroke="rgb(0%, 0%, 0%)" stroke-opacity="1" stroke-miterlimit="10" d="M 355.066406 107.929688 L 353.253906 111.316406 L 352.453125 112.785156 L 351.90625 113.785156 L 351.382812 114.742188 L 350.175781 116.953125 L 349.363281 118.441406 L 348.984375 119.132812 "/>
<path fill="none" stroke-width="0.75" stroke-linecap="round" stroke-linejoin="round" stroke="rgb(0%, 0%, 0%)" stroke-opacity="1" stroke-miterlimit="10" d="M 350.878906 100.890625 L 350.328125 101.921875 L 349.554688 103.449219 L 348.972656 104.585938 "/>
<path fill="none" stroke-width="0.75" stroke-linecap="round" stroke-linejoin="round" stroke="rgb(0%, 0%, 0%)" stroke-opacity="1" stroke-miterlimit="10" d="M 365.042969 78.570312 L 363.777344 80.9375 L 363.648438 81.183594 L 360.8125 86.488281 L 359.824219 88.347656 L 359.421875 89.097656 L 358.871094 90.128906 L 357.03125 93.574219 L 356.476562 94.613281 L 356.238281 94.769531 L 354.335938 98.246094 L 352.425781 101.738281 "/>
<path fill="none" stroke-width="0.75" stroke-linecap="round" stroke-linejoin="round" stroke="rgb(0%, 0%, 0%)" stroke-opacity="1" stroke-miterlimit="10" d="M 368.875 91.976562 L 368.410156 92.757812 L 364.558594 99.257812 "/>
<path fill="none" stroke-width="0.75" stroke-linecap="round" stroke-linejoin="round" stroke="rgb(0%, 0%, 0%)" stroke-opacity="1" stroke-miterlimit="10" d="M 320.355469 78.578125 L 320.351562 82.757812 L 320.351562 86.925781 L 320.347656 91.097656 L 320.347656 95.289062 "/>
<path fill="none" stroke-width="0.75" stroke-linecap="round" stroke-linejoin="round" stroke="rgb(0%, 0%, 0%)" stroke-opacity="1" stroke-miterlimit="10" d="M 361.609375 76.769531 L 360.363281 79.105469 L 357.714844 84.046875 L 352.933594 92.960938 "/>
<path fill="none" stroke-width="0.75" stroke-linecap="round" stroke-linejoin="round" stroke="rgb(0%, 0%, 0%)" stroke-opacity="1" stroke-miterlimit="10" d="M 344.160156 68.367188 L 344.195312 74.523438 L 344.136719 75.398438 L 344.085938 76.132812 L 344.097656 78.59375 L 344.097656 78.738281 L 344.117188 81.648438 "/>
<path fill="none" stroke-width="0.75" stroke-linecap="round" stroke-linejoin="round" stroke="rgb(0%, 0%, 0%)" stroke-opacity="1" stroke-miterlimit="10" d="M 316.777344 115.367188 L 316.773438 115.796875 L 316.777344 116.265625 "/>
<path fill="none" stroke-width="0.75" stroke-linecap="round" stroke-linejoin="round" stroke="rgb(0%, 0%, 0%)" stroke-opacity="1" stroke-miterlimit="10" d="M 385.402344 133.355469 L 384.867188 133.210938 L 384.433594 133.070312 L 384.230469 132.996094 L 383.730469 132.785156 L 383.1875 132.515625 L 382.835938 132.324219 L 382.1875 131.972656 L 381.949219 131.84375 L 380.707031 131.171875 L 380.476562 131.046875 L 380.355469 130.980469 L 379.515625 130.523438 L 379.199219 130.351562 L 378.886719 130.183594 L 378.511719 129.976562 L 378.339844 129.886719 L 378.046875 129.726562 L 377.511719 129.433594 L 376.050781 128.644531 L 373.933594 127.496094 L 371.503906 126.125 L 369.84375 125.21875 L 368.109375 124.28125 L 366.894531 123.625 L 365.816406 123.039062 L 364.945312 122.585938 L 364.707031 122.457031 L 363.613281 121.886719 L 362.566406 121.335938 L 361.527344 120.765625 L 359.449219 119.632812 L 357.292969 118.453125 L 356.433594 117.984375 L 356.277344 117.902344 L 356.246094 117.886719 L 356.226562 117.875 L 356.121094 117.816406 L 355.582031 117.527344 L 355.070312 117.472656 L 352.625 117.210938 L 350.175781 116.953125 L 348.972656 116.824219 L 348.835938 116.8125 L 346.699219 116.8125 L 342.214844 116.820312 L 339.652344 116.824219 L 337.191406 116.828125 L 336.515625 116.828125 L 336.152344 116.816406 L 335.738281 116.765625 L 335.332031 116.679688 L 335.171875 116.636719 L 334.78125 116.5 L 334.226562 116.347656 L 333.902344 116.28125 L 333.644531 116.246094 L 333.230469 116.21875 L 332.78125 116.21875 L 330.78125 116.222656 L 326.78125 116.238281 L 324.78125 116.242188 L 322.777344 116.246094 L 320.777344 116.253906 L 318.707031 116.257812 L 316.777344 116.265625 L 314.777344 116.269531 L 312.777344 116.277344 L 310.777344 116.28125 L 308.734375 116.289062 L 306.652344 116.292969 L 304.546875 116.171875 L 301.421875 116.179688 L 299.371094 116.175781 L 297.414062 116.171875 L 295.453125 116.164062 L 294.128906 116.179688 L 293.308594 116.214844 L 289.984375 116.359375 L 287.390625 116.46875 L 287.1875 116.46875 L 286.765625 116.4375 L 286.351562 116.367188 L 285.949219 116.265625 L 285.632812 116.15625 L 285.136719 115.957031 L 283.140625 115.160156 L 281.265625 114.320312 L 279.144531 113.351562 L 276.957031 112.355469 L 274.84375 111.394531 L 272.289062 111.035156 L 269.589844 110.652344 L 267.28125 110.324219 L 265.371094 110.042969 L 263.585938 109.429688 L 263.398438 109.367188 L 261.746094 108.789062 L 261.234375 108.621094 L 259.894531 108.160156 L 258.78125 107.773438 L 256.558594 107.011719 L 254.253906 106.21875 L 253.953125 106.113281 L 251.910156 106.058594 L 249.664062 105.996094 L 247.421875 105.933594 L 245.308594 105.878906 L 243.417969 105.816406 L 242.207031 105.777344 L 239.8125 105.703125 L 237.402344 105.628906 L 235.023438 105.554688 L 232.996094 105.492188 L 230.988281 105.429688 L 229.472656 105.378906 L 228.664062 105.355469 L 227.101562 105.308594 L 226.6875 105.292969 L 224.886719 105.238281 L 222.695312 105.167969 L 220.5 105.105469 L 218.414062 105.042969 L 216.363281 104.984375 L 214.070312 104.917969 L 211.773438 104.851562 L 209.53125 104.785156 L 207.71875 104.734375 L 206.027344 104.683594 L 204.28125 104.632812 L 202.398438 104.246094 L 200.480469 103.855469 L 199.304688 103.613281 L 198.238281 103.394531 L 196.707031 103.082031 L 194.652344 102.792969 L 193.683594 102.65625 L 192.597656 102.503906 L 190.980469 102.277344 L 190.542969 102.214844 L 189.332031 102.042969 L 188.484375 101.925781 L 186.710938 101.675781 L 186.433594 101.636719 L 185.652344 101.527344 L 183.722656 101.253906 L 181.53125 100.945312 L 179.546875 100.664062 L 177.859375 100.425781 L 175.703125 100.121094 L 174.441406 99.945312 L 173.84375 99.992188 L 173.421875 100.027344 L 173.085938 100.054688 L 172.804688 100.074219 L 170.996094 100.226562 L 170.910156 100.226562 L 169.101562 100.222656 L 158.851562 100.222656 L 157.949219 100.199219 L 157.539062 100.195312 L 156.9375 100.21875 L 154.949219 100.179688 L 154.035156 100.199219 L 152.96875 100.191406 L 151.910156 100.171875 L 150.996094 100.195312 L 149.070312 100.191406 L 148.054688 100.152344 L 147.074219 100.148438 L 146.144531 100.109375 L 145.660156 100.128906 L 145.210938 100.109375 L 144.246094 100.097656 L 143.222656 100.089844 L 141.257812 100.085938 L 139.292969 100.105469 L 138.171875 100.105469 L 137.285156 100.089844 L 135.335938 100.101562 L 134.128906 100.101562 L 133.347656 100.082031 L 132.605469 100.042969 L 131.972656 99.960938 L 131.382812 99.851562 L 131.03125 99.726562 L 130.539062 99.605469 L 130.214844 99.503906 L 129.253906 99.367188 L 128.3125 99.367188 L 127.175781 99.347656 L 125.078125 99.324219 L 123 99.300781 L 120.917969 99.3125 L 118.859375 99.300781 L 116.804688 99.296875 L 114.667969 99.261719 L 112.589844 99.261719 L 111.949219 99.25 L 111.492188 99.253906 L 110.503906 99.253906 "/>
<path fill="none" stroke-width="0.75" stroke-linecap="round" stroke-linejoin="round" stroke="rgb(0%, 0%, 0%)" stroke-opacity="1" stroke-miterlimit="10" d="M 422.296875 123.582031 L 421.230469 122.746094 L 420.210938 121.953125 L 418.164062 120.347656 L 416.121094 118.746094 L 414.78125 117.703125 L 414.082031 117.15625 L 412.082031 115.601562 L 412.039062 115.566406 L 410.035156 114.011719 L 407.886719 112.34375 L 405.847656 110.761719 L 404.671875 109.78125 L 404.046875 109.261719 L 403.121094 108.535156 L 402.839844 108.3125 L 402.5625 108.089844 L 402.386719 107.953125 L 402.179688 107.792969 L 401.871094 107.550781 L 401.796875 107.53125 L 399.476562 106.972656 L 398.996094 106.816406 L 398.65625 106.679688 L 398.492188 106.601562 L 395.667969 105.164062 L 392.234375 103.421875 L 388.9375 101.820312 L 388.667969 101.6875 L 386.90625 100.828125 L 384.6875 99.753906 L 381.472656 98.152344 L 380.132812 97.480469 L 379.171875 97 L 378.566406 96.671875 L 378.253906 96.503906 L 375.796875 95.164062 L 374.707031 94.578125 L 373.417969 93.886719 L 371.085938 92.640625 L 370.609375 92.527344 L 369.699219 92.308594 L 369.371094 92.203125 L 369.050781 92.066406 L 368.875 91.976562 L 368.601562 91.8125 L 368.320312 91.613281 L 368.007812 91.339844 L 367.769531 91.085938 L 367.554688 90.816406 L 367.210938 90.289062 L 366.996094 89.992188 L 366.828125 89.808594 L 366.613281 89.617188 L 366.375 89.453125 L 364.570312 88.53125 L 363.644531 88.0625 L 363.167969 87.808594 L 360.980469 86.640625 L 360.8125 86.488281 L 359.226562 85.058594 L 358.808594 84.695312 L 358.550781 84.507812 L 358.277344 84.351562 L 357.714844 84.046875 L 355.894531 83.203125 L 354.285156 82.359375 L 354.117188 82.269531 L 353.140625 81.757812 L 352.917969 81.640625 L 350.902344 80.578125 L 350.742188 80.519531 L 348.808594 79.796875 L 346.1875 78.816406 L 345.980469 78.734375 L 344.097656 78.738281 L 342.761719 78.75 L 342.019531 78.753906 L 339.191406 78.554688 L 338.925781 78.539062 L 334.796875 78.550781 L 332.367188 78.554688 L 330.03125 78.5625 L 327.625 78.566406 L 325.25 78.570312 L 322.785156 78.574219 L 320.535156 78.578125 L 320.355469 78.578125 L 318.167969 78.582031 L 315.796875 78.59375 L 315.277344 78.59375 L 313.394531 78.605469 L 310.996094 78.617188 L 308.574219 78.628906 L 308.367188 78.628906 L 306.191406 78.640625 L 306.050781 78.640625 L 303.746094 78.648438 L 301.417969 78.660156 L 299.035156 78.660156 L 296.664062 78.652344 L 295.265625 78.652344 L 294.3125 78.648438 L 291.925781 78.644531 L 291.699219 78.644531 L 289.871094 78.640625 L 288.917969 78.636719 L 287.820312 78.636719 L 286.136719 78.632812 L 285.765625 78.632812 L 283.417969 78.628906 L 280.640625 78.621094 L 277.863281 78.617188 L 275.082031 78.613281 L 273.875 78.609375 L 273.507812 78.609375 L 272.222656 78.605469 L 271.417969 78.605469 L 269.441406 78.601562 L 269.203125 78.601562 L 266.632812 78.597656 L 263.789062 78.597656 L 260.820312 78.601562 L 257.539062 78.597656 L 254.609375 78.601562 L 244.945312 78.601562 L 242.960938 78.605469 L 240.878906 78.601562 L 231.601562 78.601562 L 230.507812 78.359375 L 228.53125 77.925781 L 228.183594 77.851562 L 227.054688 77.605469 L 226.105469 77.375 L 225.867188 77.316406 L 223.632812 76.773438 L 223.132812 76.652344 L 221.175781 76.179688 L 219.03125 75.660156 L 217.128906 75.199219 L 216.183594 74.972656 L 213.277344 74.476562 L 211.160156 74.117188 L 210.96875 74.082031 L 207.21875 73.445312 L 205.96875 73.230469 L 205.140625 73.089844 L 201.421875 72.457031 L 199.324219 72.105469 L 199.113281 72.070312 L 197.09375 71.726562 L 195.058594 71.386719 L 192.992188 71.039062 L 190.988281 70.703125 L 188.957031 70.359375 L 187.003906 70.035156 L 185 69.757812 L 182.980469 69.480469 L 180.960938 69.207031 L 179.003906 68.9375 L 176.980469 68.660156 L 175.554688 68.464844 L 172.601562 68.0625 L 170.390625 67.757812 L 170.140625 67.734375 L 170.007812 67.707031 L 169.34375 67.617188 L 168.816406 67.613281 L 166.792969 67.597656 L 164.769531 67.585938 L 162.75 67.570312 L 160.726562 67.558594 L 158.683594 67.546875 L 156.644531 67.53125 L 152.917969 67.507812 L 151.082031 67.492188 L 149.195312 67.480469 L 147.285156 67.464844 L 146.101562 67.519531 L 145.898438 67.527344 L 145.554688 67.535156 L 145.410156 67.550781 L 144.925781 67.589844 L 144.332031 67.605469 L 143.730469 67.609375 L 142.503906 67.613281 L 141.710938 67.617188 L 141.320312 67.621094 L 140.0625 67.636719 L 138.90625 67.65625 L 137.644531 67.644531 L 137.558594 67.644531 L 135.171875 67.742188 L 134.03125 67.753906 L 132.667969 67.769531 L 131.621094 67.8125 L 130.417969 67.832031 "/>
<path fill="none" stroke-width="0.75" stroke-linecap="round" stroke-linejoin="round" stroke="rgb(0%, 0%, 0%)" stroke-opacity="1" stroke-miterlimit="10" d="M 370.097656 120.519531 L 367.867188 119.300781 L 365.671875 118.101562 L 363.59375 116.96875 L 362.589844 116.421875 L 361.515625 115.832031 L 359.335938 114.640625 L 358.601562 114.238281 L 358.421875 114.140625 L 358.355469 114.105469 L 358.324219 114.085938 L 358.300781 114.074219 L 358.234375 114.039062 L 357.378906 113.566406 L 357.226562 113.492188 L 356.285156 112.976562 L 356.117188 112.882812 L 355.21875 112.390625 L 353.253906 111.316406 L 351.257812 110.230469 L 349.179688 109.09375 L 348.910156 108.945312 L 348.492188 108.753906 L 339.65625 108.785156 L 335.039062 108.800781 L 334.785156 108.679688 L 332.390625 108.691406 L 329.988281 108.703125 L 327.589844 108.707031 L 325.410156 108.714844 L 323.324219 108.722656 L 321.238281 108.726562 L 319.152344 108.734375 L 317.066406 108.738281 L 314.984375 108.746094 L 312.894531 108.753906 L 310.8125 108.765625 L 308.574219 108.773438 L 306.195312 108.78125 L 303.8125 108.792969 L 301.421875 108.800781 "/>
<path fill="none" stroke-width="0.75" stroke-linecap="round" stroke-linejoin="round" stroke="rgb(0%, 0%, 0%)" stroke-opacity="1" stroke-miterlimit="10" d="M 348.800781 84.03125 L 346.214844 84.039062 L 343.5625 84.050781 L 342.046875 84.050781 L 341.359375 84.054688 L 340.90625 83.800781 L 339.761719 83.167969 L 339.539062 83.085938 L 339.304688 83.039062 L 339.097656 83.027344 L 338.859375 83.050781 L 338.066406 83.25 L 337.570312 83.371094 L 337.324219 83.398438 L 337.074219 83.390625 L 336.828125 83.34375 L 336.617188 83.28125 L 336.476562 83.21875 L 334.796875 82.410156 L 332.367188 82.414062 L 330.03125 82.417969 L 327.625 82.421875 "/>
<path fill="none" stroke-width="0.75" stroke-linecap="round" stroke-linejoin="round" stroke="rgb(0%, 0%, 0%)" stroke-opacity="1" stroke-miterlimit="10" d="M 362.640625 92.140625 L 358.871094 90.128906 "/>
<path fill="none" stroke-width="0.75" stroke-linecap="round" stroke-linejoin="round" stroke="rgb(0%, 0%, 0%)" stroke-opacity="1" stroke-miterlimit="10" d="M 411.730469 136.519531 L 410.785156 135.78125 L 409.941406 135.125 L 408.84375 134.273438 L 407.898438 133.535156 L 406.855469 132.722656 L 405.835938 131.929688 L 404.808594 131.132812 L 403.785156 130.335938 L 401.738281 128.746094 L 399.65625 127.125 L 397.59375 125.519531 L 396.574219 124.726562 L 395.523438 123.910156 L 395.324219 123.757812 L 392.492188 122.761719 L 391.167969 122.300781 L 390.714844 122.117188 L 390.59375 122.058594 L 390.273438 121.90625 L 389.910156 121.738281 L 389.628906 121.601562 L 387.285156 120.519531 L 384.195312 119.09375 L 384.109375 119.046875 L 381.320312 117.523438 L 380.65625 117.160156 L 380.398438 117.019531 L 378.929688 116.21875 L 377.347656 115.355469 L 373.949219 113.496094 L 371.71875 112.277344 L 369.53125 111.082031 L 367.453125 109.945312 L 365.371094 108.8125 L 363.109375 107.574219 L 361.007812 106.425781 L 359.023438 105.339844 L 357.277344 104.386719 L 356.039062 103.710938 L 355.039062 103.164062 L 354.101562 102.652344 L 352.960938 102.027344 L 352.425781 101.738281 L 350.878906 100.890625 L 350.707031 100.800781 L 349.667969 100.234375 L 349.011719 99.875 L 348.914062 99.835938 L 345.1875 99.847656 L 342.089844 99.863281 L 339.664062 99.871094 L 337.347656 99.882812 L 334.792969 99.871094 L 332.394531 99.882812 L 329.992188 99.890625 L 327.59375 99.902344 L 326.457031 99.90625 "/>
<path fill="none" stroke-width="0.75" stroke-linecap="round" stroke-linejoin="round" stroke="rgb(0%, 0%, 0%)" stroke-opacity="1" stroke-miterlimit="10" d="M 334.796875 86.894531 L 332.367188 86.898438 L 330.03125 86.902344 L 327.621094 86.90625 L 325.25 86.90625 L 322.78125 86.917969 L 320.351562 86.925781 L 318.140625 86.9375 L 315.769531 86.949219 L 310.972656 86.964844 L 308.578125 86.976562 L 306.195312 86.984375 L 303.8125 86.996094 L 301.421875 87.007812 L 300.238281 87.015625 L 299.039062 87.011719 L 296.667969 87.003906 L 294.3125 86.996094 L 293.082031 86.992188 "/>
<path fill="none" stroke-width="0.75" stroke-linecap="round" stroke-linejoin="round" stroke="rgb(0%, 0%, 0%)" stroke-opacity="1" stroke-miterlimit="10" d="M 355.222656 117.195312 L 354.230469 116.652344 L 354.058594 116.5625 L 353.226562 116.109375 "/>
<path fill="none" stroke-width="0.75" stroke-linecap="round" stroke-linejoin="round" stroke="rgb(0%, 0%, 0%)" stroke-opacity="1" stroke-miterlimit="10" d="M 321.242188 99.929688 L 312.898438 99.960938 L 310.816406 99.972656 L 308.578125 99.980469 L 306.195312 99.988281 L 303.8125 100 L 301.421875 100.011719 L 299.371094 100.003906 L 297.414062 99.996094 L 295.457031 99.984375 L 293.867188 99.976562 L 293.714844 99.949219 L 293.546875 99.894531 L 293.367188 99.792969 L 293.144531 99.636719 L 292.960938 99.550781 L 292.792969 99.511719 L 292.652344 99.5 L 291.34375 99.496094 L 285.035156 99.472656 "/>
<path fill="none" stroke-width="0.75" stroke-linecap="round" stroke-linejoin="round" stroke="rgb(0%, 0%, 0%)" stroke-opacity="1" stroke-miterlimit="10" d="M 353.375 115.835938 L 351.382812 114.742188 L 350.382812 114.199219 "/>
<path fill="none" stroke-width="0.75" stroke-linecap="round" stroke-linejoin="round" stroke="rgb(0%, 0%, 0%)" stroke-opacity="1" stroke-miterlimit="10" d="M 327.621094 82.738281 L 325.25 82.738281 L 322.785156 82.746094 L 320.351562 82.757812 L 318.152344 82.765625 L 315.785156 82.746094 L 313.382812 82.757812 L 310.984375 82.765625 L 308.574219 82.777344 L 306.195312 82.789062 L 303.8125 82.796875 L 301.421875 82.839844 L 299.035156 82.835938 L 296.664062 82.828125 L 294.3125 82.820312 L 291.929688 82.816406 L 289.875 82.808594 L 287.820312 82.804688 L 285.769531 82.800781 L 283.417969 82.800781 L 280.636719 82.792969 L 277.859375 82.789062 L 275.082031 82.78125 L 273.695312 82.78125 L 272.226562 82.777344 L 269.445312 82.769531 L 268.023438 82.769531 L 266.636719 82.765625 L 264.988281 82.765625 L 264.527344 82.792969 L 263.953125 82.871094 L 263.792969 82.898438 L 263.464844 82.980469 L 262.886719 83.160156 L 260.824219 83.90625 L 258.984375 84.566406 L 258.625 84.664062 L 258.261719 84.722656 L 257.96875 84.753906 L 257.597656 84.757812 L 257.136719 84.726562 L 257.015625 84.710938 L 256.730469 84.644531 L 256.371094 84.539062 L 256.023438 84.40625 L 253.808594 83.441406 L 253.511719 83.347656 L 253.433594 83.324219 L 253.082031 83.253906 L 252.769531 83.21875 L 252.539062 83.210938 L 240.871094 83.210938 L 238.785156 83.214844 L 234.648438 83.214844 L 232.566406 83.210938 L 228.523438 83.210938 L 227.292969 83.195312 L 225.933594 83.394531 "/>
<path fill="none" stroke-width="0.75" stroke-linecap="round" stroke-linejoin="round" stroke="rgb(0%, 0%, 0%)" stroke-opacity="1" stroke-miterlimit="10" d="M 359.421875 89.097656 L 357.589844 88.109375 "/>
<path fill="none" stroke-width="0.75" stroke-linecap="round" stroke-linejoin="round" stroke="rgb(0%, 0%, 0%)" stroke-opacity="1" stroke-miterlimit="10" d="M 348.820312 87.441406 L 346.230469 87.449219 L 343.578125 87.457031 L 340.929688 87.464844 L 338.089844 87.472656 "/>
<path fill="none" stroke-width="0.75" stroke-linecap="round" stroke-linejoin="round" stroke="rgb(0%, 0%, 0%)" stroke-opacity="1" stroke-miterlimit="10" d="M 386.882812 123.773438 L 385.984375 123.542969 L 384.566406 123.1875 L 384.1875 123.132812 L 383.804688 123.105469 L 383.421875 123.117188 L 383.148438 123.140625 L 380.941406 123.3125 L 380.570312 123.34375 L 378.691406 122.320312 L 377.925781 121.902344 L 377.125 121.464844 L 376.3125 121.074219 L 375.292969 120.527344 L 375.125 120.402344 L 375 120.269531 L 374.898438 120.117188 L 374.816406 119.945312 L 374.1875 118.3125 L 371.976562 117.09375 L 369.746094 115.875 L 368.683594 115.296875 L 367.554688 114.683594 L 365.476562 113.546875 L 364.457031 112.992188 L 363.398438 112.410156 L 361.175781 111.195312 L 359.070312 110.046875 L 357.058594 108.949219 L 355.316406 108.050781 L 355.066406 107.929688 L 353.070312 106.839844 L 350.992188 105.707031 L 348.972656 104.585938 L 343.890625 104.601562 L 339.660156 104.613281 L 337.257812 104.621094 L 334.789062 104.515625 L 332.390625 104.523438 L 329.988281 104.535156 L 327.589844 104.542969 L 325.414062 104.554688 L 319.15625 104.578125 L 317.066406 104.585938 L 314.984375 104.597656 L 310.8125 104.613281 L 308.574219 104.605469 L 306.191406 104.617188 L 303.8125 104.628906 L 301.960938 103.769531 L 301.421875 103.765625 L 299.371094 103.757812 L 295.457031 103.742188 L 293.5 103.726562 L 291.511719 103.703125 L 289.203125 103.667969 L 287.179688 103.640625 L 285.53125 103.617188 L 285.121094 103.601562 L 284.890625 103.566406 L 284.636719 103.492188 L 283.535156 103.011719 L 281.535156 102.140625 L 279.53125 101.238281 L 277.671875 100.390625 L 276.402344 99.839844 L 276.207031 99.777344 L 275.765625 99.65625 L 275.464844 99.609375 L 275.089844 99.59375 L 274.789062 99.609375 L 274.214844 99.671875 L 273.839844 99.675781 L 273.527344 99.648438 L 273.222656 99.609375 L 272.714844 99.449219 L 272.371094 99.300781 L 272.046875 99.113281 L 271.742188 98.894531 L 271.507812 98.691406 L 271.417969 98.601562 L 271.226562 98.378906 L 270.984375 98.136719 L 270.742188 97.941406 L 270.519531 97.792969 L 270.367188 97.71875 "/>
<path fill="none" stroke-width="0.75" stroke-linecap="round" stroke-linejoin="round" stroke="rgb(0%, 0%, 0%)" stroke-opacity="1" stroke-miterlimit="10" d="M 366.375 91.851562 L 363.59375 90.363281 L 362.675781 89.875 L 359.824219 88.347656 "/>
<path fill="none" stroke-width="0.75" stroke-linecap="round" stroke-linejoin="round" stroke="rgb(0%, 0%, 0%)" stroke-opacity="1" stroke-miterlimit="10" d="M 393.609375 114.386719 L 392.285156 113.714844 L 391.457031 113.296875 L 391.210938 113.171875 L 389.597656 112.355469 L 388.050781 111.570312 L 386 110.535156 L 384.65625 109.855469 L 384.484375 109.769531 L 383.253906 109.144531 L 381.320312 108.164062 L 379.871094 107.429688 L 378.292969 106.632812 L 377.882812 106.425781 L 377.324219 106.140625 L 376.417969 105.652344 L 373.984375 104.339844 L 373.378906 104.015625 L 371.527344 103.015625 L 371.292969 102.890625 L 370.480469 102.449219 L 369.210938 101.765625 L 366.882812 100.507812 L 364.558594 99.257812 L 362.902344 98.363281 L 360.953125 97.316406 L 359.863281 96.726562 L 359.007812 96.265625 L 357.917969 95.675781 L 356.238281 94.769531 L 354.527344 93.820312 L 352.933594 92.960938 L 352.671875 92.820312 L 351.171875 92.011719 L 349.585938 91.164062 L 349.21875 90.960938 L 349.027344 90.890625 L 348.839844 90.859375 L 346.25 90.859375 L 340.945312 90.875 L 338.105469 90.882812 L 334.796875 90.890625 L 334.640625 90.902344 L 333.695312 91.054688 L 333.535156 91.0625 L 332.367188 91.066406 L 330.03125 91.066406 L 327.679688 91.070312 L 325.246094 91.078125 L 322.78125 91.085938 L 320.347656 91.097656 L 318.128906 91.109375 L 315.757812 91.117188 L 313.359375 91.125 L 310.957031 91.136719 L 308.578125 91.144531 L 303.8125 91.167969 L 301.421875 91.175781 L 299.039062 91.167969 L 296.667969 91.15625 L 294.316406 91.148438 L 293.648438 91.152344 L 293.253906 91.191406 L 292.867188 91.273438 L 292.550781 91.371094 L 291.976562 91.601562 L 291.34375 91.855469 L 291.003906 91.953125 L 290.757812 92.007812 L 290.429688 92.046875 L 290.03125 92.0625 L 289.625 92.03125 L 289.34375 91.984375 L 288.953125 91.878906 L 287.59375 91.390625 L 287.253906 91.285156 L 287.085938 91.253906 L 286.703125 91.203125 L 286.351562 91.175781 L 284.882812 91.164062 L 284.410156 91.152344 L 283.417969 91.125 L 280.640625 91.039062 L 277.859375 90.953125 L 275.078125 90.863281 L 273.628906 90.824219 L 272.230469 90.78125 L 269.453125 90.695312 L 267.777344 90.640625 L 267.3125 90.582031 L 266.945312 90.503906 L 266.585938 90.402344 L 266.058594 90.230469 L 265.679688 90.105469 L 261.367188 90.007812 L 258.476562 89.941406 L 257.90625 89.921875 L 257.710938 89.886719 L 257.542969 89.828125 L 257.367188 89.734375 L 257.191406 89.605469 L 257.042969 89.441406 L 256.722656 88.980469 L 256.503906 88.730469 L 256.261719 88.503906 L 256 88.292969 L 255.957031 88.261719 L 255.707031 88.121094 L 255.335938 87.960938 L 255.074219 87.875 L 254.695312 87.792969 L 254.3125 87.757812 L 246.582031 87.757812 L 245.246094 87.753906 L 244.929688 87.757812 L 240.863281 87.757812 L 238.777344 87.761719 L 224.472656 87.761719 L 222.449219 87.757812 L 217.054688 87.757812 L 214.363281 87.753906 L 209.070312 87.753906 L 205.496094 87.75 L 203.472656 87.726562 L 202.839844 87.722656 L 201.421875 87.703125 L 198.410156 87.285156 L 194.585938 86.75 L 188.863281 85.953125 L 182.859375 85.117188 L 180.046875 84.734375 L 179.226562 85.144531 L 179.058594 85.230469 L 178.746094 85.382812 L 178.691406 85.410156 "/>
<path fill="none" stroke-width="0.75" stroke-linecap="round" stroke-linejoin="round" stroke="rgb(0%, 0%, 0%)" stroke-opacity="1" stroke-miterlimit="10" d="M 326.785156 111.957031 L 326.78125 116.238281 L 326.777344 120.261719 L 326.769531 124.417969 L 326.761719 128.378906 L 326.625 128.644531 L 326.621094 130.636719 "/>
<path fill="none" stroke-width="0.75" stroke-linecap="round" stroke-linejoin="round" stroke="rgb(0%, 0%, 0%)" stroke-opacity="1" stroke-miterlimit="10" d="M 342.183594 110.863281 L 342.214844 116.820312 L 342.234375 120.539062 L 342.253906 124.394531 L 342.277344 128.628906 "/>
<path fill="none" stroke-width="0.75" stroke-linecap="round" stroke-linejoin="round" stroke="rgb(0%, 0%, 0%)" stroke-opacity="1" stroke-miterlimit="10" d="M 323.328125 104.5625 L 323.324219 108.722656 L 323.324219 111.964844 "/>
<path fill="none" stroke-width="0.75" stroke-linecap="round" stroke-linejoin="round" stroke="rgb(0%, 0%, 0%)" stroke-opacity="1" stroke-miterlimit="10" d="M 345.1875 99.847656 L 345.203125 102.308594 "/>
<path fill="none" stroke-width="0.75" stroke-linecap="round" stroke-linejoin="round" stroke="rgb(0%, 0%, 0%)" stroke-opacity="1" stroke-miterlimit="10" d="M 349 97.550781 L 342.074219 97.574219 "/>
<path fill="none" stroke-width="0.75" stroke-linecap="round" stroke-linejoin="round" stroke="rgb(0%, 0%, 0%)" stroke-opacity="1" stroke-miterlimit="10" d="M 358.300781 114.074219 L 357.492188 115.472656 L 357.179688 116.054688 L 356.226562 117.875 "/>
<path fill="none" stroke-width="0.75" stroke-linecap="round" stroke-linejoin="round" stroke="rgb(0%, 0%, 0%)" stroke-opacity="1" stroke-miterlimit="10" d="M 321.242188 101.046875 L 319.15625 101.066406 "/>
<path fill="none" stroke-width="0.75" stroke-linecap="round" stroke-linejoin="round" stroke="rgb(0%, 0%, 0%)" stroke-opacity="1" stroke-miterlimit="10" d="M 303.8125 104.628906 L 301.421875 104.636719 "/>
<path fill="none" stroke-width="0.75" stroke-linecap="round" stroke-linejoin="round" stroke="rgb(0%, 0%, 0%)" stroke-opacity="1" stroke-miterlimit="10" d="M 370.609375 92.527344 L 368.410156 92.757812 L 365.789062 92.945312 L 363.183594 93.132812 L 362.070312 93.214844 L 360.582031 93.320312 L 357.03125 93.574219 "/>
<path fill="none" stroke-width="0.75" stroke-linecap="round" stroke-linejoin="round" stroke="rgb(0%, 0%, 0%)" stroke-opacity="1" stroke-miterlimit="10" d="M 338.066406 83.25 L 338.089844 87.472656 L 338.105469 90.882812 L 338.121094 93.9375 L 338.128906 95.222656 "/>
<path fill="none" stroke-width="0.75" stroke-linecap="round" stroke-linejoin="round" stroke="rgb(0%, 0%, 0%)" stroke-opacity="1" stroke-miterlimit="10" d="M 340.90625 83.800781 L 340.824219 80.585938 "/>
<path fill="none" stroke-width="0.75" stroke-linecap="round" stroke-linejoin="round" stroke="rgb(0%, 0%, 0%)" stroke-opacity="1" stroke-miterlimit="10" d="M 353.910156 86.910156 L 352.21875 86 "/>
<path fill="none" stroke-width="0.75" stroke-linecap="round" stroke-linejoin="round" stroke="rgb(0%, 0%, 0%)" stroke-opacity="1" stroke-miterlimit="10" d="M 318.246094 114.8125 L 318.171875 114.65625 L 317.589844 113.546875 L 317.441406 113.210938 L 317.316406 112.867188 L 317.21875 112.515625 L 317.117188 111.980469 L 317.09375 111.800781 L 317.066406 111.4375 L 317.066406 104.585938 L 317.070312 99.945312 L 317.066406 98.085938 "/>
<path fill="none" stroke-width="0.75" stroke-linecap="round" stroke-linejoin="round" stroke="rgb(0%, 0%, 0%)" stroke-opacity="1" stroke-miterlimit="10" d="M 316.777344 116.265625 L 316.769531 120.292969 L 316.769531 124.449219 L 316.761719 128.664062 "/>
<path fill="none" stroke-width="0.75" stroke-linecap="round" stroke-linejoin="round" stroke="rgb(0%, 0%, 0%)" stroke-opacity="1" stroke-miterlimit="10" d="M 349.585938 91.164062 L 352.21875 86 L 354.117188 82.269531 "/>
<path fill="none" stroke-width="0.75" stroke-linecap="round" stroke-linejoin="round" stroke="rgb(0%, 0%, 0%)" stroke-opacity="1" stroke-miterlimit="10" d="M 402.921875 127.191406 L 400.855469 125.597656 L 398.789062 123.988281 L 397.765625 123.199219 L 396.714844 122.382812 L 394.273438 120.492188 L 393.730469 120.058594 L 393.585938 119.949219 L 393.316406 119.734375 L 393.007812 119.492188 L 392.835938 119.355469 L 392.671875 119.222656 L 392.417969 119.078125 L 391.402344 118.515625 L 390.167969 117.832031 L 390.117188 117.800781 L 388.851562 117.101562 L 387.5 116.398438 L 385.976562 115.601562 L 382.539062 113.726562 L 379.253906 111.933594 L 375.875 110.085938 L 372.496094 108.242188 L 371.398438 107.652344 L 369.28125 106.585938 L 367.195312 105.453125 L 364.910156 104.203125 L 364.683594 104.078125 L 364.441406 103.6875 L 364.210938 103.367188 L 363.878906 102.957031 L 363.609375 102.664062 L 363.324219 102.382812 L 362.925781 102.035156 L 362.503906 101.71875 L 362.0625 101.429688 L 361.714844 101.234375 L 361.242188 101.003906 L 360.875 100.851562 L 360.375 100.675781 L 359.863281 100.539062 L 359.34375 100.441406 L 358.953125 100.390625 L 358.554688 100.359375 L 358.179688 100.347656 L 357.949219 100.21875 L 356.011719 99.164062 L 354.335938 98.246094 L 350.769531 96.300781 L 348.988281 95.332031 L 348.71875 95.183594 L 346.273438 95.1875 L 343.621094 95.199219 L 342.0625 95.207031 L 340.96875 95.210938 L 339.667969 95.214844 L 338.128906 95.222656 L 337.347656 95.226562 L 334.796875 95.234375 L 332.367188 95.242188 L 330.03125 95.253906 L 327.59375 95.261719 L 325.242188 95.269531 L 322.78125 95.28125 L 321.246094 95.285156 L 320.347656 95.289062 L 318.113281 95.300781 L 316.867188 95.304688 L 315.746094 95.308594 L 314.988281 95.3125 L 313.347656 95.316406 L 312.902344 95.320312 L 310.816406 95.328125 L 308.578125 95.339844 L 306.195312 95.347656 L 303.8125 95.359375 L 301.425781 95.363281 L 299.039062 95.355469 L 297.414062 95.351562 L 296.671875 95.351562 L 294.316406 95.339844 L 291.65625 95.328125 L 289.613281 95.320312 L 287.089844 95.3125 "/>
<path fill="none" stroke-width="0.75" stroke-linecap="round" stroke-linejoin="round" stroke="rgb(0%, 0%, 0%)" stroke-opacity="1" stroke-miterlimit="10" d="M 350.175781 112.207031 L 348.914062 111.515625 "/>
<path fill="none" stroke-width="0.75" stroke-linecap="round" stroke-linejoin="round" stroke="rgb(0%, 0%, 0%)" stroke-opacity="1" stroke-miterlimit="10" d="M 343.882812 102.316406 L 343.890625 104.601562 "/>
<path fill="none" stroke-width="0.75" stroke-linecap="round" stroke-linejoin="round" stroke="rgb(0%, 0%, 0%)" stroke-opacity="1" stroke-miterlimit="10" d="M 342.0625 95.207031 L 342.070312 96.359375 L 342.074219 97.574219 L 342.089844 99.863281 "/>
<path fill="none" stroke-width="0.75" stroke-linecap="round" stroke-linejoin="round" stroke="rgb(0%, 0%, 0%)" stroke-opacity="1" stroke-miterlimit="10" d="M 348.785156 81.632812 L 346.199219 81.640625 L 344.117188 81.648438 L 343.546875 81.652344 L 342.03125 81.65625 "/>
<path fill="none" stroke-width="0.75" stroke-linecap="round" stroke-linejoin="round" stroke="rgb(0%, 0%, 0%)" stroke-opacity="1" stroke-miterlimit="10" d="M 322.785156 111.964844 L 322.777344 116.246094 L 322.773438 120.273438 L 322.769531 124.433594 L 322.765625 128.652344 "/>
<path fill="none" stroke-width="0.75" stroke-linecap="round" stroke-linejoin="round" stroke="rgb(0%, 0%, 0%)" stroke-opacity="1" stroke-miterlimit="10" d="M 334.785156 111.933594 L 332.785156 111.9375 L 332.386719 111.941406 L 330.785156 111.945312 L 329.988281 111.945312 L 328.785156 111.949219 L 327.585938 111.953125 L 326.785156 111.957031 L 325.40625 111.957031 L 324.785156 111.960938 L 323.324219 111.964844 L 322.785156 111.964844 L 321.238281 111.972656 L 320.78125 111.972656 L 318.964844 111.976562 L 317.117188 111.980469 L 314.980469 111.988281 L 314.78125 111.988281 L 312.78125 111.992188 L 310.8125 112 L 308.742188 112.003906 L 308.574219 112.007812 L 306.65625 112.015625 L 306.191406 112.015625 L 304.546875 112.019531 L 303.8125 112.023438 L 301.421875 112.039062 L 299.375 112.03125 L 297.414062 112.023438 L 295.457031 112.019531 L 293.496094 112.015625 L 291.507812 112.007812 L 289.203125 112.003906 "/>
<path fill="none" stroke-width="0.75" stroke-linecap="round" stroke-linejoin="round" stroke="rgb(0%, 0%, 0%)" stroke-opacity="1" stroke-miterlimit="10" d="M 344.425781 110.851562 L 344.457031 116.816406 "/>
<path fill="none" stroke-width="0.75" stroke-linecap="round" stroke-linejoin="round" stroke="rgb(0%, 0%, 0%)" stroke-opacity="1" stroke-miterlimit="10" d="M 342.027344 80.582031 L 340.824219 80.585938 L 339.53125 80.589844 "/>
<path fill="none" stroke-width="0.75" stroke-linecap="round" stroke-linejoin="round" stroke="rgb(0%, 0%, 0%)" stroke-opacity="1" stroke-miterlimit="10" d="M 346.667969 110.84375 L 346.699219 116.8125 L 346.71875 120.539062 L 346.738281 124.390625 L 346.761719 128.625 L 346.71875 132.476562 L 346.71875 138.5625 L 346.910156 139.066406 L 346.921875 141.152344 L 346.941406 145.265625 "/>
<path fill="none" stroke-width="0.75" stroke-linecap="round" stroke-linejoin="round" stroke="rgb(0%, 0%, 0%)" stroke-opacity="1" stroke-miterlimit="10" d="M 348.910156 110.835938 L 344.425781 110.851562 L 342.183594 110.863281 L 339.65625 110.871094 L 337.195312 110.878906 L 334.785156 110.890625 "/>
<path fill="none" stroke-width="0.75" stroke-linecap="round" stroke-linejoin="round" stroke="rgb(0%, 0%, 0%)" stroke-opacity="1" stroke-miterlimit="10" d="M 349.023438 102.292969 L 345.234375 102.308594 L 345.203125 102.308594 L 343.882812 102.316406 L 339.664062 102.332031 L 334.792969 102.355469 "/>
<path fill="none" stroke-width="0.75" stroke-linecap="round" stroke-linejoin="round" stroke="rgb(0%, 0%, 0%)" stroke-opacity="1" stroke-miterlimit="10" d="M 337.347656 95.226562 L 337.347656 99.882812 "/>
<path fill="none" stroke-width="0.75" stroke-linecap="round" stroke-linejoin="round" stroke="rgb(0%, 0%, 0%)" stroke-opacity="1" stroke-miterlimit="10" d="M 304.546875 114.089844 L 301.421875 114.097656 "/>
<path fill="none" stroke-width="0.75" stroke-linecap="round" stroke-linejoin="round" stroke="rgb(0%, 0%, 0%)" stroke-opacity="1" stroke-miterlimit="10" d="M 348.941406 106.667969 L 339.660156 106.699219 L 334.789062 106.714844 "/>
<path fill="none" stroke-width="0.75" stroke-linecap="round" stroke-linejoin="round" stroke="rgb(0%, 0%, 0%)" stroke-opacity="1" stroke-miterlimit="10" d="M 354.058594 116.5625 L 354.800781 115.121094 L 356.117188 112.882812 "/>
<path fill="none" stroke-width="0.75" stroke-linecap="round" stroke-linejoin="round" stroke="rgb(0%, 0%, 0%)" stroke-opacity="1" stroke-miterlimit="10" d="M 358.136719 74.949219 L 356.621094 77.910156 L 354.285156 82.359375 "/>
<path fill="none" stroke-width="0.75" stroke-linecap="round" stroke-linejoin="round" stroke="rgb(0%, 0%, 0%)" stroke-opacity="1" stroke-miterlimit="10" d="M 356.285156 112.976562 L 355.078125 115.121094 L 354.230469 116.652344 "/>
<path fill="none" stroke-width="2.25" stroke-linecap="round" stroke-linejoin="round" stroke="rgb(100%, 0%, 0%)" stroke-opacity="1" stroke-miterlimit="10" d="M 356.296875 117.847656 L 355.832031 117.640625 L 355.21875 117.464844 L 354.828125 117.398438 L 353.859375 117.316406 L 352.675781 117.171875 L 351.460938 117.058594 L 350.28125 116.945312 L 349.285156 116.835938 L 347.964844 116.777344 L 336.550781 116.800781 L 335.417969 116.6875 L 334.828125 116.503906 L 334.691406 116.460938 L 333.816406 116.21875 L 314.824219 116.308594 L 306.90625 116.347656 L 305.335938 116.199219 L 301.449219 116.199219 L 301.457031 95.328125 L 318.113281 95.273438 L 318.1875 86.679688 L 318.167969 78.554688 L 320.507812 78.542969 L 325.257812 78.523438 L 337.464844 78.535156 L 339.179688 78.554688 L 340.457031 78.621094 L 341.296875 78.679688 L 341.988281 78.71875 L 343.335938 78.726562 L 343.953125 78.730469 L 345.25 78.714844 L 345.890625 78.730469 L 346.230469 78.820312 L 348.777344 79.75 L 350.753906 80.5 L 351.246094 80.71875 L 353.070312 81.664062 L 354.296875 82.320312 L 358.535156 84.449219 L 358.75 84.589844 L 358.933594 84.730469 L 359.253906 85.011719 L 359.488281 85.253906 L 359.863281 85.609375 L 360.1875 85.910156 L 360.441406 86.132812 L 360.664062 86.3125 L 360.84375 86.441406 L 361.097656 86.628906 L 361.328125 86.796875 L 361.957031 87.164062 L 362.601562 87.503906 L 363.359375 87.890625 L 364.726562 88.59375 L 366.089844 89.230469 L 366.363281 89.378906 L 366.640625 89.578125 L 366.78125 89.699219 L 366.953125 89.882812 L 367.09375 90.054688 L 367.25 90.273438 L 367.359375 90.441406 L 367.488281 90.636719 L 367.585938 90.777344 L 367.722656 90.960938 L 367.800781 91.050781 L 367.875 91.140625 L 367.996094 91.257812 L 368.105469 91.355469 L 368.433594 91.644531 L 368.589844 91.777344 L 368.746094 91.882812 L 368.878906 91.964844 L 369.03125 92.035156 L 369.167969 92.109375 L 369.34375 92.160156 L 369.570312 92.222656 L 369.972656 92.324219 L 370.410156 92.449219 L 370.664062 92.519531 L 370.859375 92.582031 L 371.042969 92.65625 L 359.273438 114.59375 L 359.335938 114.628906 L 357.3125 118.429688 L 356.949219 118.234375 Z M 356.296875 117.847656 "/>
</svg>
