<?xml version="1.0" encoding="UTF-8"?>
<svg xmlns="http://www.w3.org/2000/svg" xmlns:xlink="http://www.w3.org/1999/xlink" width="504pt" height="360pt" viewBox="0 0 504 360">
<defs>
<clipPath id="clip-0">
<path clip-rule="nonzero" d="M 59.039062 59.039062 L 473.757812 59.039062 L 473.757812 286.558594 L 59.039062 286.558594 Z M 59.039062 59.039062 "/>
</clipPath>
</defs>
<rect x="-50.4" y="-36" width="604.8" height="432" fill="rgb(100%, 100%, 100%)" fill-opacity="1"/>
<g clip-path="url(#clip-0)">
<path fill-rule="nonzero" fill="rgb(100%, 100%, 100%)" fill-opacity="1" stroke-width="0.75" stroke-linecap="round" stroke-linejoin="round" stroke="rgb(100%, 100%, 100%)" stroke-opacity="1" stroke-miterlimit="10" d="M 59.039062 286.558594 L 473.757812 286.558594 L 473.757812 59.039062 L 59.039062 59.039062 Z M 59.039062 286.558594 "/>
</g>
<path fill="none" stroke-width="0.75" stroke-linecap="round" stroke-linejoin="round" stroke="rgb(0%, 0%, 0%)" stroke-opacity="1" stroke-miterlimit="10" d="M 332.816406 277.75 L 331.527344 276.988281 L 330.613281 276.582031 L 329.402344 276.230469 L 328.636719 276.105469 L 326.722656 275.945312 L 324.390625 275.65625 L 322 275.433594 L 319.667969 275.210938 L 317.710938 274.992188 L 315.105469 274.875 L 292.609375 274.925781 L 290.375 274.699219 L 289.214844 274.339844 L 288.941406 274.253906 L 287.214844 273.773438 L 249.785156 273.957031 L 234.175781 274.03125 L 231.085938 273.738281 L 223.425781 273.738281 L 223.4375 232.597656 L 256.269531 232.496094 L 256.417969 215.558594 L 256.375 199.539062 L 260.984375 199.515625 L 270.347656 199.484375 L 294.410156 199.503906 L 297.792969 199.539062 L 300.304688 199.671875 L 301.960938 199.785156 L 303.324219 199.863281 L 305.984375 199.882812 L 307.199219 199.890625 L 309.757812 199.855469 L 311.015625 199.890625 L 311.691406 200.0625 L 316.710938 201.898438 L 320.597656 203.375 L 321.578125 203.808594 L 325.171875 205.667969 L 327.585938 206.960938 L 335.9375 211.164062 L 336.359375 211.4375 L 336.730469 211.714844 L 337.355469 212.269531 L 337.816406 212.746094 L 338.554688 213.449219 L 339.199219 214.039062 L 339.695312 214.480469 L 340.140625 214.832031 L 340.488281 215.089844 L 340.988281 215.457031 L 341.449219 215.789062 L 342.683594 216.507812 L 343.957031 217.175781 L 345.449219 217.945312 L 348.140625 219.328125 L 350.828125 220.585938 L 351.371094 220.875 L 351.914062 221.269531 L 352.191406 221.507812 L 352.527344 221.871094 L 352.8125 222.210938 L 353.117188 222.640625 L 353.335938 222.96875 L 353.585938 223.355469 L 353.777344 223.636719 L 354.050781 223.992188 L 354.203125 224.171875 L 354.351562 224.347656 L 354.585938 224.578125 L 354.800781 224.773438 L 355.128906 225.058594 L 355.453125 225.339844 L 355.757812 225.605469 L 356.0625 225.808594 L 356.328125 225.972656 L 356.632812 226.113281 L 356.894531 226.253906 L 357.242188 226.355469 L 357.6875 226.480469 L 358.480469 226.683594 L 359.34375 226.929688 L 359.84375 227.070312 L 360.234375 227.191406 L 360.59375 227.332031 L 337.398438 270.578125 L 337.519531 270.644531 L 333.527344 278.132812 Z M 332.816406 277.75 "/>
<path fill="none" stroke-width="0.75" stroke-linecap="round" stroke-linejoin="round" stroke="rgb(0%, 0%, 0%)" stroke-opacity="1" stroke-miterlimit="10" d="M 289.40625 166.457031 L 256.425781 166.523438 L 223.402344 166.589844 L 172.203125 166.695312 L 172.398438 133.769531 L 174.046875 133.769531 L 174.148438 100.847656 L 174.253906 67.996094 L 190.355469 67.882812 L 201.898438 67.800781 L 202.464844 67.773438 L 203.066406 67.777344 L 203.964844 67.757812 L 204.40625 67.75 L 204.902344 67.738281 L 205.40625 67.464844 L 206.882812 67.726562 L 216.882812 67.726562 L 223.3125 67.722656 L 231.519531 67.722656 L 236.953125 67.71875 L 242.125 67.71875 L 245.933594 67.722656 L 246.257812 67.722656 L 250 67.726562 L 289.40625 67.636719 Z M 289.40625 166.457031 "/>
<path fill="none" stroke-width="0.75" stroke-linecap="round" stroke-linejoin="round" stroke="rgb(0%, 0%, 0%)" stroke-opacity="1" stroke-miterlimit="10" d="M 329.871094 283.234375 L 329.648438 283.109375 L 328.671875 282.53125 L 328.476562 282.445312 L 328.019531 282.3125 L 327.863281 282.285156 L 326.203125 282.148438 L 325.960938 282.121094 L 323.722656 281.847656 L 321.417969 281.632812 L 321.402344 281.628906 L 319.074219 281.40625 L 318.972656 281.394531 L 317.226562 281.199219 L 314.976562 281.101562 L 292.621094 281.148438 L 292.304688 281.140625 L 291.988281 281.117188 L 289.757812 280.894531 L 289.445312 280.855469 L 289.136719 280.800781 L 288.828125 280.730469 L 288.527344 280.644531 L 287.367188 280.28125 L 287.183594 280.226562 L 286.382812 280.003906 L 249.816406 280.179688 L 234.207031 280.253906 L 233.898438 280.25 L 233.585938 280.226562 L 230.789062 279.960938 L 223.425781 279.960938 L 223.101562 279.953125 L 222.773438 279.925781 L 222.453125 279.882812 L 222.132812 279.824219 L 221.816406 279.746094 L 221.503906 279.65625 L 221.195312 279.546875 L 220.894531 279.421875 L 220.601562 279.28125 L 220.3125 279.125 L 220.035156 278.957031 L 219.765625 278.769531 L 219.507812 278.574219 L 219.261719 278.359375 L 219.023438 278.136719 L 218.800781 277.898438 L 218.589844 277.652344 L 218.390625 277.394531 L 218.207031 277.125 L 218.035156 276.847656 L 217.878906 276.5625 L 217.738281 276.265625 L 217.613281 275.964844 L 217.507812 275.660156 L 217.414062 275.347656 L 217.335938 275.027344 L 217.277344 274.707031 L 217.234375 274.386719 L 217.210938 274.058594 L 217.203125 273.734375 L 217.214844 232.597656 L 217.222656 232.273438 L 217.246094 231.949219 L 217.289062 231.625 L 217.347656 231.304688 L 217.425781 230.988281 L 217.515625 230.679688 L 217.625 230.371094 L 217.75 230.070312 L 217.890625 229.777344 L 218.042969 229.492188 L 218.214844 229.214844 L 218.398438 228.945312 L 218.59375 228.6875 L 218.804688 228.441406 L 219.03125 228.203125 L 219.265625 227.980469 L 219.511719 227.769531 L 219.769531 227.570312 L 220.039062 227.386719 L 220.316406 227.214844 L 220.601562 227.058594 L 220.894531 226.917969 L 221.191406 226.792969 L 221.5 226.683594 L 221.8125 226.59375 L 222.125 226.515625 L 222.445312 226.453125 L 222.769531 226.410156 L 223.09375 226.386719 L 223.417969 226.375 L 250.101562 226.292969 L 250.195312 215.539062 L 250.148438 199.554688 L 250.15625 199.230469 L 250.183594 198.90625 L 250.222656 198.582031 L 250.28125 198.265625 L 250.355469 197.945312 L 250.449219 197.636719 L 250.554688 197.328125 L 250.679688 197.027344 L 250.820312 196.734375 L 250.972656 196.445312 L 251.140625 196.167969 L 251.324219 195.898438 L 251.523438 195.640625 L 251.734375 195.390625 L 251.957031 195.15625 L 252.191406 194.929688 L 252.4375 194.71875 L 252.695312 194.519531 L 252.960938 194.332031 L 253.238281 194.164062 L 253.523438 194.007812 L 253.816406 193.863281 L 254.117188 193.738281 L 254.425781 193.628906 L 254.734375 193.535156 L 255.050781 193.457031 L 255.371094 193.398438 L 255.695312 193.351562 L 256.019531 193.324219 L 256.34375 193.316406 L 260.953125 193.292969 L 260.960938 193.292969 L 270.324219 193.257812 L 270.355469 193.257812 L 294.414062 193.28125 L 294.472656 193.28125 L 297.855469 193.316406 L 298.125 193.324219 L 300.636719 193.457031 L 300.730469 193.464844 L 302.351562 193.574219 L 303.523438 193.640625 L 306.027344 193.65625 L 307.179688 193.667969 L 309.671875 193.632812 L 309.929688 193.632812 L 311.1875 193.667969 L 311.53125 193.6875 L 311.878906 193.726562 L 312.222656 193.785156 L 312.558594 193.863281 L 313.238281 194.035156 L 313.535156 194.121094 L 313.828125 194.21875 L 318.847656 196.054688 L 318.917969 196.082031 L 322.804688 197.554688 L 323.121094 197.683594 L 324.097656 198.117188 L 324.4375 198.28125 L 328.035156 200.144531 L 328.105469 200.179688 L 330.453125 201.433594 L 338.734375 205.601562 L 339.039062 205.769531 L 339.335938 205.949219 L 339.761719 206.226562 L 340.09375 206.460938 L 340.464844 206.738281 L 340.65625 206.890625 L 340.847656 207.050781 L 341.472656 207.601562 L 341.660156 207.773438 L 341.84375 207.953125 L 342.207031 208.332031 L 342.796875 208.894531 L 343.367188 209.414062 L 343.699219 209.710938 L 343.917969 209.882812 L 344.179688 210.078125 L 344.195312 210.089844 L 344.65625 210.429688 L 344.839844 210.5625 L 345.695312 211.0625 L 346.832031 211.65625 L 348.296875 212.414062 L 350.882812 213.742188 L 353.460938 214.945312 L 353.75 215.089844 L 354.292969 215.378906 L 354.554688 215.523438 L 354.808594 215.683594 L 355.050781 215.855469 L 355.59375 216.253906 L 355.972656 216.550781 L 356.25 216.789062 L 356.496094 217.015625 L 356.726562 217.25 L 357.066406 217.609375 L 357.300781 217.875 L 357.585938 218.214844 L 357.742188 218.410156 L 357.894531 218.613281 L 358.199219 219.046875 L 358.304688 219.203125 L 358.519531 219.527344 L 358.554688 219.578125 L 358.773438 219.914062 L 358.824219 219.988281 L 358.902344 220.09375 L 358.9375 220.125 L 359.1875 220.339844 L 359.226562 220.375 L 359.347656 220.480469 L 360.039062 220.660156 L 360.179688 220.695312 L 361.035156 220.9375 L 361.53125 221.078125 L 361.695312 221.128906 L 362.085938 221.25 L 362.511719 221.398438 L 362.871094 221.539062 L 363.171875 221.667969 L 363.46875 221.8125 L 363.753906 221.972656 L 364.035156 222.144531 L 364.304688 222.335938 L 364.5625 222.535156 L 364.808594 222.753906 L 365.042969 222.980469 L 365.269531 223.222656 L 365.476562 223.472656 L 365.675781 223.738281 L 365.859375 224.011719 L 366.027344 224.292969 L 366.179688 224.582031 L 366.316406 224.882812 L 366.4375 225.1875 L 366.542969 225.496094 L 366.628906 225.8125 L 366.703125 226.132812 L 366.757812 226.457031 L 366.792969 226.785156 L 366.816406 227.113281 L 366.816406 227.441406 L 366.804688 227.769531 L 366.773438 228.097656 L 366.722656 228.421875 L 366.65625 228.742188 L 366.574219 229.058594 L 366.476562 229.375 L 366.359375 229.679688 L 366.226562 229.980469 L 366.078125 230.273438 L 343.496094 272.382812 L 343.398438 272.679688 L 343.285156 272.984375 L 343.15625 273.28125 L 343.011719 273.570312 L 339.019531 281.058594 L 338.859375 281.34375 L 338.683594 281.617188 L 338.492188 281.882812 L 338.289062 282.140625 L 338.074219 282.382812 L 337.84375 282.617188 L 337.601562 282.835938 L 337.351562 283.042969 L 337.089844 283.238281 L 336.816406 283.417969 L 336.535156 283.582031 L 336.242188 283.734375 L 335.945312 283.867188 L 335.640625 283.988281 L 335.332031 284.089844 L 335.019531 284.175781 L 334.699219 284.246094 L 334.375 284.296875 L 334.050781 284.335938 L 333.726562 284.355469 L 333.398438 284.355469 L 333.074219 284.339844 L 332.75 284.308594 L 332.425781 284.257812 L 332.105469 284.191406 L 331.789062 284.109375 L 331.480469 284.011719 L 331.175781 283.894531 L 330.875 283.761719 L 330.582031 283.617188 Z M 329.871094 283.234375 "/>
<path fill="none" stroke-width="0.75" stroke-linecap="round" stroke-linejoin="round" stroke="rgb(0%, 0%, 0%)" stroke-opacity="1" stroke-miterlimit="10" d="M 167.835938 129.535156 L 167.925781 100.828125 L 168.027344 67.976562 L 168.039062 67.652344 L 168.0625 67.332031 L 168.105469 67.011719 L 168.167969 66.691406 L 168.242188 66.378906 L 168.335938 66.066406 L 168.445312 65.761719 L 168.566406 65.464844 L 168.707031 65.171875 L 168.863281 64.886719 L 169.03125 64.609375 L 169.214844 64.34375 L 169.410156 64.085938 L 169.621094 63.839844 L 169.84375 63.605469 L 170.078125 63.382812 L 170.324219 63.171875 L 170.578125 62.972656 L 170.84375 62.789062 L 171.121094 62.617188 L 171.402344 62.460938 L 171.695312 62.320312 L 171.996094 62.195312 L 172.300781 62.085938 L 172.609375 61.992188 L 172.921875 61.917969 L 173.242188 61.855469 L 173.5625 61.8125 L 173.882812 61.785156 L 174.207031 61.773438 L 190.3125 61.660156 L 201.738281 61.578125 L 202.191406 61.558594 L 202.480469 61.550781 L 203.015625 61.550781 L 203.503906 61.542969 L 203.632812 61.5 L 203.941406 61.417969 L 204.253906 61.351562 L 204.570312 61.300781 L 204.890625 61.265625 L 205.210938 61.246094 L 205.53125 61.246094 L 205.851562 61.257812 L 206.171875 61.289062 L 206.488281 61.335938 L 207.425781 61.503906 L 215.082031 61.5 L 231.519531 61.5 L 236.953125 61.496094 L 242.125 61.496094 L 245.9375 61.5 L 246.265625 61.5 L 249.996094 61.503906 L 289.390625 61.410156 L 289.71875 61.417969 L 290.042969 61.445312 L 290.367188 61.484375 L 290.6875 61.546875 L 291.007812 61.621094 L 291.320312 61.710938 L 291.625 61.820312 L 291.929688 61.945312 L 292.222656 62.085938 L 292.511719 62.242188 L 292.789062 62.410156 L 293.058594 62.59375 L 293.316406 62.792969 L 293.566406 63.003906 L 293.800781 63.230469 L 294.027344 63.464844 L 294.238281 63.714844 L 294.4375 63.972656 L 294.625 64.242188 L 294.792969 64.519531 L 294.949219 64.804688 L 295.089844 65.101562 L 295.214844 65.402344 L 295.324219 65.710938 L 295.417969 66.023438 L 295.496094 66.339844 L 295.554688 66.660156 L 295.597656 66.984375 L 295.621094 67.308594 L 295.628906 67.636719 L 295.628906 166.457031 L 295.621094 166.78125 L 295.597656 167.105469 L 295.554688 167.429688 L 295.496094 167.75 L 295.417969 168.066406 L 295.328125 168.378906 L 295.21875 168.683594 L 295.09375 168.984375 L 294.953125 169.28125 L 294.800781 169.566406 L 294.628906 169.84375 L 294.445312 170.109375 L 294.246094 170.371094 L 294.035156 170.617188 L 293.8125 170.855469 L 293.578125 171.078125 L 293.328125 171.289062 L 293.070312 171.488281 L 292.804688 171.671875 L 292.527344 171.84375 L 292.242188 172 L 291.945312 172.140625 L 291.644531 172.265625 L 291.339844 172.375 L 291.027344 172.464844 L 290.710938 172.542969 L 290.390625 172.601562 L 290.070312 172.644531 L 289.746094 172.671875 L 289.417969 172.679688 L 256.4375 172.746094 L 223.414062 172.816406 L 172.21875 172.917969 L 171.890625 172.910156 L 171.5625 172.886719 L 171.238281 172.84375 L 170.917969 172.785156 L 170.597656 172.707031 L 170.285156 172.617188 L 169.976562 172.507812 L 169.671875 172.382812 L 169.378906 172.242188 L 169.089844 172.082031 L 168.8125 171.914062 L 168.542969 171.726562 L 168.28125 171.527344 L 168.03125 171.3125 L 167.796875 171.089844 L 167.570312 170.851562 L 167.359375 170.601562 L 167.160156 170.339844 L 166.976562 170.070312 L 166.804688 169.789062 L 166.648438 169.503906 L 166.511719 169.207031 L 166.386719 168.902344 L 166.277344 168.59375 L 166.1875 168.28125 L 166.109375 167.960938 L 166.054688 167.636719 L 166.011719 167.3125 L 165.988281 166.988281 L 165.980469 166.660156 L 166.171875 133.730469 L 166.183594 133.40625 L 166.210938 133.085938 L 166.253906 132.761719 L 166.316406 132.445312 L 166.394531 132.128906 L 166.488281 131.816406 L 166.597656 131.511719 L 166.722656 131.210938 L 166.863281 130.921875 L 167.019531 130.636719 L 167.191406 130.359375 L 167.375 130.09375 L 167.574219 129.835938 L 167.785156 129.589844 Z M 167.835938 129.535156 "/>
<path fill-rule="evenodd" fill="rgb(0%, 100%, 0%)" fill-opacity="1" stroke-width="0.75" stroke-linecap="round" stroke-linejoin="round" stroke="rgb(0%, 0%, 0%)" stroke-opacity="1" stroke-miterlimit="10" d="M 329.648438 283.109375 L 328.671875 282.53125 L 328.476562 282.445312 L 328.019531 282.3125 L 327.863281 282.285156 L 326.203125 282.148438 L 325.960938 282.121094 L 323.722656 281.847656 L 321.417969 281.632812 L 321.402344 281.628906 L 319.074219 281.40625 L 318.972656 281.394531 L 317.226562 281.199219 L 314.976562 281.101562 L 292.621094 281.148438 L 292.304688 281.140625 L 291.988281 281.117188 L 289.757812 280.894531 L 289.445312 280.855469 L 289.136719 280.800781 L 288.828125 280.730469 L 288.527344 280.644531 L 287.367188 280.28125 L 287.183594 280.226562 L 286.382812 280.003906 L 249.816406 280.179688 L 234.207031 280.253906 L 233.898438 280.25 L 233.585938 280.226562 L 230.789062 279.960938 L 223.425781 279.960938 L 223.101562 279.953125 L 222.773438 279.925781 L 222.453125 279.882812 L 222.132812 279.824219 L 221.816406 279.746094 L 221.503906 279.65625 L 221.195312 279.546875 L 220.894531 279.421875 L 220.601562 279.28125 L 220.3125 279.125 L 220.035156 278.957031 L 219.765625 278.769531 L 219.507812 278.574219 L 219.261719 278.359375 L 219.023438 278.136719 L 218.800781 277.898438 L 218.589844 277.652344 L 218.390625 277.394531 L 218.207031 277.125 L 218.035156 276.847656 L 217.878906 276.5625 L 217.738281 276.265625 L 217.613281 275.964844 L 217.507812 275.660156 L 217.414062 275.347656 L 217.335938 275.027344 L 217.277344 274.707031 L 217.234375 274.386719 L 217.210938 274.058594 L 217.203125 273.734375 L 217.214844 232.597656 L 217.222656 232.273438 L 217.246094 231.949219 L 217.289062 231.625 L 217.347656 231.304688 L 217.425781 230.988281 L 217.515625 230.679688 L 217.625 230.371094 L 217.75 230.070312 L 217.890625 229.777344 L 218.042969 229.492188 L 218.214844 229.214844 L 218.398438 228.945312 L 218.59375 228.6875 L 218.804688 228.441406 L 219.03125 228.203125 L 219.265625 227.980469 L 219.511719 227.769531 L 219.769531 227.570312 L 220.039062 227.386719 L 220.316406 227.214844 L 220.601562 227.058594 L 220.894531 226.917969 L 221.191406 226.792969 L 221.5 226.683594 L 221.8125 226.59375 L 222.125 226.515625 L 222.445312 226.453125 L 222.769531 226.410156 L 223.09375 226.386719 L 223.417969 226.375 L 250.101562 226.292969 L 250.195312 215.539062 L 250.148438 199.554688 L 250.15625 199.230469 L 250.183594 198.90625 L 250.222656 198.582031 L 250.28125 198.265625 L 250.355469 197.945312 L 250.449219 197.636719 L 250.554688 197.328125 L 250.679688 197.027344 L 250.820312 196.734375 L 250.972656 196.445312 L 251.140625 196.167969 L 251.324219 195.898438 L 251.523438 195.640625 L 251.734375 195.390625 L 251.957031 195.15625 L 252.191406 194.929688 L 252.4375 194.71875 L 252.695312 194.519531 L 252.960938 194.332031 L 253.238281 194.164062 L 253.523438 194.007812 L 253.816406 193.863281 L 254.117188 193.738281 L 254.425781 193.628906 L 254.734375 193.535156 L 255.050781 193.457031 L 255.371094 193.398438 L 255.695312 193.351562 L 256.019531 193.324219 L 256.34375 193.316406 L 260.953125 193.292969 L 260.960938 193.292969 L 270.324219 193.257812 L 270.355469 193.257812 L 294.414062 193.28125 L 294.472656 193.28125 L 297.855469 193.316406 L 298.125 193.324219 L 300.636719 193.457031 L 300.730469 193.464844 L 302.351562 193.574219 L 303.523438 193.640625 L 306.027344 193.65625 L 307.179688 193.667969 L 309.671875 193.632812 L 309.929688 193.632812 L 311.1875 193.667969 L 311.53125 193.6875 L 311.878906 193.726562 L 312.222656 193.785156 L 312.558594 193.863281 L 313.238281 194.035156 L 313.535156 194.121094 L 313.828125 194.21875 L 318.847656 196.054688 L 318.917969 196.082031 L 322.804688 197.554688 L 323.121094 197.683594 L 324.097656 198.117188 L 324.4375 198.28125 L 328.035156 200.144531 L 328.105469 200.179688 L 330.453125 201.433594 L 338.734375 205.601562 L 339.039062 205.769531 L 339.335938 205.949219 L 339.761719 206.226562 L 340.09375 206.460938 L 340.464844 206.738281 L 340.65625 206.890625 L 340.847656 207.050781 L 341.472656 207.601562 L 341.660156 207.773438 L 341.84375 207.953125 L 342.207031 208.332031 L 342.796875 208.894531 L 343.367188 209.414062 L 343.699219 209.710938 L 343.917969 209.882812 L 344.179688 210.078125 L 344.195312 210.089844 L 344.65625 210.429688 L 344.839844 210.5625 L 345.695312 211.0625 L 346.832031 211.65625 L 348.296875 212.414062 L 350.882812 213.742188 L 353.460938 214.945312 L 353.75 215.089844 L 354.292969 215.378906 L 354.554688 215.523438 L 354.808594 215.683594 L 355.050781 215.855469 L 355.59375 216.253906 L 355.972656 216.550781 L 356.25 216.789062 L 356.496094 217.015625 L 356.726562 217.25 L 357.066406 217.609375 L 357.300781 217.875 L 357.585938 218.214844 L 357.742188 218.410156 L 357.894531 218.613281 L 358.199219 219.046875 L 358.304688 219.203125 L 358.519531 219.527344 L 358.554688 219.578125 L 358.773438 219.914062 L 358.824219 219.988281 L 358.902344 220.09375 L 358.9375 220.125 L 359.1875 220.339844 L 359.226562 220.375 L 359.347656 220.480469 L 360.039062 220.660156 L 360.179688 220.695312 L 361.035156 220.9375 L 361.53125 221.078125 L 361.695312 221.128906 L 362.085938 221.25 L 362.511719 221.398438 L 362.871094 221.539062 L 363.171875 221.667969 L 363.46875 221.8125 L 363.753906 221.972656 L 364.035156 222.144531 L 364.304688 222.335938 L 364.5625 222.535156 L 364.808594 222.753906 L 365.042969 222.980469 L 365.269531 223.222656 L 365.476562 223.472656 L 365.675781 223.738281 L 365.859375 224.011719 L 366.027344 224.292969 L 366.179688 224.582031 L 366.316406 224.882812 L 366.4375 225.1875 L 366.542969 225.496094 L 366.628906 225.8125 L 366.703125 226.132812 L 366.757812 226.457031 L 366.792969 226.785156 L 366.816406 227.113281 L 366.816406 227.441406 L 366.804688 227.769531 L 366.773438 228.097656 L 366.722656 228.421875 L 366.65625 228.742188 L 366.574219 229.058594 L 366.476562 229.375 L 366.359375 229.679688 L 366.226562 229.980469 L 366.078125 230.273438 L 343.496094 272.382812 L 343.398438 272.679688 L 343.285156 272.984375 L 343.15625 273.28125 L 343.011719 273.570312 L 339.019531 281.058594 L 338.859375 281.34375 L 338.683594 281.617188 L 338.492188 281.882812 L 338.289062 282.140625 L 338.074219 282.382812 L 337.84375 282.617188 L 337.601562 282.835938 L 337.351562 283.042969 L 337.089844 283.238281 L 336.816406 283.417969 L 336.535156 283.582031 L 336.242188 283.734375 L 335.945312 283.867188 L 335.640625 283.988281 L 335.332031 284.089844 L 335.019531 284.175781 L 334.699219 284.246094 L 334.375 284.296875 L 334.050781 284.335938 L 333.726562 284.355469 L 333.398438 284.355469 L 333.074219 284.339844 L 332.75 284.308594 L 332.425781 284.257812 L 332.105469 284.191406 L 331.789062 284.109375 L 331.480469 284.011719 L 331.175781 283.894531 L 330.875 283.761719 L 330.582031 283.617188 L 329.871094 283.234375 Z M 333.527344 278.132812 L 337.519531 270.644531 L 337.398438 270.578125 L 360.59375 227.332031 L 360.234375 227.191406 L 359.84375 227.070312 L 359.34375 226.929688 L 358.480469 226.683594 L 357.6875 226.480469 L 357.242188 226.355469 L 356.894531 226.253906 L 356.632812 226.113281 L 356.328125 225.972656 L 356.0625 225.808594 L 355.757812 225.605469 L 355.453125 225.339844 L 355.128906 225.058594 L 354.800781 224.773438 L 354.585938 224.578125 L 354.351562 224.347656 L 354.203125 224.171875 L 354.050781 223.992188 L 353.777344 223.636719 L 353.585938 223.355469 L 353.335938 222.96875 L 353.117188 222.640625 L 352.8125 222.210938 L 352.527344 221.871094 L 352.191406 221.507812 L 351.914062 221.269531 L 351.371094 220.875 L 350.828125 220.585938 L 348.140625 219.328125 L 345.449219 217.945312 L 343.957031 217.175781 L 342.683594 216.507812 L 341.449219 215.789062 L 340.988281 215.457031 L 340.488281 215.089844 L 340.140625 214.832031 L 339.695312 214.480469 L 339.199219 214.039062 L 338.554688 213.449219 L 337.816406 212.746094 L 337.355469 212.269531 L 336.730469 211.714844 L 336.359375 211.4375 L 335.9375 211.164062 L 327.585938 206.960938 L 325.171875 205.667969 L 321.578125 203.808594 L 320.597656 203.375 L 316.710938 201.898438 L 311.691406 200.0625 L 311.015625 199.890625 L 309.757812 199.855469 L 307.199219 199.890625 L 305.984375 199.882812 L 303.324219 199.863281 L 301.960938 199.785156 L 300.304688 199.671875 L 297.792969 199.539062 L 294.410156 199.503906 L 270.347656 199.484375 L 260.984375 199.515625 L 256.375 199.539062 L 256.417969 215.558594 L 256.269531 232.496094 L 223.4375 232.597656 L 223.425781 273.738281 L 231.085938 273.738281 L 234.175781 274.03125 L 249.785156 273.957031 L 287.214844 273.773438 L 288.941406 274.253906 L 289.214844 274.339844 L 290.375 274.699219 L 292.609375 274.925781 L 315.105469 274.875 L 317.710938 274.992188 L 319.667969 275.210938 L 322 275.433594 L 324.390625 275.65625 L 326.722656 275.945312 L 328.636719 276.105469 L 329.402344 276.230469 L 330.613281 276.582031 L 331.527344 276.988281 L 332.816406 277.75 Z M 333.527344 278.132812 "/>
<path fill-rule="evenodd" fill="rgb(0%, 100%, 0%)" fill-opacity="1" stroke-width="0.75" stroke-linecap="round" stroke-linejoin="round" stroke="rgb(0%, 0%, 0%)" stroke-opacity="1" stroke-miterlimit="10" d="M 167.925781 100.828125 L 168.027344 67.976562 L 168.039062 67.652344 L 168.0625 67.332031 L 168.105469 67.011719 L 168.167969 66.691406 L 168.242188 66.378906 L 168.335938 66.066406 L 168.445312 65.761719 L 168.566406 65.464844 L 168.707031 65.171875 L 168.863281 64.886719 L 169.03125 64.609375 L 169.214844 64.34375 L 169.410156 64.085938 L 169.621094 63.839844 L 169.84375 63.605469 L 170.078125 63.382812 L 170.324219 63.171875 L 170.578125 62.972656 L 170.84375 62.789062 L 171.121094 62.617188 L 171.402344 62.460938 L 171.695312 62.320312 L 171.996094 62.195312 L 172.300781 62.085938 L 172.609375 61.992188 L 172.921875 61.917969 L 173.242188 61.855469 L 173.5625 61.8125 L 173.882812 61.785156 L 174.207031 61.773438 L 190.3125 61.660156 L 201.738281 61.578125 L 202.191406 61.558594 L 202.480469 61.550781 L 203.015625 61.550781 L 203.503906 61.542969 L 203.632812 61.5 L 203.941406 61.417969 L 204.253906 61.351562 L 204.570312 61.300781 L 204.890625 61.265625 L 205.210938 61.246094 L 205.53125 61.246094 L 205.851562 61.257812 L 206.171875 61.289062 L 206.488281 61.335938 L 207.425781 61.503906 L 215.082031 61.5 L 231.519531 61.5 L 236.953125 61.496094 L 242.125 61.496094 L 245.9375 61.5 L 246.265625 61.5 L 249.996094 61.503906 L 289.390625 61.410156 L 289.71875 61.417969 L 290.042969 61.445312 L 290.367188 61.484375 L 290.6875 61.546875 L 291.007812 61.621094 L 291.320312 61.710938 L 291.625 61.820312 L 291.929688 61.945312 L 292.222656 62.085938 L 292.511719 62.242188 L 292.789062 62.410156 L 293.058594 62.59375 L 293.316406 62.792969 L 293.566406 63.003906 L 293.800781 63.230469 L 294.027344 63.464844 L 294.238281 63.714844 L 294.4375 63.972656 L 294.625 64.242188 L 294.792969 64.519531 L 294.949219 64.804688 L 295.089844 65.101562 L 295.214844 65.402344 L 295.324219 65.710938 L 295.417969 66.023438 L 295.496094 66.339844 L 295.554688 66.660156 L 295.597656 66.984375 L 295.621094 67.308594 L 295.628906 67.636719 L 295.628906 166.457031 L 295.621094 166.78125 L 295.597656 167.105469 L 295.554688 167.429688 L 295.496094 167.75 L 295.417969 168.066406 L 295.328125 168.378906 L 295.21875 168.683594 L 295.09375 168.984375 L 294.953125 169.28125 L 294.800781 169.566406 L 294.628906 169.84375 L 294.445312 170.109375 L 294.246094 170.371094 L 294.035156 170.617188 L 293.8125 170.855469 L 293.578125 171.078125 L 293.328125 171.289062 L 293.070312 171.488281 L 292.804688 171.671875 L 292.527344 171.84375 L 292.242188 172 L 291.945312 172.140625 L 291.644531 172.265625 L 291.339844 172.375 L 291.027344 172.464844 L 290.710938 172.542969 L 290.390625 172.601562 L 290.070312 172.644531 L 289.746094 172.671875 L 289.417969 172.679688 L 256.4375 172.746094 L 223.414062 172.816406 L 172.21875 172.917969 L 171.890625 172.910156 L 171.5625 172.886719 L 171.238281 172.84375 L 170.917969 172.785156 L 170.597656 172.707031 L 170.285156 172.617188 L 169.976562 172.507812 L 169.671875 172.382812 L 169.378906 172.242188 L 169.089844 172.082031 L 168.8125 171.914062 L 168.542969 171.726562 L 168.28125 171.527344 L 168.03125 171.3125 L 167.796875 171.089844 L 167.570312 170.851562 L 167.359375 170.601562 L 167.160156 170.339844 L 166.976562 170.070312 L 166.804688 169.789062 L 166.648438 169.503906 L 166.511719 169.207031 L 166.386719 168.902344 L 166.277344 168.59375 L 166.1875 168.28125 L 166.109375 167.960938 L 166.054688 167.636719 L 166.011719 167.3125 L 165.988281 166.988281 L 165.980469 166.660156 L 166.171875 133.730469 L 166.183594 133.40625 L 166.210938 133.085938 L 166.253906 132.761719 L 166.316406 132.445312 L 166.394531 132.128906 L 166.488281 131.816406 L 166.597656 131.511719 L 166.722656 131.210938 L 166.863281 130.921875 L 167.019531 130.636719 L 167.191406 130.359375 L 167.375 130.09375 L 167.574219 129.835938 L 167.785156 129.589844 L 167.835938 129.535156 Z M 289.40625 67.636719 L 250 67.726562 L 246.257812 67.722656 L 245.933594 67.722656 L 242.125 67.71875 L 236.953125 67.71875 L 231.519531 67.722656 L 223.3125 67.722656 L 216.882812 67.726562 L 206.882812 67.726562 L 205.40625 67.464844 L 204.902344 67.738281 L 204.40625 67.75 L 203.964844 67.757812 L 203.066406 67.777344 L 202.464844 67.773438 L 201.898438 67.800781 L 190.355469 67.882812 L 174.253906 67.996094 L 174.148438 100.847656 L 174.046875 133.769531 L 172.398438 133.769531 L 172.203125 166.695312 L 223.402344 166.589844 L 256.425781 166.523438 L 289.40625 166.457031 Z M 289.40625 67.636719 "/>
</svg>
