<?xml version="1.0" encoding="UTF-8"?>
<svg xmlns="http://www.w3.org/2000/svg" xmlns:xlink="http://www.w3.org/1999/xlink" width="504" height="360" viewBox="0 0 504 360">
<defs>
<clipPath id="clip-0">
<path clip-rule="nonzero" d="M 59.039062 59.039062 L 473.757812 59.039062 L 473.757812 286.558594 L 59.039062 286.558594 Z M 59.039062 59.039062 "/>
</clipPath>
</defs>
<rect x="-50.4" y="-36" width="604.8" height="432" fill="rgb(100%, 100%, 100%)" fill-opacity="1"/>
<g clip-path="url(#clip-0)">
<path fill-rule="nonzero" fill="rgb(100%, 100%, 100%)" fill-opacity="1" stroke-width="0.75" stroke-linecap="round" stroke-linejoin="round" stroke="rgb(100%, 100%, 100%)" stroke-opacity="1" stroke-miterlimit="10" d="M 59.039062 286.558594 L 473.757812 286.558594 L 473.757812 59.039062 L 59.039062 59.039062 Z M 59.039062 286.558594 "/>
</g>
<path fill="none" stroke-width="0.75" stroke-linecap="round" stroke-linejoin="round" stroke="rgb(0%, 0%, 0%)" stroke-opacity="1" stroke-miterlimit="10" d="M 372.25 275.066406 L 369.800781 273.980469 L 366.550781 273.042969 L 364.5 272.699219 L 359.371094 272.273438 L 353.132812 271.503906 L 346.722656 270.90625 L 340.484375 270.304688 L 335.242188 269.714844 L 328.261719 269.410156 L 268.003906 269.535156 L 262.019531 268.9375 L 258.910156 267.972656 L 258.175781 267.742188 L 253.558594 266.460938 L 153.300781 266.945312 L 111.492188 267.144531 L 103.210938 266.355469 L 82.695312 266.355469 L 82.726562 156.167969 L 170.667969 155.894531 L 171.0625 110.527344 L 170.945312 67.617188 L 183.296875 67.558594 L 208.378906 67.464844 L 272.828125 67.523438 L 281.882812 67.617188 L 288.621094 67.976562 L 293.054688 68.28125 L 296.703125 68.488281 L 303.832031 68.535156 L 307.082031 68.558594 L 313.933594 68.464844 L 317.300781 68.558594 L 319.113281 69.023438 L 332.558594 73.941406 L 342.976562 77.890625 L 345.59375 79.050781 L 355.222656 84.039062 L 361.6875 87.496094 L 384.054688 98.75 L 385.191406 99.492188 L 386.179688 100.234375 L 387.859375 101.714844 L 389.09375 103 L 391.066406 104.875 L 392.796875 106.453125 L 394.128906 107.640625 L 395.3125 108.578125 L 396.25 109.269531 L 397.585938 110.257812 L 398.820312 111.144531 L 402.128906 113.070312 L 405.542969 114.859375 L 409.535156 116.921875 L 416.746094 120.628906 L 423.941406 123.988281 L 425.398438 124.761719 L 426.851562 125.828125 L 427.59375 126.464844 L 428.496094 127.429688 L 429.261719 128.339844 L 430.078125 129.5 L 430.65625 130.371094 L 431.332031 131.410156 L 431.839844 132.160156 L 432.578125 133.121094 L 432.980469 133.601562 L 433.378906 134.070312 L 434.011719 134.6875 L 434.582031 135.210938 L 435.460938 135.96875 L 436.332031 136.730469 L 437.148438 137.4375 L 437.964844 137.980469 L 438.671875 138.417969 L 439.488281 138.796875 L 440.195312 139.179688 L 441.117188 139.449219 L 442.316406 139.777344 L 444.441406 140.324219 L 446.75 140.980469 L 448.089844 141.359375 L 449.140625 141.683594 L 450.105469 142.0625 L 387.972656 257.898438 L 388.292969 258.074219 L 377.605469 278.132812 L 375.703125 277.113281 Z M 372.25 275.066406 "/>
</svg>
