<?xml version="1.0" encoding="UTF-8"?>
<svg xmlns="http://www.w3.org/2000/svg" xmlns:xlink="http://www.w3.org/1999/xlink" width="504pt" height="360pt" viewBox="0 0 504 360">
<defs>
<clipPath id="clip-0">
<path clip-rule="nonzero" d="M 59.039062 59.039062 L 473.757812 59.039062 L 473.757812 286.558594 L 59.039062 286.558594 Z M 59.039062 59.039062 "/>
</clipPath>
</defs>
<rect x="-50.4" y="-36" width="604.8" height="432" fill="rgb(100%, 100%, 100%)" fill-opacity="1"/>
<g clip-path="url(#clip-0)">
<path fill-rule="nonzero" fill="rgb(100%, 100%, 100%)" fill-opacity="1" stroke-width="0.75" stroke-linecap="round" stroke-linejoin="round" stroke="rgb(100%, 100%, 100%)" stroke-opacity="1" stroke-miterlimit="10" d="M 59.039062 286.558594 L 473.757812 286.558594 L 473.757812 59.039062 L 59.039062 59.039062 Z M 59.039062 286.558594 "/>
</g>
<path fill="none" stroke-width="0.75" stroke-linecap="round" stroke-linejoin="round" stroke="rgb(0%, 0%, 0%)" stroke-opacity="1" stroke-miterlimit="10" d="M 169.191406 171.472656 L 169.253906 170.753906 L 169.355469 170.183594 L 169.453125 169.761719 L 170.6875 165.015625 L 170.851562 164.277344 L 170.9375 163.667969 L 170.976562 163.054688 L 170.972656 157.761719 L 170.964844 151.980469 L 170.957031 146.269531 L 173.449219 146.261719 L 174.082031 146.359375 L 177.324219 146.351562 L 180.640625 146.34375 L 183.953125 146.332031 L 185.03125 146.332031 L 187.210938 146.324219 L 190.460938 146.320312 L 193.800781 146.308594 L 195.582031 146.304688 L 199.074219 146.304688 L 200.386719 146.308594 L 202.664062 146.308594 L 205.597656 146.304688 L 205.59375 152.910156 L 205.59375 162.800781 L 205.589844 172.789062 L 202.949219 172.761719 L 202.660156 172.757812 L 202.367188 172.753906 L 199.066406 172.714844 L 195.574219 172.679688 L 194.300781 172.671875 L 193.792969 172.722656 L 193.386719 172.796875 L 192.886719 172.929688 L 192.3125 173.140625 L 192.117188 173.230469 L 191.660156 173.472656 L 191.394531 173.597656 L 190.351562 174.089844 L 189.878906 174.257812 L 189.472656 174.363281 L 188.980469 174.441406 L 188.136719 174.5 L 187.628906 174.492188 L 187 174.4375 L 186.5 174.355469 L 180.414062 173.113281 L 179.722656 173.019531 L 179.027344 172.976562 L 172.96875 172.980469 L 170.726562 172.976562 L 170.3125 172.925781 L 169.1875 172.683594 Z M 169.191406 171.472656 "/>
<path fill="none" stroke-width="0.75" stroke-linecap="round" stroke-linejoin="round" stroke="rgb(0%, 0%, 0%)" stroke-opacity="1" stroke-miterlimit="10" d="M 246.4375 251.886719 L 250.214844 251.867188 L 251.375 251.859375 L 253.972656 251.851562 L 254.703125 251.851562 L 257.730469 251.839844 L 257.992188 251.835938 L 261.261719 251.828125 L 264.375 251.820312 L 267.53125 251.808594 L 267.847656 251.8125 L 271.21875 251.800781 L 274.136719 251.789062 L 273.847656 253.054688 L 273.835938 255.339844 L 273.785156 255.527344 L 273.699219 255.675781 L 273.589844 255.789062 L 273 256.269531 L 273.238281 256.789062 L 273.433594 257.332031 L 273.628906 258.027344 L 273.730469 258.550781 L 273.796875 259.078125 L 273.839844 259.5 L 273.832031 264.914062 L 270.671875 264.921875 L 267.515625 264.929688 L 264.355469 264.941406 L 261.199219 264.953125 L 257.976562 264.960938 L 254.6875 264.96875 L 251.371094 264.980469 L 248.292969 264.996094 L 246.4375 265 L 246.433594 261.722656 L 246.4375 258.429688 Z M 246.4375 251.886719 "/>
<path fill="none" stroke-width="0.75" stroke-linecap="round" stroke-linejoin="round" stroke="rgb(0%, 0%, 0%)" stroke-opacity="1" stroke-miterlimit="10" d="M 273 256.269531 L 273.589844 255.789062 L 273.699219 255.675781 L 273.785156 255.527344 L 273.835938 255.339844 L 273.847656 253.054688 L 274.136719 251.789062 L 277.007812 251.785156 L 277.726562 251.78125 L 280.167969 251.773438 L 281.019531 251.769531 L 283.324219 251.765625 L 284.308594 251.761719 L 286.484375 251.757812 L 286.476562 258.519531 L 286.46875 264.875 L 286.460938 271.4375 L 286.449219 277.6875 L 286.230469 278.113281 L 283.292969 278.117188 L 282.820312 278.121094 L 280.972656 278.121094 L 280.136719 278.125 L 277.785156 278.128906 L 276.980469 278.128906 L 273.820312 278.132812 L 273.828125 271.476562 L 273.832031 264.914062 L 273.839844 259.5 L 273.796875 259.078125 L 273.730469 258.550781 L 273.628906 258.027344 L 273.433594 257.332031 L 273.238281 256.789062 Z M 273 256.269531 "/>
<path fill="none" stroke-width="0.75" stroke-linecap="round" stroke-linejoin="round" stroke="rgb(0%, 0%, 0%)" stroke-opacity="1" stroke-miterlimit="10" d="M 286.449219 277.6875 L 286.460938 271.4375 L 286.46875 264.875 L 286.476562 258.519531 L 286.484375 251.757812 L 287.75 251.753906 L 289.644531 251.75 L 291.539062 251.742188 L 292.800781 251.738281 L 295.332031 251.734375 L 295.960938 251.730469 L 299.117188 251.722656 L 299.113281 258.9375 L 299.109375 264.839844 L 299.109375 265.335938 L 299.105469 271.398438 L 299.101562 278.089844 L 296.601562 278.09375 L 296.015625 278.097656 L 293.15625 278.101562 L 292.769531 278.101562 L 289.613281 278.109375 L 286.230469 278.113281 Z M 286.449219 277.6875 "/>
<path fill="none" stroke-width="0.75" stroke-linecap="round" stroke-linejoin="round" stroke="rgb(0%, 0%, 0%)" stroke-opacity="1" stroke-miterlimit="10" d="M 299.117188 250.074219 L 302.921875 250.058594 L 306.808594 250.046875 L 310.796875 250.03125 L 314.335938 250.015625 L 317.875 250.003906 L 321.417969 249.988281 L 321.421875 251.0625 L 321.496094 255.660156 L 321.519531 259.445312 L 321.300781 259.425781 L 317.929688 259.429688 L 310.84375 259.4375 L 306.804688 259.445312 L 302.914062 259.449219 L 301.847656 259.453125 L 301.277344 259.433594 L 300.621094 259.355469 L 299.980469 259.21875 L 299.726562 259.148438 L 299.113281 258.9375 L 299.117188 251.722656 Z M 299.117188 250.074219 "/>
<path fill="none" stroke-width="0.75" stroke-linecap="round" stroke-linejoin="round" stroke="rgb(0%, 0%, 0%)" stroke-opacity="1" stroke-miterlimit="10" d="M 299.113281 258.9375 L 299.726562 259.148438 L 299.980469 259.21875 L 300.621094 259.355469 L 301.277344 259.433594 L 301.847656 259.453125 L 302.914062 259.449219 L 306.804688 259.445312 L 310.84375 259.4375 L 317.929688 259.429688 L 321.300781 259.425781 L 321.519531 259.445312 L 321.53125 261.667969 L 321.535156 263.089844 L 321.550781 265.308594 L 321.566406 268.613281 L 321.578125 270.640625 L 321.582031 271.390625 L 321.664062 278.074219 L 318.027344 278.078125 L 314.484375 278.078125 L 312.78125 278.082031 L 310.945312 278.082031 L 308.308594 278.085938 L 301.835938 278.085938 L 299.101562 278.089844 L 299.105469 271.398438 L 299.109375 265.335938 L 299.109375 264.839844 Z M 299.113281 258.9375 "/>
<path fill="none" stroke-width="0.75" stroke-linecap="round" stroke-linejoin="round" stroke="rgb(0%, 0%, 0%)" stroke-opacity="1" stroke-miterlimit="10" d="M 321.46875 243.410156 L 321.515625 240.121094 L 321.597656 236.503906 L 321.578125 232.679688 L 322.617188 233.25 L 324.257812 234.144531 L 324.527344 234.289062 L 326.972656 235.625 L 327.8125 236.085938 L 329.613281 237.070312 L 331.097656 237.878906 L 332.675781 238.738281 L 334.628906 239.808594 L 337.386719 241.316406 L 340.519531 243.023438 L 337.460938 248.742188 L 334.996094 253.351562 L 334.550781 254.179688 L 333.0625 253.367188 L 332.800781 253.222656 L 331.378906 252.445312 L 328.277344 250.75 L 325.128906 249.03125 L 321.847656 247.238281 L 321.417969 247.003906 Z M 321.46875 243.410156 "/>
<path fill="none" stroke-width="0.75" stroke-linecap="round" stroke-linejoin="round" stroke="rgb(0%, 0%, 0%)" stroke-opacity="1" stroke-miterlimit="10" d="M 233.261719 146.371094 L 236.242188 146.378906 L 236.546875 146.378906 L 239.828125 146.382812 L 240.359375 146.386719 L 243.113281 146.390625 L 243.3125 146.390625 L 243.898438 146.394531 L 246.503906 146.398438 L 246.507812 149.070312 L 246.507812 156.148438 L 246.453125 158.007812 L 246.40625 159.578125 L 246.40625 161.652344 L 246.410156 165.316406 L 246.410156 169.007812 L 246.414062 172.75 L 243.023438 172.753906 L 236.34375 172.761719 L 233.277344 172.765625 L 233.269531 169.023438 L 233.269531 161.28125 L 233.265625 157.996094 L 233.261719 153.058594 Z M 233.261719 146.371094 "/>
<path fill="none" stroke-width="0.75" stroke-linecap="round" stroke-linejoin="round" stroke="rgb(0%, 0%, 0%)" stroke-opacity="1" stroke-miterlimit="10" d="M 299.144531 172.605469 L 302.734375 172.617188 L 305.941406 172.625 L 306.792969 172.625 L 310.382812 172.632812 L 313.867188 172.644531 L 313.871094 174.5625 L 313.890625 178.207031 L 313.898438 179.28125 L 313.921875 182.933594 L 313.972656 192.652344 L 313.878906 194.035156 L 313.804688 195.191406 L 313.820312 199.082031 L 313.820312 199.3125 L 311.710938 199.328125 L 310.539062 199.332031 L 306.070312 199.019531 L 305.65625 198.996094 L 299.136719 199.015625 L 299.136719 185.65625 L 299.140625 179.292969 Z M 299.144531 172.605469 "/>
<path fill="none" stroke-width="0.75" stroke-linecap="round" stroke-linejoin="round" stroke="rgb(0%, 0%, 0%)" stroke-opacity="1" stroke-miterlimit="10" d="M 326.972656 235.625 L 329.984375 230.113281 L 332.992188 224.625 L 333.363281 224.375 L 334.242188 222.734375 L 337.148438 217.292969 L 338.015625 215.667969 L 338.648438 214.480469 L 340.214844 211.546875 L 340.480469 211.785156 L 343.933594 213.632812 L 344.683594 214.03125 L 346.144531 214.773438 L 348.996094 216.230469 L 349.371094 216.484375 L 349.714844 216.785156 L 349.976562 217.078125 L 350.316406 217.546875 L 349 220.011719 L 348.070312 221.742188 L 343.957031 222.039062 L 340.4375 228.640625 L 338.714844 227.710938 L 335.691406 233.230469 L 332.675781 238.738281 L 331.097656 237.878906 L 329.613281 237.070312 L 327.8125 236.085938 Z M 326.972656 235.625 "/>
<path fill="none" stroke-width="0.75" stroke-linecap="round" stroke-linejoin="round" stroke="rgb(0%, 0%, 0%)" stroke-opacity="1" stroke-miterlimit="10" d="M 291.605469 199.03125 L 295.296875 199.023438 L 299.136719 199.015625 L 299.136719 212.1875 L 295.296875 212.195312 L 291.609375 212.203125 L 291.609375 205.117188 Z M 291.605469 199.03125 "/>
<path fill="none" stroke-width="0.75" stroke-linecap="round" stroke-linejoin="round" stroke="rgb(0%, 0%, 0%)" stroke-opacity="1" stroke-miterlimit="10" d="M 284.0625 199.042969 L 287.808594 199.035156 L 291.605469 199.03125 L 291.609375 205.117188 L 291.609375 212.203125 L 287.804688 212.207031 L 284.058594 212.207031 L 284.058594 205.625 Z M 284.0625 199.042969 "/>
<path fill="none" stroke-width="0.75" stroke-linecap="round" stroke-linejoin="round" stroke="rgb(0%, 0%, 0%)" stroke-opacity="1" stroke-miterlimit="10" d="M 253.96875 240.171875 L 257.734375 240.152344 L 261.265625 240.164062 L 261.265625 246.71875 L 261.261719 251.828125 L 257.992188 251.835938 L 257.730469 251.839844 L 254.703125 251.851562 L 253.972656 251.851562 L 253.972656 246.746094 Z M 253.96875 240.171875 "/>
<path fill="none" stroke-width="0.75" stroke-linecap="round" stroke-linejoin="round" stroke="rgb(0%, 0%, 0%)" stroke-opacity="1" stroke-miterlimit="10" d="M 321.199219 180.96875 L 322.210938 179.078125 L 322.957031 177.679688 L 323.359375 177.332031 L 324.503906 175.183594 L 324.964844 174.328125 L 325 173.835938 L 325.230469 173.421875 L 326.28125 174.019531 L 328.117188 175.058594 L 330.894531 176.527344 L 333.667969 177.996094 L 336.417969 179.445312 L 339.148438 180.890625 L 341.886719 182.339844 L 341.234375 183.5625 L 341.066406 183.878906 L 340.261719 185.371094 L 338.847656 188.007812 L 337.429688 190.644531 L 335.988281 193.328125 L 334.125 192.355469 L 333.617188 192.871094 L 330.859375 198.058594 L 327.746094 203.894531 L 324.566406 202.214844 L 324.308594 202.121094 L 321.257812 200.980469 L 321.269531 194.007812 L 321.265625 193.144531 L 321.222656 185.542969 Z M 321.199219 180.96875 "/>
<path fill="none" stroke-width="0.75" stroke-linecap="round" stroke-linejoin="round" stroke="rgb(0%, 0%, 0%)" stroke-opacity="1" stroke-miterlimit="10" d="M 327.746094 203.894531 L 330.859375 198.058594 L 333.617188 192.871094 L 334.125 192.355469 L 335.988281 193.328125 L 337.429688 190.644531 L 338.847656 188.007812 L 340.261719 185.371094 L 341.066406 183.878906 L 341.234375 183.5625 L 341.886719 182.339844 L 344.617188 183.78125 L 347.355469 185.226562 L 348.582031 185.878906 L 349.9375 186.578125 L 352.875 187.75 L 349.679688 193.707031 L 348.570312 195.773438 L 346.890625 199.042969 L 344.894531 202.78125 L 344.691406 203.167969 L 340.214844 211.546875 L 337.707031 209.289062 L 337.050781 208.714844 L 336.640625 208.421875 L 336.210938 208.171875 L 335.320312 207.691406 L 332.449219 206.355469 L 329.90625 205.027344 L 329.640625 204.886719 L 328.097656 204.078125 Z M 327.746094 203.894531 "/>
<path fill="none" stroke-width="0.75" stroke-linecap="round" stroke-linejoin="round" stroke="rgb(0%, 0%, 0%)" stroke-opacity="1" stroke-miterlimit="10" d="M 321.417969 247.003906 L 321.847656 247.238281 L 325.128906 249.03125 L 328.277344 250.75 L 331.378906 252.445312 L 332.800781 253.222656 L 333.0625 253.367188 L 334.550781 254.179688 L 334.789062 254.300781 L 336.144531 255.046875 L 336.246094 255.101562 L 336.285156 255.121094 L 336.335938 255.152344 L 336.4375 255.207031 L 336.71875 255.363281 L 337.878906 255.996094 L 334.652344 262.015625 L 331.855469 267.242188 L 328.433594 265.433594 L 325.285156 263.71875 L 322.132812 262 L 321.53125 261.667969 L 321.519531 259.445312 L 321.496094 255.660156 L 321.421875 251.0625 L 321.417969 249.988281 Z M 321.417969 247.003906 "/>
<path fill="none" stroke-width="0.75" stroke-linecap="round" stroke-linejoin="round" stroke="rgb(0%, 0%, 0%)" stroke-opacity="1" stroke-miterlimit="10" d="M 223.839844 80.371094 L 224.15625 80.375 L 224.519531 80.371094 L 225.667969 80.363281 L 226.332031 80.363281 L 226.628906 80.359375 L 229.871094 80.34375 L 233.164062 80.328125 L 237.324219 80.308594 L 239.707031 80.296875 L 241.992188 80.289062 L 246.359375 80.269531 L 252.5625 80.265625 L 252.894531 80.261719 L 252.902344 84.667969 L 252.914062 92.945312 L 252.949219 93.441406 L 246.382812 93.441406 L 241.1875 93.464844 L 239.730469 93.472656 L 233.179688 93.5 L 231.925781 93.503906 L 231.261719 93.507812 L 230.878906 93.507812 L 230.527344 93.511719 L 230.210938 93.511719 L 229.957031 93.003906 L 227.125 87.113281 L 224.339844 81.328125 L 224.226562 81.097656 L 223.941406 80.5625 Z M 223.839844 80.371094 "/>
<path fill="none" stroke-width="0.75" stroke-linecap="round" stroke-linejoin="round" stroke="rgb(0%, 0%, 0%)" stroke-opacity="1" stroke-miterlimit="10" d="M 252.894531 80.261719 L 257.285156 80.257812 L 259.171875 80.257812 L 261.121094 80.253906 L 263.753906 80.257812 L 264.457031 80.253906 L 267.746094 80.257812 L 268.257812 80.257812 L 272.691406 80.261719 L 272.710938 88.949219 L 272.71875 93.445312 L 264.78125 93.445312 L 261.171875 93.441406 L 257.300781 93.445312 L 252.949219 93.441406 L 252.914062 92.945312 L 252.902344 84.667969 Z M 252.894531 80.261719 "/>
<path fill="none" stroke-width="0.75" stroke-linecap="round" stroke-linejoin="round" stroke="rgb(0%, 0%, 0%)" stroke-opacity="1" stroke-miterlimit="10" d="M 206.976562 93.613281 L 209.316406 93.605469 L 210.09375 93.597656 L 210.316406 93.597656 L 212.265625 93.589844 L 213.5625 93.585938 L 214.773438 93.582031 L 216.753906 93.574219 L 220.0625 93.558594 L 226.644531 93.527344 L 226.667969 101.660156 L 226.679688 105.65625 L 226.683594 107.300781 L 226.691406 109.132812 L 226.699219 112.71875 L 226.710938 116.3125 L 226.699219 120.027344 L 220.09375 120.023438 L 216.75 120.015625 L 213.554688 120.011719 L 210.265625 120.003906 L 206.949219 120.003906 L 206.976562 113.417969 Z M 206.976562 93.613281 "/>
<path fill="none" stroke-width="0.75" stroke-linecap="round" stroke-linejoin="round" stroke="rgb(0%, 0%, 0%)" stroke-opacity="1" stroke-miterlimit="10" d="M 193.738281 67.464844 L 193.875 67.492188 L 194.40625 67.542969 L 194.84375 67.542969 L 195.160156 67.765625 L 195.621094 68.085938 L 195.898438 68.265625 L 196.714844 68.738281 L 197.667969 69.226562 L 198.113281 69.425781 L 198.726562 69.691406 L 199.011719 69.800781 L 199.320312 69.917969 L 200.226562 70.21875 L 201.148438 70.472656 L 201.574219 70.566406 L 202.082031 70.675781 L 203.023438 70.832031 L 203.667969 70.902344 L 203.976562 70.9375 L 204.957031 70.992188 L 206.652344 71.046875 L 209.261719 71.128906 L 210.183594 71.203125 L 211.097656 71.320312 L 211.777344 71.445312 L 212.605469 71.632812 L 213.5 71.878906 L 214.25 72.125 L 215.109375 72.460938 L 215.964844 72.84375 L 216.777344 73.257812 L 217.578125 73.722656 L 218.351562 74.226562 L 219.109375 74.78125 L 219.757812 75.3125 L 220.042969 75.5625 L 220.414062 75.894531 L 221.070312 76.546875 L 221.417969 76.929688 L 221.691406 77.230469 L 222.277344 77.945312 L 222.824219 78.6875 L 223.328125 79.464844 L 223.574219 79.875 L 223.839844 80.371094 L 223.941406 80.5625 L 224.226562 81.097656 L 224.339844 81.328125 L 227.125 87.113281 L 229.957031 93.003906 L 230.210938 93.511719 L 230.082031 93.511719 L 229.714844 93.515625 L 226.644531 93.527344 L 220.0625 93.558594 L 216.753906 93.574219 L 214.773438 93.582031 L 213.5625 93.585938 L 212.265625 93.589844 L 210.316406 93.597656 L 210.09375 93.597656 L 209.316406 93.605469 L 206.976562 93.613281 L 202.671875 93.632812 L 198.355469 93.652344 L 193.808594 93.667969 L 193.789062 87.144531 L 193.785156 84.960938 L 193.78125 83.347656 L 193.773438 80.503906 L 193.75 72.777344 L 193.746094 70.851562 L 193.742188 69.84375 L 193.738281 68.140625 Z M 193.738281 67.464844 "/>
<path fill="none" stroke-width="0.75" stroke-linecap="round" stroke-linejoin="round" stroke="rgb(0%, 0%, 0%)" stroke-opacity="1" stroke-miterlimit="10" d="M 246.382812 93.441406 L 252.949219 93.441406 L 257.300781 93.445312 L 261.171875 93.441406 L 264.78125 93.445312 L 272.71875 93.445312 L 272.726562 98.722656 L 272.734375 103.976562 L 271.992188 104.007812 L 270.5 104.070312 L 268.90625 104.132812 L 266.730469 104.222656 L 264.777344 104.300781 L 263.34375 104.359375 L 261.167969 104.449219 L 260.222656 104.488281 L 257.328125 104.640625 L 253.644531 104.796875 L 253.132812 104.816406 L 246.429688 105.097656 L 246.417969 102.714844 L 246.417969 101.863281 L 246.402344 97.972656 Z M 246.382812 93.441406 "/>
<path fill="none" stroke-width="0.75" stroke-linecap="round" stroke-linejoin="round" stroke="rgb(0%, 0%, 0%)" stroke-opacity="1" stroke-miterlimit="10" d="M 246.429688 105.097656 L 253.132812 104.816406 L 253.644531 104.796875 L 257.328125 104.640625 L 260.222656 104.488281 L 261.167969 104.449219 L 263.34375 104.359375 L 264.777344 104.300781 L 266.730469 104.222656 L 268.90625 104.132812 L 270.5 104.070312 L 271.992188 104.007812 L 272.734375 103.976562 L 272.738281 119.941406 L 270.53125 119.949219 L 268.53125 119.957031 L 266.761719 119.960938 L 264.328125 119.972656 L 260.289062 119.992188 L 258.988281 119.996094 L 258.214844 120.003906 L 256.207031 120.011719 L 256.101562 120.011719 L 254.992188 120.015625 L 254.328125 120.015625 L 253.226562 120.019531 L 250.660156 120.03125 L 248.484375 120.042969 L 246.488281 120.050781 L 246.472656 116.332031 L 246.472656 115.863281 L 246.460938 112.746094 L 246.457031 112.273438 L 246.453125 110.820312 L 246.449219 110.285156 L 246.449219 109.757812 L 246.445312 108.996094 L 246.445312 108.46875 L 246.4375 107.039062 Z M 246.429688 105.097656 "/>
<path fill="none" stroke-width="0.75" stroke-linecap="round" stroke-linejoin="round" stroke="rgb(0%, 0%, 0%)" stroke-opacity="1" stroke-miterlimit="10" d="M 272.691406 80.261719 L 276 80.261719 L 279.308594 80.257812 L 282.617188 80.257812 L 285.921875 80.261719 L 290.890625 80.257812 L 294.519531 80.257812 L 295.09375 80.269531 L 299.152344 80.253906 L 299.15625 82.257812 L 299.152344 90.027344 L 299.152344 93.417969 L 299.148438 97.601562 L 299.148438 102.871094 L 295.757812 103.011719 L 294.761719 103.050781 L 292.566406 103.148438 L 290.359375 103.238281 L 289.273438 103.285156 L 285.96875 103.421875 L 284.332031 103.488281 L 282.667969 103.5625 L 282.132812 103.585938 L 279.324219 103.699219 L 279.0625 103.710938 L 275.972656 103.84375 L 272.734375 103.976562 L 272.726562 98.722656 L 272.71875 93.445312 L 272.710938 88.949219 Z M 272.691406 80.261719 "/>
<path fill="none" stroke-width="0.75" stroke-linecap="round" stroke-linejoin="round" stroke="rgb(0%, 0%, 0%)" stroke-opacity="1" stroke-miterlimit="10" d="M 299.144531 135.085938 L 306.613281 135.144531 L 313.808594 135.199219 L 320.964844 135.253906 L 320.972656 137.265625 L 320.984375 138.941406 L 321 142.636719 L 321.003906 142.835938 L 321.015625 145.804688 L 321.019531 146.328125 L 317.46875 146.316406 L 313.878906 146.308594 L 310.296875 146.296875 L 306.699219 146.285156 L 302.75 146.277344 L 299.144531 146.269531 Z M 299.144531 135.085938 "/>
<path fill="none" stroke-width="0.75" stroke-linecap="round" stroke-linejoin="round" stroke="rgb(0%, 0%, 0%)" stroke-opacity="1" stroke-miterlimit="10" d="M 272.738281 119.941406 L 275.984375 119.929688 L 276.628906 119.921875 L 279.082031 119.917969 L 280.628906 119.90625 L 282.15625 119.902344 L 283.167969 119.894531 L 286.082031 119.886719 L 289.371094 119.871094 L 292.667969 119.859375 L 295.953125 119.847656 L 299.144531 119.828125 L 299.144531 125.015625 L 299.148438 127.609375 L 299.144531 131.34375 L 299.144531 146.269531 L 295.851562 146.234375 L 295.585938 146.234375 L 292.328125 146.246094 L 292.03125 146.246094 L 289.375 146.253906 L 288.261719 146.257812 L 286.082031 146.265625 L 284.226562 146.273438 L 283.164062 146.277344 L 280.628906 146.285156 L 279.585938 146.289062 L 278.722656 146.292969 L 277.640625 146.296875 L 273.515625 142.855469 L 272.765625 142.226562 L 272.761719 141.839844 L 272.761719 141.449219 L 272.757812 138.996094 L 272.753906 136.449219 L 272.746094 128.238281 Z M 272.738281 119.941406 "/>
<path fill="none" stroke-width="0.75" stroke-linecap="round" stroke-linejoin="round" stroke="rgb(0%, 0%, 0%)" stroke-opacity="1" stroke-miterlimit="10" d="M 246.488281 120.050781 L 248.484375 120.042969 L 250.660156 120.03125 L 253.226562 120.019531 L 254.328125 120.015625 L 258.097656 127.363281 L 258.195312 127.554688 L 258.957031 128.902344 L 259.304688 129.449219 L 259.609375 129.878906 L 259.679688 129.976562 L 260.152344 130.640625 L 260.796875 131.476562 L 261.15625 131.914062 L 261.464844 132.289062 L 261.714844 132.566406 L 262.167969 133.078125 L 262.894531 133.84375 L 263.664062 134.589844 L 264.257812 135.085938 L 266.351562 136.847656 L 272.765625 142.226562 L 272.765625 146.3125 L 269.257812 146.324219 L 268.976562 146.324219 L 265.742188 146.335938 L 263.707031 146.339844 L 262.230469 146.347656 L 260.21875 146.351562 L 258.726562 146.359375 L 256.722656 146.363281 L 253.234375 146.375 L 250.6875 146.386719 L 249.992188 146.386719 L 246.503906 146.398438 L 246.503906 145.316406 L 246.5 142.855469 L 246.5 138.972656 L 246.496094 137.328125 L 246.496094 134.910156 L 246.492188 131.613281 L 246.492188 124.488281 Z M 246.488281 120.050781 "/>
<path fill="none" stroke-width="0.75" stroke-linecap="round" stroke-linejoin="round" stroke="rgb(0%, 0%, 0%)" stroke-opacity="1" stroke-miterlimit="10" d="M 254.992188 120.015625 L 256.101562 120.011719 L 256.207031 120.011719 L 258.214844 120.003906 L 258.988281 119.996094 L 260.289062 119.992188 L 264.328125 119.972656 L 266.761719 119.960938 L 268.53125 119.957031 L 270.53125 119.949219 L 272.738281 119.941406 L 272.746094 128.238281 L 272.753906 136.449219 L 272.757812 138.996094 L 272.761719 141.449219 L 272.761719 141.839844 L 272.765625 142.226562 L 266.351562 136.847656 L 264.257812 135.085938 L 263.664062 134.589844 L 262.894531 133.84375 L 262.167969 133.078125 L 261.714844 132.566406 L 261.464844 132.289062 L 261.15625 131.914062 L 260.796875 131.476562 L 260.152344 130.640625 L 259.679688 129.976562 L 259.609375 129.878906 L 259.304688 129.449219 L 258.957031 128.902344 L 258.195312 127.554688 L 258.097656 127.363281 L 254.328125 120.015625 Z M 254.992188 120.015625 "/>
<path fill="none" stroke-width="0.75" stroke-linecap="round" stroke-linejoin="round" stroke="rgb(0%, 0%, 0%)" stroke-opacity="1" stroke-miterlimit="10" d="M 206.949219 120.003906 L 210.265625 120.003906 L 213.554688 120.011719 L 216.75 120.015625 L 220.09375 120.023438 L 226.699219 120.027344 L 226.691406 133.191406 L 229.976562 133.203125 L 233.261719 133.21875 L 233.261719 134.859375 L 246.496094 134.910156 L 246.496094 137.328125 L 246.5 138.972656 L 246.5 142.855469 L 246.503906 145.316406 L 246.503906 146.398438 L 243.898438 146.394531 L 243.3125 146.390625 L 243.113281 146.390625 L 240.359375 146.386719 L 239.828125 146.382812 L 236.546875 146.378906 L 236.242188 146.378906 L 233.261719 146.371094 L 232.5 146.371094 L 229.957031 146.363281 L 226.675781 146.355469 L 220.898438 146.34375 L 220.121094 146.339844 L 217.535156 146.335938 L 215.113281 146.328125 L 213.917969 146.324219 L 211.625 146.316406 L 208.617188 146.308594 L 206.945312 146.304688 L 206.945312 136.445312 L 206.949219 133.160156 Z M 206.949219 120.003906 "/>
<path fill="none" stroke-width="0.75" stroke-linecap="round" stroke-linejoin="round" stroke="rgb(0%, 0%, 0%)" stroke-opacity="1" stroke-miterlimit="10" d="M 174.0625 133.117188 L 177.332031 133.125 L 180.644531 133.132812 L 183.960938 133.140625 L 187.226562 133.148438 L 190.464844 133.152344 L 193.808594 133.160156 L 206.949219 133.160156 L 206.945312 136.445312 L 206.945312 146.304688 L 205.597656 146.304688 L 202.664062 146.308594 L 200.386719 146.308594 L 199.074219 146.304688 L 195.582031 146.304688 L 193.800781 146.308594 L 190.460938 146.320312 L 187.210938 146.324219 L 185.03125 146.332031 L 183.953125 146.332031 L 180.640625 146.34375 L 177.324219 146.351562 L 174.082031 146.359375 L 174.070312 139.699219 Z M 174.0625 133.117188 "/>
<path fill="none" stroke-width="0.75" stroke-linecap="round" stroke-linejoin="round" stroke="rgb(0%, 0%, 0%)" stroke-opacity="1" stroke-miterlimit="10" d="M 299.148438 110.5 L 306.519531 110.480469 L 308.441406 110.476562 L 311.074219 110.46875 L 314.742188 110.484375 L 317.839844 110.496094 L 320.828125 110.507812 L 322.054688 110.53125 L 324.03125 108.25 L 326.152344 106.265625 L 329.0625 109.394531 L 331.25 111.746094 L 332.820312 113.433594 L 333.46875 114.164062 L 332.890625 113.941406 L 332.539062 113.851562 L 332.125 113.792969 L 331.644531 113.789062 L 331.230469 113.839844 L 330.824219 113.941406 L 330.484375 114.066406 L 330.113281 114.257812 L 329.816406 114.453125 L 328.074219 115.804688 L 325.351562 118.109375 L 324.960938 118.417969 L 324.527344 118.714844 L 324.066406 118.988281 L 323.984375 119.03125 L 323.515625 119.257812 L 323.015625 119.460938 L 322.382812 119.652344 L 321.734375 119.796875 L 321.074219 119.882812 L 320.882812 119.894531 L 320.40625 119.910156 L 317.890625 119.898438 L 314.28125 119.886719 L 311.128906 119.871094 L 308.457031 119.863281 L 306.53125 119.859375 L 299.144531 119.828125 L 299.144531 114.199219 Z M 299.148438 110.5 "/>
<path fill="none" stroke-width="0.75" stroke-linecap="round" stroke-linejoin="round" stroke="rgb(0%, 0%, 0%)" stroke-opacity="1" stroke-miterlimit="10" d="M 299.15625 82.257812 L 304.441406 86.453125 L 306.949219 88.445312 L 307.644531 88.996094 L 312.335938 92.71875 L 313.214844 93.417969 L 315.898438 95.546875 L 316.332031 95.90625 L 317.078125 96.5625 L 317.785156 97.257812 L 319.007812 98.574219 L 322.164062 101.976562 L 326.152344 106.265625 L 324.03125 108.25 L 322.054688 110.53125 L 320.828125 110.507812 L 317.839844 110.496094 L 314.742188 110.484375 L 311.074219 110.46875 L 308.441406 110.476562 L 306.519531 110.480469 L 299.148438 110.5 L 299.148438 97.601562 L 299.152344 93.417969 L 299.152344 90.027344 Z M 299.15625 82.257812 "/>
<path fill="none" stroke-width="0.75" stroke-linecap="round" stroke-linejoin="round" stroke="rgb(0%, 0%, 0%)" stroke-opacity="1" stroke-miterlimit="10" d="M 340.214844 211.546875 L 344.691406 203.167969 L 344.894531 202.78125 L 346.890625 199.042969 L 349.511719 200.417969 L 350.652344 201.015625 L 352.726562 202.101562 L 353.886719 202.710938 L 356.125 203.882812 L 357.894531 204.808594 L 360.523438 206.1875 L 363.613281 207.804688 L 360.015625 214.546875 L 358.226562 217.898438 L 356.433594 221.261719 L 355.679688 221.082031 L 354.246094 220.738281 L 353.726562 220.566406 L 353.222656 220.351562 L 352.941406 220.210938 L 352.511719 219.953125 L 352.066406 219.636719 L 351.574219 219.203125 L 351.199219 218.808594 L 350.859375 218.378906 L 350.316406 217.546875 L 349.976562 217.078125 L 349.714844 216.785156 L 349.371094 216.484375 L 348.996094 216.230469 L 346.144531 214.773438 L 344.683594 214.03125 L 343.933594 213.632812 L 340.480469 211.785156 Z M 340.214844 211.546875 "/>
<path fill="none" stroke-width="0.75" stroke-linecap="round" stroke-linejoin="round" stroke="rgb(0%, 0%, 0%)" stroke-opacity="1" stroke-miterlimit="10" d="M 332.675781 238.738281 L 335.691406 233.230469 L 338.714844 227.710938 L 340.4375 228.640625 L 343.957031 222.039062 L 348.070312 221.742188 L 349 220.011719 L 350.316406 217.546875 L 350.859375 218.378906 L 351.199219 218.808594 L 351.574219 219.203125 L 352.066406 219.636719 L 352.511719 219.953125 L 352.941406 220.210938 L 353.222656 220.351562 L 353.726562 220.566406 L 354.246094 220.738281 L 355.679688 221.082031 L 356.433594 221.261719 L 353.160156 227.382812 L 349.792969 233.683594 L 346.679688 239.515625 L 343.839844 244.839844 L 340.519531 243.023438 L 337.386719 241.316406 L 334.628906 239.808594 Z M 332.675781 238.738281 "/>
<path fill="none" stroke-width="0.75" stroke-linecap="round" stroke-linejoin="round" stroke="rgb(0%, 0%, 0%)" stroke-opacity="1" stroke-miterlimit="10" d="M 246.441406 225.5625 L 250.210938 225.550781 L 257.734375 225.519531 L 261.273438 225.503906 L 261.269531 227.007812 L 261.269531 232.835938 L 261.265625 240.164062 L 257.734375 240.152344 L 253.96875 240.171875 L 253.972656 246.746094 L 253.972656 251.851562 L 251.375 251.859375 L 250.214844 251.867188 L 246.4375 251.886719 L 246.4375 227.097656 Z M 246.441406 225.5625 "/>
<path fill="none" stroke-width="0.75" stroke-linecap="round" stroke-linejoin="round" stroke="rgb(0%, 0%, 0%)" stroke-opacity="1" stroke-miterlimit="10" d="M 313.875 172.125 L 314.613281 171.6875 L 314.8125 171.582031 L 315.132812 171.445312 L 315.472656 171.34375 L 315.808594 171.28125 L 316.09375 171.253906 L 317.554688 171.253906 L 321.148438 171.265625 L 322.585938 172.015625 L 324.320312 172.9375 L 325.230469 173.421875 L 325 173.835938 L 324.964844 174.328125 L 324.503906 175.183594 L 323.359375 177.332031 L 322.957031 177.679688 L 322.210938 179.078125 L 321.199219 180.96875 L 321.222656 185.542969 L 321.265625 193.144531 L 321.269531 194.007812 L 321.257812 200.980469 L 317.117188 199.429688 L 316.792969 199.304688 L 313.820312 199.3125 L 313.820312 199.082031 L 313.804688 195.191406 L 313.878906 194.035156 L 313.972656 192.652344 L 313.921875 182.933594 L 313.898438 179.28125 L 313.890625 178.207031 L 313.871094 174.5625 L 313.867188 172.644531 Z M 313.875 172.125 "/>
<path fill="none" stroke-width="0.75" stroke-linecap="round" stroke-linejoin="round" stroke="rgb(0%, 0%, 0%)" stroke-opacity="1" stroke-miterlimit="10" d="M 334.550781 254.179688 L 334.996094 253.351562 L 337.460938 248.742188 L 340.519531 243.023438 L 343.839844 244.839844 L 347.410156 246.792969 L 350.695312 248.585938 L 347.574219 254.269531 L 344.605469 259.675781 L 343.019531 258.808594 L 341.324219 257.878906 L 337.878906 255.996094 L 336.71875 255.363281 L 336.4375 255.207031 L 336.335938 255.152344 L 336.285156 255.121094 L 336.246094 255.101562 L 336.144531 255.046875 L 334.789062 254.300781 Z M 334.550781 254.179688 "/>
<path fill="none" stroke-width="0.75" stroke-linecap="round" stroke-linejoin="round" stroke="rgb(0%, 0%, 0%)" stroke-opacity="1" stroke-miterlimit="10" d="M 274.429688 250.519531 L 274.433594 246.671875 L 274.4375 240.109375 L 277.730469 240.097656 L 281.023438 240.082031 L 284.316406 240.070312 L 284.3125 246.636719 L 284.308594 251.761719 L 283.324219 251.765625 L 281.019531 251.769531 L 280.167969 251.773438 L 277.726562 251.78125 L 277.007812 251.785156 L 274.136719 251.789062 Z M 274.429688 250.519531 "/>
<path fill="none" stroke-width="0.75" stroke-linecap="round" stroke-linejoin="round" stroke="rgb(0%, 0%, 0%)" stroke-opacity="1" stroke-miterlimit="10" d="M 284.058594 212.207031 L 287.804688 212.207031 L 291.609375 212.203125 L 295.296875 212.195312 L 299.136719 212.1875 L 299.132812 218.496094 L 299.132812 225.355469 L 295.296875 225.371094 L 291.609375 225.382812 L 287.765625 225.398438 L 284.046875 225.414062 L 284.050781 224.035156 L 284.050781 223.257812 L 284.054688 218.792969 Z M 284.058594 212.207031 "/>
<path fill="none" stroke-width="0.75" stroke-linecap="round" stroke-linejoin="round" stroke="rgb(0%, 0%, 0%)" stroke-opacity="1" stroke-miterlimit="10" d="M 272.804688 223.257812 L 272.816406 218.839844 L 272.835938 212.253906 L 276.328125 212.238281 L 280.164062 212.226562 L 284.058594 212.207031 L 284.054688 218.792969 L 284.050781 223.257812 L 284.050781 224.035156 L 284.046875 225.414062 L 280.160156 225.429688 L 277.738281 225.4375 L 276.320312 225.445312 L 272.792969 225.460938 Z M 272.804688 223.257812 "/>
<path fill="none" stroke-width="0.75" stroke-linecap="round" stroke-linejoin="round" stroke="rgb(0%, 0%, 0%)" stroke-opacity="1" stroke-miterlimit="10" d="M 272.734375 103.976562 L 275.972656 103.84375 L 279.0625 103.710938 L 279.324219 103.699219 L 282.132812 103.585938 L 282.667969 103.5625 L 284.332031 103.488281 L 285.96875 103.421875 L 285.980469 110.558594 L 286.082031 119.886719 L 283.167969 119.894531 L 282.15625 119.902344 L 280.628906 119.90625 L 279.082031 119.917969 L 276.628906 119.921875 L 275.984375 119.929688 L 272.738281 119.941406 Z M 272.734375 103.976562 "/>
<path fill="none" stroke-width="0.75" stroke-linecap="round" stroke-linejoin="round" stroke="rgb(0%, 0%, 0%)" stroke-opacity="1" stroke-miterlimit="10" d="M 299.144531 119.828125 L 306.53125 119.859375 L 308.457031 119.863281 L 311.128906 119.871094 L 314.28125 119.886719 L 317.890625 119.898438 L 320.40625 119.910156 L 320.882812 119.894531 L 320.90625 124.089844 L 320.914062 124.839844 L 320.929688 127.78125 L 320.933594 128.621094 L 320.949219 131.523438 L 320.964844 135.253906 L 313.808594 135.199219 L 306.613281 135.144531 L 299.144531 135.085938 L 299.144531 131.34375 L 299.148438 127.609375 L 299.144531 125.015625 Z M 299.144531 119.828125 "/>
<path fill="none" stroke-width="0.75" stroke-linecap="round" stroke-linejoin="round" stroke="rgb(0%, 0%, 0%)" stroke-opacity="1" stroke-miterlimit="10" d="M 246.4375 212.363281 L 250.214844 212.347656 L 253.972656 212.332031 L 257.738281 212.320312 L 261.515625 212.300781 L 265.304688 212.285156 L 269.09375 212.273438 L 272.835938 212.253906 L 272.816406 218.839844 L 272.804688 223.257812 L 272.792969 225.460938 L 270.828125 225.46875 L 269.054688 225.472656 L 267.855469 225.476562 L 265.265625 225.488281 L 264.5625 225.488281 L 261.273438 225.503906 L 257.734375 225.519531 L 250.210938 225.550781 L 246.441406 225.5625 L 246.4375 223.222656 Z M 246.4375 212.363281 "/>
<path fill="none" stroke-width="0.75" stroke-linecap="round" stroke-linejoin="round" stroke="rgb(0%, 0%, 0%)" stroke-opacity="1" stroke-miterlimit="10" d="M 226.699219 120.027344 L 230.140625 120.03125 L 233.261719 120.035156 L 239.832031 120.042969 L 241.304688 120.042969 L 246.488281 120.050781 L 246.492188 124.488281 L 246.492188 131.613281 L 246.496094 134.910156 L 233.261719 134.859375 L 233.261719 133.21875 L 229.976562 133.203125 L 226.691406 133.191406 Z M 226.699219 120.027344 "/>
<path fill="none" stroke-width="0.75" stroke-linecap="round" stroke-linejoin="round" stroke="rgb(0%, 0%, 0%)" stroke-opacity="1" stroke-miterlimit="10" d="M 261.273438 225.503906 L 264.5625 225.488281 L 265.265625 225.488281 L 267.855469 225.476562 L 269.054688 225.472656 L 270.828125 225.46875 L 271.140625 229.855469 L 271.144531 232.792969 L 274.4375 232.78125 L 274.441406 234.566406 L 274.4375 240.109375 L 271.140625 240.121094 L 267.851562 240.136719 L 264.558594 240.152344 L 261.265625 240.164062 L 261.269531 232.835938 L 261.269531 227.007812 Z M 261.273438 225.503906 "/>
<path fill="none" stroke-width="0.75" stroke-linecap="round" stroke-linejoin="round" stroke="rgb(0%, 0%, 0%)" stroke-opacity="1" stroke-miterlimit="10" d="M 272.789062 162.78125 L 275.8125 162.777344 L 276.378906 162.773438 L 279.539062 162.765625 L 279.957031 162.765625 L 283.253906 162.757812 L 284.230469 162.757812 L 286.914062 162.75 L 288.269531 162.746094 L 292.035156 162.742188 L 294.496094 162.734375 L 295.582031 162.734375 L 299.140625 162.726562 L 299.140625 167.671875 L 299.144531 172.605469 L 295.300781 172.621094 L 294.480469 172.625 L 291.613281 172.628906 L 290.863281 172.632812 L 287.808594 172.640625 L 287.449219 172.640625 L 286.652344 172.644531 L 284.433594 172.648438 L 283.234375 172.652344 L 281.550781 172.65625 L 279.519531 172.660156 L 279.070312 172.664062 L 275.804688 172.671875 L 272.796875 172.679688 L 272.792969 167.726562 Z M 272.789062 162.78125 "/>
<path fill="none" stroke-width="0.75" stroke-linecap="round" stroke-linejoin="round" stroke="rgb(0%, 0%, 0%)" stroke-opacity="1" stroke-miterlimit="10" d="M 334.652344 262.015625 L 337.878906 255.996094 L 341.324219 257.878906 L 343.019531 258.808594 L 344.605469 259.675781 L 347.886719 261.464844 L 351.351562 263.355469 L 354.871094 265.28125 L 351.738281 271.222656 L 349.449219 275.40625 L 349.046875 276.640625 L 346.929688 275.480469 L 345.210938 274.539062 L 343.421875 273.5625 L 342.191406 272.882812 L 341.789062 272.664062 L 338.507812 270.875 L 335.230469 269.085938 L 331.855469 267.242188 Z M 334.652344 262.015625 "/>
<path fill="none" stroke-width="0.75" stroke-linecap="round" stroke-linejoin="round" stroke="rgb(0%, 0%, 0%)" stroke-opacity="1" stroke-miterlimit="10" d="M 321.574219 232.121094 L 324.355469 227.039062 L 327.363281 221.546875 L 327.773438 221.769531 L 335.320312 207.691406 L 336.210938 208.171875 L 336.640625 208.421875 L 337.050781 208.714844 L 337.707031 209.289062 L 340.214844 211.546875 L 338.648438 214.480469 L 338.015625 215.667969 L 337.148438 217.292969 L 334.242188 222.734375 L 333.363281 224.375 L 332.992188 224.625 L 329.984375 230.113281 L 326.972656 235.625 L 324.527344 234.289062 L 324.257812 234.144531 L 322.617188 233.25 L 321.578125 232.679688 Z M 321.574219 232.121094 "/>
<path fill="none" stroke-width="0.75" stroke-linecap="round" stroke-linejoin="round" stroke="rgb(0%, 0%, 0%)" stroke-opacity="1" stroke-miterlimit="10" d="M 321.210938 201.679688 L 321.257812 200.980469 L 324.308594 202.121094 L 324.566406 202.214844 L 327.746094 203.894531 L 328.097656 204.078125 L 329.640625 204.886719 L 329.90625 205.027344 L 332.449219 206.355469 L 335.320312 207.691406 L 327.773438 221.769531 L 327.363281 221.546875 L 324.992188 220.269531 L 322.488281 218.925781 L 321.902344 218.609375 L 321.601562 218.5 L 321.304688 218.445312 L 321.28125 214.140625 L 321.277344 213.054688 L 321.246094 207.667969 L 321.242188 206.972656 L 321.222656 203.878906 Z M 321.210938 201.679688 "/>
<path fill="none" stroke-width="0.75" stroke-linecap="round" stroke-linejoin="round" stroke="rgb(0%, 0%, 0%)" stroke-opacity="1" stroke-miterlimit="10" d="M 226.644531 93.527344 L 229.714844 93.515625 L 230.082031 93.511719 L 230.527344 93.511719 L 230.878906 93.507812 L 231.261719 93.507812 L 231.925781 93.503906 L 233.179688 93.5 L 239.730469 93.472656 L 241.1875 93.464844 L 246.382812 93.441406 L 246.402344 97.972656 L 246.417969 101.863281 L 246.417969 102.714844 L 246.429688 105.097656 L 246.4375 107.039062 L 246.445312 108.46875 L 246.445312 108.996094 L 246.449219 109.757812 L 246.449219 110.285156 L 246.453125 110.820312 L 246.457031 112.273438 L 246.460938 112.746094 L 246.472656 115.863281 L 246.472656 116.332031 L 246.488281 120.050781 L 241.304688 120.042969 L 239.832031 120.042969 L 233.261719 120.035156 L 230.140625 120.03125 L 226.699219 120.027344 L 226.710938 116.3125 L 226.699219 112.71875 L 226.691406 109.132812 L 226.683594 107.300781 L 226.679688 105.65625 L 226.667969 101.660156 Z M 226.644531 93.527344 "/>
<path fill="none" stroke-width="0.75" stroke-linecap="round" stroke-linejoin="round" stroke="rgb(0%, 0%, 0%)" stroke-opacity="1" stroke-miterlimit="10" d="M 287.765625 225.398438 L 291.609375 225.382812 L 295.296875 225.371094 L 299.132812 225.355469 L 299.128906 227.0625 L 299.125 232.679688 L 299.125 236.601562 L 299.121094 240.007812 L 295.335938 240.023438 L 291.542969 240.039062 L 287.757812 240.054688 L 287.761719 232.726562 L 287.761719 226.953125 Z M 287.765625 225.398438 "/>
<path fill="none" stroke-width="0.75" stroke-linecap="round" stroke-linejoin="round" stroke="rgb(0%, 0%, 0%)" stroke-opacity="1" stroke-miterlimit="10" d="M 285.96875 103.421875 L 289.273438 103.285156 L 290.359375 103.238281 L 292.566406 103.148438 L 294.761719 103.050781 L 295.757812 103.011719 L 299.148438 102.871094 L 299.148438 110.5 L 299.144531 114.199219 L 299.144531 119.828125 L 295.953125 119.847656 L 292.667969 119.859375 L 289.371094 119.871094 L 286.082031 119.886719 L 285.980469 110.558594 Z M 285.96875 103.421875 "/>
<path fill="none" stroke-width="0.75" stroke-linecap="round" stroke-linejoin="round" stroke="rgb(0%, 0%, 0%)" stroke-opacity="1" stroke-miterlimit="10" d="M 284.078125 192.054688 L 284.140625 191.617188 L 284.25 191.140625 L 284.285156 191.019531 L 284.386719 190.542969 L 284.441406 190.058594 L 284.445312 185.625 L 285.992188 185.683594 L 287.804688 185.683594 L 291.609375 185.675781 L 295.296875 185.664062 L 299.136719 185.65625 L 299.136719 199.015625 L 295.296875 199.023438 L 291.605469 199.03125 L 287.808594 199.035156 L 284.0625 199.042969 L 284.054688 192.390625 Z M 284.078125 192.054688 "/>
<path fill="none" stroke-width="0.75" stroke-linecap="round" stroke-linejoin="round" stroke="rgb(0%, 0%, 0%)" stroke-opacity="1" stroke-miterlimit="10" d="M 299.132812 225.355469 L 303.164062 225.34375 L 304.394531 225.335938 L 306.824219 225.328125 L 306.820312 227.085938 L 306.820312 236.566406 L 306.8125 240.164062 L 303.019531 240.175781 L 299.121094 240.007812 L 299.125 236.601562 L 299.125 232.679688 L 299.128906 227.0625 Z M 299.132812 225.355469 "/>
<path fill="none" stroke-width="0.75" stroke-linecap="round" stroke-linejoin="round" stroke="rgb(0%, 0%, 0%)" stroke-opacity="1" stroke-miterlimit="10" d="M 299.136719 199.015625 L 305.65625 198.996094 L 306.070312 199.019531 L 310.539062 199.332031 L 311.710938 199.328125 L 313.820312 199.3125 L 316.792969 199.304688 L 317.117188 199.429688 L 321.257812 200.980469 L 321.210938 201.679688 L 321.222656 203.878906 L 321.242188 206.972656 L 321.246094 207.667969 L 321.277344 213.054688 L 321.28125 214.140625 L 321.304688 218.445312 L 321.601562 218.5 L 321.902344 218.609375 L 322.488281 218.925781 L 324.992188 220.269531 L 327.363281 221.546875 L 324.355469 227.039062 L 321.542969 225.507812 L 321.113281 225.273438 L 317.257812 225.285156 L 313.070312 225.300781 L 310.605469 225.3125 L 308.878906 225.320312 L 306.824219 225.328125 L 304.394531 225.335938 L 303.164062 225.34375 L 299.132812 225.355469 L 299.132812 218.496094 L 299.136719 212.1875 Z M 299.136719 199.015625 "/>
<path fill="none" stroke-width="0.75" stroke-linecap="round" stroke-linejoin="round" stroke="rgb(0%, 0%, 0%)" stroke-opacity="1" stroke-miterlimit="10" d="M 272.835938 185.476562 L 275.832031 185.46875 L 278.820312 185.46875 L 280.316406 185.464844 L 281.617188 185.515625 L 284.445312 185.625 L 284.441406 190.058594 L 284.386719 190.542969 L 284.285156 191.019531 L 284.25 191.140625 L 284.140625 191.617188 L 284.078125 192.054688 L 284.054688 192.390625 L 284.0625 199.042969 L 280.171875 199.050781 L 276.613281 199.058594 L 276.332031 199.058594 L 272.875 199.066406 L 272.851562 191.164062 Z M 272.835938 185.476562 "/>
<path fill="none" stroke-width="0.75" stroke-linecap="round" stroke-linejoin="round" stroke="rgb(0%, 0%, 0%)" stroke-opacity="1" stroke-miterlimit="10" d="M 272.855469 205.667969 L 272.875 199.066406 L 276.332031 199.058594 L 276.613281 199.058594 L 280.171875 199.050781 L 284.0625 199.042969 L 284.058594 205.625 L 284.058594 212.207031 L 280.164062 212.226562 L 276.328125 212.238281 L 272.835938 212.253906 Z M 272.855469 205.667969 "/>
<path fill="none" stroke-width="0.75" stroke-linecap="round" stroke-linejoin="round" stroke="rgb(0%, 0%, 0%)" stroke-opacity="1" stroke-miterlimit="10" d="M 299.121094 240.007812 L 303.019531 240.175781 L 306.8125 240.164062 L 313.496094 240.144531 L 321.515625 240.121094 L 321.46875 243.410156 L 321.417969 247.003906 L 321.417969 249.988281 L 317.875 250.003906 L 314.335938 250.015625 L 310.796875 250.03125 L 306.808594 250.046875 L 302.921875 250.058594 L 299.117188 250.074219 L 299.117188 246.585938 L 299.121094 243.480469 Z M 299.121094 240.007812 "/>
<path fill="none" stroke-width="0.75" stroke-linecap="round" stroke-linejoin="round" stroke="rgb(0%, 0%, 0%)" stroke-opacity="1" stroke-miterlimit="10" d="M 306.824219 225.328125 L 308.878906 225.320312 L 310.605469 225.3125 L 313.070312 225.300781 L 317.257812 225.285156 L 321.113281 225.273438 L 321.542969 225.507812 L 324.355469 227.039062 L 321.574219 232.121094 L 321.578125 232.679688 L 321.597656 236.503906 L 321.515625 240.121094 L 313.496094 240.144531 L 306.8125 240.164062 L 306.820312 236.566406 L 306.820312 227.085938 Z M 306.824219 225.328125 "/>
<path fill="none" stroke-width="0.75" stroke-linecap="round" stroke-linejoin="round" stroke="rgb(0%, 0%, 0%)" stroke-opacity="1" stroke-miterlimit="10" d="M 270.828125 225.46875 L 272.792969 225.460938 L 276.320312 225.445312 L 277.738281 225.4375 L 280.160156 225.429688 L 284.046875 225.414062 L 287.765625 225.398438 L 287.761719 226.953125 L 287.761719 232.726562 L 287.757812 240.054688 L 284.316406 240.070312 L 281.023438 240.082031 L 277.730469 240.097656 L 274.4375 240.109375 L 274.441406 234.566406 L 274.4375 232.78125 L 271.144531 232.792969 L 271.140625 229.855469 Z M 270.828125 225.46875 "/>
<path fill="none" stroke-width="0.75" stroke-linecap="round" stroke-linejoin="round" stroke="rgb(0%, 0%, 0%)" stroke-opacity="1" stroke-miterlimit="10" d="M 284.316406 240.070312 L 287.757812 240.054688 L 291.542969 240.039062 L 295.335938 240.023438 L 299.121094 240.007812 L 299.121094 243.480469 L 299.117188 246.585938 L 299.117188 251.722656 L 295.960938 251.730469 L 295.332031 251.734375 L 292.800781 251.738281 L 291.539062 251.742188 L 289.644531 251.75 L 287.75 251.753906 L 286.484375 251.757812 L 284.308594 251.761719 L 284.3125 246.636719 Z M 284.316406 240.070312 "/>
<path fill="none" stroke-width="0.75" stroke-linecap="round" stroke-linejoin="round" stroke="rgb(0%, 0%, 0%)" stroke-opacity="1" stroke-miterlimit="10" d="M 261.265625 240.164062 L 264.558594 240.152344 L 267.851562 240.136719 L 271.140625 240.121094 L 274.4375 240.109375 L 274.433594 246.671875 L 274.429688 250.519531 L 274.136719 251.789062 L 271.21875 251.800781 L 267.847656 251.8125 L 267.53125 251.808594 L 264.375 251.820312 L 261.261719 251.828125 L 261.265625 246.71875 Z M 261.265625 240.164062 "/>
<path fill="none" stroke-width="0.75" stroke-linecap="round" stroke-linejoin="round" stroke="rgb(0%, 0%, 0%)" stroke-opacity="1" stroke-miterlimit="10" d="M 205.597656 146.304688 L 206.945312 146.304688 L 208.617188 146.308594 L 211.625 146.316406 L 213.917969 146.324219 L 215.113281 146.328125 L 217.535156 146.335938 L 220.121094 146.339844 L 220.898438 146.34375 L 226.675781 146.355469 L 229.957031 146.363281 L 232.5 146.371094 L 233.261719 146.371094 L 233.261719 153.058594 L 233.265625 157.996094 L 233.269531 161.28125 L 233.269531 169.023438 L 233.277344 172.765625 L 233.003906 172.765625 L 230.007812 172.769531 L 226.644531 172.773438 L 222.609375 172.78125 L 222.320312 172.78125 L 220.117188 172.785156 L 218.316406 172.785156 L 217.484375 172.789062 L 215.167969 172.792969 L 214.847656 172.792969 L 211.785156 172.796875 L 208.792969 172.800781 L 205.589844 172.789062 L 205.59375 162.800781 L 205.59375 152.910156 Z M 205.597656 146.304688 "/>
<path fill="none" stroke-width="0.75" stroke-linecap="round" stroke-linejoin="round" stroke="rgb(0%, 0%, 0%)" stroke-opacity="1" stroke-miterlimit="10" d="M 246.40625 159.578125 L 246.453125 158.007812 L 246.507812 156.148438 L 246.507812 149.070312 L 246.503906 146.398438 L 249.992188 146.386719 L 250.6875 146.386719 L 253.234375 146.375 L 256.722656 146.363281 L 258.726562 146.359375 L 260.21875 146.351562 L 260.21875 159.527344 L 260.222656 162.820312 L 260.226562 167.761719 L 260.574219 167.761719 L 260.582031 172.710938 L 257.839844 172.71875 L 257.378906 172.722656 L 255.746094 172.722656 L 253.722656 172.726562 L 253.246094 172.730469 L 250.066406 172.738281 L 246.414062 172.75 L 246.410156 169.007812 L 246.410156 165.316406 L 246.40625 161.652344 Z M 246.40625 159.578125 "/>
<path fill="none" stroke-width="0.75" stroke-linecap="round" stroke-linejoin="round" stroke="rgb(0%, 0%, 0%)" stroke-opacity="1" stroke-miterlimit="10" d="M 260.21875 146.351562 L 262.230469 146.347656 L 263.707031 146.339844 L 265.742188 146.335938 L 268.976562 146.324219 L 269.257812 146.324219 L 272.765625 146.3125 L 272.777344 154.757812 L 272.78125 159.484375 L 272.789062 162.78125 L 272.792969 167.726562 L 272.796875 172.679688 L 270.4375 172.683594 L 268.308594 172.691406 L 267.058594 172.695312 L 265.117188 172.699219 L 263.480469 172.703125 L 261.035156 172.710938 L 260.582031 172.710938 L 260.574219 167.761719 L 260.226562 167.761719 L 260.222656 162.820312 L 260.21875 159.527344 Z M 260.21875 146.351562 "/>
<path fill="none" stroke-width="0.75" stroke-linecap="round" stroke-linejoin="round" stroke="rgb(0%, 0%, 0%)" stroke-opacity="1" stroke-miterlimit="10" d="M 272.765625 142.226562 L 273.515625 142.855469 L 277.640625 146.296875 L 278.722656 146.292969 L 279.585938 146.289062 L 280.628906 146.285156 L 283.164062 146.277344 L 284.226562 146.273438 L 286.082031 146.265625 L 288.261719 146.257812 L 289.375 146.253906 L 292.03125 146.246094 L 292.328125 146.246094 L 295.585938 146.234375 L 295.851562 146.234375 L 299.144531 146.269531 L 299.144531 155.632812 L 299.140625 157.261719 L 299.144531 157.960938 L 299.140625 158.515625 L 299.140625 162.726562 L 295.582031 162.734375 L 294.496094 162.734375 L 292.035156 162.742188 L 288.269531 162.746094 L 286.914062 162.75 L 284.230469 162.757812 L 283.253906 162.757812 L 279.957031 162.765625 L 279.539062 162.765625 L 276.378906 162.773438 L 275.8125 162.777344 L 272.789062 162.78125 L 272.78125 159.484375 L 272.777344 154.757812 L 272.765625 146.3125 Z M 272.765625 142.226562 "/>
<path fill="none" stroke-width="0.75" stroke-linecap="round" stroke-linejoin="round" stroke="rgb(0%, 0%, 0%)" stroke-opacity="1" stroke-miterlimit="10" d="M 299.144531 146.269531 L 302.75 146.277344 L 306.699219 146.285156 L 310.296875 146.296875 L 313.878906 146.308594 L 317.46875 146.316406 L 321.019531 146.328125 L 321.039062 150.503906 L 321.050781 152.90625 L 321.074219 156.902344 L 321.089844 160.652344 L 321.089844 160.824219 L 321.09375 161.488281 L 321.105469 163.496094 L 321.105469 163.941406 L 321.121094 166.984375 L 321.125 167.285156 L 321.128906 167.582031 L 321.128906 167.867188 L 321.140625 169.691406 L 321.148438 171.265625 L 317.554688 171.253906 L 316.09375 171.253906 L 315.808594 171.28125 L 315.472656 171.34375 L 315.132812 171.445312 L 314.8125 171.582031 L 314.613281 171.6875 L 313.875 172.125 L 313.867188 172.644531 L 310.382812 172.632812 L 306.792969 172.625 L 305.941406 172.625 L 302.734375 172.617188 L 299.144531 172.605469 L 299.140625 167.671875 L 299.140625 158.515625 L 299.144531 157.960938 L 299.140625 157.261719 L 299.144531 155.632812 Z M 299.144531 146.269531 "/>
<path fill="none" stroke-width="2.25" stroke-linecap="round" stroke-linejoin="round" stroke="rgb(100%, 0%, 0%)" stroke-opacity="1" stroke-miterlimit="10" d="M 334.113281 261.671875 L 333.082031 261.0625 L 332.351562 260.738281 L 331.378906 260.457031 L 330.765625 260.351562 L 329.230469 260.226562 L 327.363281 259.996094 L 325.449219 259.816406 L 323.582031 259.636719 L 322.015625 259.460938 L 319.925781 259.367188 L 301.90625 259.40625 L 300.117188 259.226562 L 299.1875 258.9375 L 298.964844 258.871094 L 297.585938 258.488281 L 267.601562 258.632812 L 255.097656 258.691406 L 252.617188 258.457031 L 246.484375 258.457031 L 246.492188 225.5 L 272.792969 225.417969 L 272.914062 211.851562 L 272.878906 199.019531 L 276.570312 199 L 284.070312 198.972656 L 303.347656 198.988281 L 306.054688 199.019531 L 308.070312 199.125 L 309.398438 199.214844 L 310.488281 199.277344 L 312.621094 199.292969 L 313.59375 199.300781 L 315.640625 199.269531 L 316.648438 199.300781 L 317.191406 199.4375 L 321.210938 200.910156 L 324.328125 202.089844 L 325.109375 202.4375 L 327.988281 203.929688 L 329.925781 204.960938 L 336.613281 208.328125 L 336.953125 208.550781 L 337.25 208.773438 L 337.75 209.214844 L 338.121094 209.597656 L 338.710938 210.160156 L 339.226562 210.632812 L 339.625 210.988281 L 339.980469 211.269531 L 340.261719 211.472656 L 340.660156 211.769531 L 341.027344 212.035156 L 342.019531 212.613281 L 343.039062 213.148438 L 344.234375 213.761719 L 346.390625 214.871094 L 348.542969 215.875 L 348.976562 216.109375 L 349.414062 216.425781 L 349.632812 216.617188 L 349.90625 216.90625 L 350.132812 217.179688 L 350.378906 217.523438 L 350.550781 217.785156 L 350.753906 218.097656 L 350.90625 218.320312 L 351.125 218.609375 L 351.246094 218.75 L 351.363281 218.890625 L 351.554688 219.078125 L 351.726562 219.234375 L 351.988281 219.460938 L 352.246094 219.6875 L 352.492188 219.898438 L 352.734375 220.0625 L 352.949219 220.191406 L 353.191406 220.304688 L 353.402344 220.417969 L 353.679688 220.5 L 354.039062 220.597656 L 354.671875 220.761719 L 355.363281 220.957031 L 355.765625 221.070312 L 356.078125 221.167969 L 356.367188 221.28125 L 337.785156 255.925781 L 337.878906 255.976562 L 334.683594 261.976562 Z M 334.113281 261.671875 "/>
<path fill="none" stroke-width="2.25" stroke-linecap="round" stroke-linejoin="round" stroke="rgb(100%, 0%, 0%)" stroke-opacity="1" stroke-miterlimit="10" d="M 299.339844 172.515625 L 272.917969 172.570312 L 246.464844 172.625 L 205.453125 172.707031 L 205.605469 146.332031 L 206.925781 146.332031 L 207.007812 119.957031 L 207.089844 93.640625 L 219.992188 93.550781 L 229.238281 93.484375 L 229.691406 93.464844 L 230.175781 93.464844 L 230.894531 93.453125 L 231.246094 93.445312 L 231.644531 93.433594 L 232.050781 93.21875 L 233.230469 93.425781 L 241.242188 93.425781 L 246.394531 93.421875 L 264.773438 93.421875 L 267.769531 93.425781 L 299.339844 93.351562 Z M 299.339844 172.515625 "/>
</svg>
