<?xml version="1.0" encoding="UTF-8"?>
<svg xmlns="http://www.w3.org/2000/svg" xmlns:xlink="http://www.w3.org/1999/xlink" width="504pt" height="360pt" viewBox="0 0 504 360">
<defs>
<clipPath id="clip-0">
<path clip-rule="nonzero" d="M 59.039062 59.039062 L 473.757812 59.039062 L 473.757812 286.558594 L 59.039062 286.558594 Z M 59.039062 59.039062 "/>
</clipPath>
</defs>
<rect x="-50.4" y="-36" width="604.8" height="432" fill="rgb(100%, 100%, 100%)" fill-opacity="1"/>
<g clip-path="url(#clip-0)">
<path fill-rule="nonzero" fill="rgb(100%, 100%, 100%)" fill-opacity="1" stroke-width="0.75" stroke-linecap="round" stroke-linejoin="round" stroke="rgb(100%, 100%, 100%)" stroke-opacity="1" stroke-miterlimit="10" d="M 59.039062 286.558594 L 473.757812 286.558594 L 473.757812 59.039062 L 59.039062 59.039062 Z M 59.039062 286.558594 "/>
</g>
<path fill="none" stroke-width="0.75" stroke-linecap="round" stroke-linejoin="round" stroke="rgb(0%, 0%, 0%)" stroke-opacity="1" stroke-miterlimit="10" d="M 250 67.726562 L 289.40625 67.636719 L 289.40625 166.457031 L 256.425781 166.523438 L 223.402344 166.589844 L 172.203125 166.695312 L 172.398438 133.769531 L 174.046875 133.769531 L 174.148438 100.847656 L 190.601562 100.835938 L 190.390625 78.199219 L 190.355469 67.882812 L 201.898438 67.800781 L 202.464844 67.773438 L 203.066406 67.777344 L 203.964844 67.757812 L 204.40625 67.75 L 204.902344 67.738281 L 205.40625 67.464844 L 206.882812 67.726562 L 216.882812 67.726562 L 223.3125 67.722656 L 231.519531 67.722656 L 236.953125 67.71875 L 242.125 67.71875 L 245.933594 67.722656 L 246.257812 67.722656 Z M 250 67.726562 "/>
<path fill="none" stroke-width="0.75" stroke-linecap="round" stroke-linejoin="round" stroke="rgb(0%, 0%, 0%)" stroke-opacity="1" stroke-miterlimit="10" d="M 190.355469 67.882812 L 190.390625 78.199219 L 190.601562 100.835938 L 174.148438 100.847656 L 174.253906 67.996094 Z M 190.355469 67.882812 "/>
<path fill="none" stroke-width="0.75" stroke-linecap="round" stroke-linejoin="round" stroke="rgb(0%, 0%, 0%)" stroke-opacity="1" stroke-miterlimit="10" d="M 223.4375 232.597656 L 256.269531 232.496094 L 256.417969 215.558594 L 256.375 199.539062 L 260.984375 199.515625 L 270.347656 199.484375 L 294.410156 199.503906 L 297.792969 199.539062 L 300.304688 199.671875 L 301.960938 199.785156 L 303.324219 199.863281 L 305.984375 199.882812 L 307.199219 199.890625 L 309.757812 199.855469 L 311.015625 199.890625 L 311.691406 200.0625 L 316.710938 201.898438 L 320.597656 203.375 L 321.578125 203.808594 L 325.171875 205.667969 L 327.585938 206.960938 L 335.9375 211.164062 L 336.359375 211.4375 L 336.730469 211.714844 L 337.355469 212.269531 L 337.816406 212.746094 L 338.554688 213.449219 L 339.199219 214.039062 L 339.695312 214.480469 L 340.140625 214.832031 L 340.488281 215.089844 L 340.988281 215.457031 L 341.449219 215.789062 L 342.683594 216.507812 L 343.957031 217.175781 L 345.449219 217.945312 L 348.140625 219.328125 L 350.828125 220.585938 L 351.371094 220.875 L 351.914062 221.269531 L 352.191406 221.507812 L 352.527344 221.871094 L 352.8125 222.210938 L 353.117188 222.640625 L 353.335938 222.96875 L 353.585938 223.355469 L 353.777344 223.636719 L 354.050781 223.992188 L 354.203125 224.171875 L 354.351562 224.347656 L 354.585938 224.578125 L 354.800781 224.773438 L 355.128906 225.058594 L 355.453125 225.339844 L 355.757812 225.605469 L 356.0625 225.808594 L 356.328125 225.972656 L 356.632812 226.113281 L 356.894531 226.253906 L 357.242188 226.355469 L 357.6875 226.480469 L 358.480469 226.683594 L 359.34375 226.929688 L 359.84375 227.070312 L 360.234375 227.191406 L 360.59375 227.332031 L 333.402344 278.027344 L 329.367188 275.503906 L 315.105469 274.875 L 292.609375 274.925781 L 290.375 274.699219 L 289.214844 274.339844 L 288.941406 274.253906 L 287.214844 273.773438 L 249.785156 273.957031 L 234.175781 274.03125 L 231.085938 273.738281 L 223.425781 273.738281 Z M 223.4375 232.597656 "/>
<path fill="none" stroke-width="0.75" stroke-linecap="round" stroke-linejoin="round" stroke="rgb(0%, 0%, 0%)" stroke-opacity="1" stroke-miterlimit="10" d="M 337.519531 270.644531 L 333.527344 278.132812 L 332.816406 277.75 L 331.527344 276.988281 L 330.613281 276.582031 L 329.402344 276.230469 L 328.636719 276.105469 L 326.722656 275.945312 L 324.390625 275.65625 L 322 275.433594 L 319.667969 275.210938 L 317.117188 274.925781 L 317.082031 271.097656 L 317.078125 269.605469 L 317.0625 264.609375 L 317.058594 263.167969 L 316.695312 259.226562 L 317.605469 259.722656 L 319.15625 260.558594 L 319.621094 260.8125 L 321.664062 261.9375 L 325.546875 264.074219 L 329.410156 266.199219 L 331.371094 267.277344 L 333.34375 268.363281 L 333.835938 268.636719 L 335.355469 269.464844 Z M 337.519531 270.644531 "/>
</svg>
