<?xml version="1.0" encoding="UTF-8"?>
<svg xmlns="http://www.w3.org/2000/svg" xmlns:xlink="http://www.w3.org/1999/xlink" width="504pt" height="360pt" viewBox="0 0 504 360">
<defs>
<clipPath id="clip-0">
<path clip-rule="nonzero" d="M 59.039062 59.039062 L 473.757812 59.039062 L 473.757812 286.558594 L 59.039062 286.558594 Z M 59.039062 59.039062 "/>
</clipPath>
</defs>
<rect x="-50.4" y="-36" width="604.8" height="432" fill="rgb(100%, 100%, 100%)" fill-opacity="1"/>
<g clip-path="url(#clip-0)">
<path fill-rule="nonzero" fill="rgb(100%, 100%, 100%)" fill-opacity="1" stroke-width="0.75" stroke-linecap="round" stroke-linejoin="round" stroke="rgb(100%, 100%, 100%)" stroke-opacity="1" stroke-miterlimit="10" d="M 59.039062 286.558594 L 473.757812 286.558594 L 473.757812 59.039062 L 59.039062 59.039062 Z M 59.039062 286.558594 "/>
</g>
<path fill="none" stroke-width="0.75" stroke-linecap="round" stroke-linejoin="round" stroke="rgb(0%, 0%, 0%)" stroke-opacity="1" stroke-miterlimit="10" d="M 326.734375 258.496094 L 325.5625 257.800781 L 324.734375 257.433594 L 323.632812 257.113281 L 322.9375 257 L 321.195312 256.855469 L 319.082031 256.59375 L 316.90625 256.390625 L 314.789062 256.1875 L 313.011719 255.988281 L 310.644531 255.882812 L 290.210938 255.925781 L 288.179688 255.722656 L 287.125 255.394531 L 286.875 255.316406 L 285.308594 254.882812 L 251.308594 255.046875 L 237.128906 255.113281 L 234.320312 254.847656 L 227.359375 254.847656 L 227.371094 217.476562 L 257.199219 217.382812 L 257.332031 201.996094 L 257.292969 187.445312 L 261.480469 187.425781 L 269.988281 187.394531 L 291.84375 187.414062 L 294.917969 187.445312 L 297.199219 187.566406 L 298.707031 187.667969 L 299.941406 187.738281 L 302.359375 187.753906 L 303.464844 187.761719 L 305.785156 187.730469 L 306.929688 187.761719 L 307.542969 187.921875 L 312.101562 189.589844 L 315.636719 190.929688 L 316.523438 191.320312 L 319.789062 193.011719 L 321.984375 194.1875 L 329.570312 198.003906 L 329.953125 198.253906 L 330.289062 198.507812 L 330.859375 199.007812 L 331.277344 199.445312 L 331.945312 200.078125 L 332.53125 200.617188 L 332.984375 201.019531 L 333.386719 201.335938 L 333.703125 201.570312 L 334.15625 201.90625 L 334.574219 202.207031 L 335.699219 202.859375 L 336.855469 203.46875 L 338.210938 204.164062 L 340.65625 205.421875 L 343.097656 206.5625 L 343.589844 206.824219 L 344.082031 207.1875 L 344.335938 207.402344 L 344.640625 207.730469 L 344.898438 208.039062 L 345.175781 208.429688 L 345.375 208.726562 L 345.601562 209.082031 L 345.773438 209.332031 L 346.027344 209.660156 L 346.160156 209.824219 L 346.296875 209.980469 L 346.511719 210.191406 L 346.703125 210.371094 L 347.003906 210.625 L 347.296875 210.882812 L 347.574219 211.125 L 347.851562 211.308594 L 348.089844 211.457031 L 348.367188 211.585938 L 348.609375 211.714844 L 348.921875 211.804688 L 349.328125 211.917969 L 350.050781 212.105469 L 350.832031 212.324219 L 351.285156 212.453125 L 351.640625 212.566406 L 351.96875 212.691406 L 330.898438 251.980469 L 331.003906 252.039062 L 327.378906 258.839844 Z M 326.734375 258.496094 "/>
<path fill="none" stroke-width="0.75" stroke-linecap="round" stroke-linejoin="round" stroke="rgb(0%, 0%, 0%)" stroke-opacity="1" stroke-miterlimit="10" d="M 287.300781 157.390625 L 257.339844 157.453125 L 227.339844 157.515625 L 180.832031 157.609375 L 181.003906 127.695312 L 182.503906 127.695312 L 182.597656 97.789062 L 182.691406 67.949219 L 197.320312 67.84375 L 207.804688 67.769531 L 208.320312 67.746094 L 208.867188 67.746094 L 209.679688 67.730469 L 210.082031 67.722656 L 210.535156 67.714844 L 210.992188 67.464844 L 212.332031 67.703125 L 221.417969 67.703125 L 227.257812 67.699219 L 234.714844 67.699219 L 239.652344 67.695312 L 244.347656 67.695312 L 247.808594 67.699219 L 248.101562 67.699219 L 251.5 67.703125 L 287.300781 67.621094 Z M 287.300781 157.390625 "/>
<path fill="none" stroke-width="0.75" stroke-linecap="round" stroke-linejoin="round" stroke="rgb(100%, 0%, 0%)" stroke-opacity="1" stroke-miterlimit="10" d="M 197.394531 186.996094 L 282.699219 170.386719 L 387.300781 196.425781 L 362.164062 278.132812 L 204.574219 275.882812 L 197.394531 186.996094 "/>
</svg>
