<?xml version="1.0" encoding="UTF-8"?>
<svg xmlns="http://www.w3.org/2000/svg" xmlns:xlink="http://www.w3.org/1999/xlink" width="504" height="360" viewBox="0 0 504 360">
<defs>
<clipPath id="clip-0">
<path clip-rule="nonzero" d="M 59.039062 59.039062 L 473.757812 59.039062 L 473.757812 286.558594 L 59.039062 286.558594 Z M 59.039062 59.039062 "/>
</clipPath>
</defs>
<rect x="-50.4" y="-36" width="604.8" height="432" fill="rgb(100%, 100%, 100%)" fill-opacity="1"/>
<g clip-path="url(#clip-0)">
<path fill-rule="nonzero" fill="rgb(100%, 100%, 100%)" fill-opacity="1" stroke-width="0.75" stroke-linecap="round" stroke-linejoin="round" stroke="rgb(100%, 100%, 100%)" stroke-opacity="1" stroke-miterlimit="10" d="M 59.039062 286.558594 L 473.757812 286.558594 L 473.757812 59.039062 L 59.039062 59.039062 Z M 59.039062 286.558594 "/>
</g>
<path fill="none" stroke-width="0.75" stroke-linecap="round" stroke-linejoin="round" stroke="rgb(0%, 0%, 0%)" stroke-opacity="1" stroke-miterlimit="10" d="M 297.113281 67.464844 L 298.574219 68.265625 L 299.996094 69.042969 L 301.261719 69.734375 L 302.601562 70.46875 L 304.265625 71.378906 L 305.914062 72.265625 L 307.722656 73.246094 L 309.617188 74.269531 L 312.042969 75.578125 L 313.910156 76.589844 L 314.570312 76.957031 L 315.953125 77.730469 L 317.15625 78.40625 L 319.496094 79.714844 L 319.816406 79.894531 L 322.191406 81.226562 L 323.039062 81.699219 L 325.117188 82.871094 L 326.339844 83.558594 L 327.316406 84.109375 L 327.503906 84.214844 L 329.710938 85.457031 L 340.8125 91.605469 L 348.84375 96.144531 L 364.203125 106.617188 L 372.933594 108.714844 L 373.28125 123.027344 L 372.933594 134.898438 L 375.375 163.527344 L 377.121094 195.644531 L 333.480469 195.296875 L 333.480469 236.144531 L 275.875 236.84375 L 275.875 216.941406 L 276.574219 210.660156 L 276.921875 199.484375 L 276.574219 172.605469 L 275.875 164.574219 L 276.007812 154.328125 L 276.007812 153.347656 L 276.011719 151.011719 L 276.027344 148.675781 L 276.078125 144.234375 L 276.21875 134.414062 L 276.234375 133.054688 L 276.097656 129.898438 L 276.066406 128.953125 L 275.976562 126.042969 L 275.984375 125.652344 L 275.992188 125.195312 L 276.023438 124.027344 L 276.035156 123.816406 L 276.058594 123.367188 L 276.105469 122.707031 L 276.148438 122.28125 L 276.195312 121.933594 L 276.316406 121.203125 L 276.476562 120.402344 L 276.5625 120.019531 L 276.960938 118.355469 L 277.167969 117.523438 L 277.351562 116.886719 L 277.527344 116.328125 L 277.65625 115.988281 L 277.808594 115.535156 L 277.949219 115.113281 L 278.296875 114.203125 L 278.402344 113.871094 L 278.484375 113.652344 L 278.558594 113.515625 L 278.652344 113.367188 L 278.878906 112.890625 L 278.992188 112.644531 L 279.421875 111.921875 L 280.417969 110.324219 L 282.640625 106.1875 L 282.914062 105.683594 L 283.105469 105.328125 L 283.335938 104.84375 L 287.203125 96.265625 L 287.644531 95.347656 L 289.316406 91.828125 L 290.019531 90.40625 L 290.160156 90.128906 L 290.382812 89.671875 L 290.644531 89.066406 L 290.832031 88.59375 L 290.953125 88.265625 L 291.160156 87.59375 L 291.304688 87.074219 L 291.398438 86.730469 L 291.542969 86.125 L 291.628906 85.703125 L 291.671875 85.433594 L 291.738281 84.726562 L 291.777344 84.113281 L 291.863281 83.144531 L 291.878906 82.832031 L 291.878906 82.5625 L 291.867188 82.171875 L 291.835938 81.667969 L 291.816406 81.226562 L 291.707031 79.4375 L 291.652344 78.425781 L 291.65625 77.808594 L 291.722656 77.699219 L 292.4375 76.234375 L 292.871094 75.394531 L 293.699219 73.863281 Z M 297.113281 67.464844 "/>
<path fill="none" stroke-width="0.75" stroke-linecap="round" stroke-linejoin="round" stroke="rgb(0%, 0%, 0%)" stroke-opacity="1" stroke-miterlimit="10" d="M 155.078125 153.914062 L 275.964844 153.75 L 302.421875 153.902344 L 302.421875 140.777344 L 331.777344 86.445312 L 343.082031 92.824219 L 348.730469 96.105469 L 358.214844 102.488281 L 362.769531 105.769531 L 369.152344 107.410156 L 373.710938 108.503906 L 373.527344 120.902344 L 373.527344 132.9375 L 373.894531 139.5 L 374.441406 148.796875 L 375.898438 169.035156 L 376.808594 189.820312 L 377.722656 195.835938 L 373.164062 195.835938 L 367.511719 195.65625 L 358.578125 195.472656 L 333.597656 195.472656 L 333.417969 277.882812 L 167.835938 278.132812 L 167.6875 273.429688 L 166.789062 272.460938 L 162.085938 269.921875 L 158.503906 266.039062 L 157.535156 263.277344 L 157.617188 262.511719 L 157.9375 163.757812 L 157.9375 161.21875 L 157.300781 158.359375 L 156.667969 156.136719 Z M 155.078125 153.914062 "/>
<path fill-rule="evenodd" fill="rgb(100%, 0%, 0%)" fill-opacity="1" stroke-width="0.75" stroke-linecap="round" stroke-linejoin="round" stroke="rgb(0%, 0%, 0%)" stroke-opacity="1" stroke-miterlimit="10" d="M 298.574219 68.265625 L 299.996094 69.042969 L 301.261719 69.734375 L 302.601562 70.46875 L 304.265625 71.378906 L 305.914062 72.265625 L 307.722656 73.246094 L 309.617188 74.269531 L 312.042969 75.578125 L 313.910156 76.589844 L 314.570312 76.957031 L 315.953125 77.730469 L 317.15625 78.40625 L 319.496094 79.714844 L 319.816406 79.894531 L 322.191406 81.226562 L 323.039062 81.699219 L 325.117188 82.871094 L 326.339844 83.558594 L 327.316406 84.109375 L 327.503906 84.214844 L 329.710938 85.457031 L 331.710938 86.566406 L 302.421875 140.777344 L 302.421875 153.902344 L 276.007812 153.75 L 276.007812 153.347656 L 276.011719 151.011719 L 276.027344 148.675781 L 276.078125 144.234375 L 276.21875 134.414062 L 276.234375 133.054688 L 276.097656 129.898438 L 276.066406 128.953125 L 275.976562 126.042969 L 275.984375 125.652344 L 275.992188 125.195312 L 276.023438 124.027344 L 276.035156 123.816406 L 276.058594 123.367188 L 276.105469 122.707031 L 276.148438 122.28125 L 276.195312 121.933594 L 276.316406 121.203125 L 276.476562 120.402344 L 276.5625 120.019531 L 276.960938 118.355469 L 277.167969 117.523438 L 277.351562 116.886719 L 277.527344 116.328125 L 277.65625 115.988281 L 277.808594 115.535156 L 277.949219 115.113281 L 278.296875 114.203125 L 278.402344 113.871094 L 278.484375 113.652344 L 278.558594 113.515625 L 278.652344 113.367188 L 278.878906 112.890625 L 278.992188 112.644531 L 279.421875 111.921875 L 280.417969 110.324219 L 282.640625 106.1875 L 282.914062 105.683594 L 283.105469 105.328125 L 283.335938 104.84375 L 287.203125 96.265625 L 287.644531 95.347656 L 289.316406 91.828125 L 290.019531 90.40625 L 290.160156 90.128906 L 290.382812 89.671875 L 290.644531 89.066406 L 290.832031 88.59375 L 290.953125 88.265625 L 291.160156 87.59375 L 291.304688 87.074219 L 291.398438 86.730469 L 291.542969 86.125 L 291.628906 85.703125 L 291.671875 85.433594 L 291.738281 84.726562 L 291.777344 84.113281 L 291.863281 83.144531 L 291.878906 82.832031 L 291.878906 82.5625 L 291.867188 82.171875 L 291.835938 81.667969 L 291.816406 81.226562 L 291.707031 79.4375 L 291.652344 78.425781 L 291.65625 77.808594 L 291.722656 77.699219 L 292.4375 76.234375 L 292.871094 75.394531 L 293.699219 73.863281 L 297.113281 67.464844 Z M 298.574219 68.265625 "/>
<path fill-rule="evenodd" fill="rgb(100%, 0%, 0%)" fill-opacity="1" stroke-width="0.75" stroke-linecap="round" stroke-linejoin="round" stroke="rgb(0%, 0%, 0%)" stroke-opacity="1" stroke-miterlimit="10" d="M 348.84375 96.144531 L 353.015625 98.992188 L 348.730469 96.105469 L 347.140625 95.183594 Z M 348.84375 96.144531 "/>
<path fill-rule="evenodd" fill="rgb(100%, 0%, 0%)" fill-opacity="1" stroke-width="0.75" stroke-linecap="round" stroke-linejoin="round" stroke="rgb(0%, 0%, 0%)" stroke-opacity="1" stroke-miterlimit="10" d="M 363.074219 105.847656 L 362.769531 105.769531 L 359.402344 103.34375 Z M 363.074219 105.847656 "/>
<path fill-rule="evenodd" fill="rgb(100%, 0%, 0%)" fill-opacity="1" stroke-width="0.75" stroke-linecap="round" stroke-linejoin="round" stroke="rgb(0%, 0%, 0%)" stroke-opacity="1" stroke-miterlimit="10" d="M 355.535156 195.472656 L 358.578125 195.472656 L 360.539062 195.511719 Z M 355.535156 195.472656 "/>
<path fill-rule="evenodd" fill="rgb(0%, 0%, 100%)" fill-opacity="1" stroke-width="0.75" stroke-linecap="round" stroke-linejoin="round" stroke="rgb(0%, 0%, 0%)" stroke-opacity="1" stroke-miterlimit="10" d="M 275.964844 153.75 L 276.007812 153.75 L 276.007812 154.328125 L 275.875 164.574219 L 276.574219 172.605469 L 276.921875 199.484375 L 276.574219 210.660156 L 275.875 216.941406 L 275.875 236.84375 L 333.480469 236.144531 L 333.480469 195.296875 L 355.535156 195.472656 L 333.597656 195.472656 L 333.417969 277.882812 L 167.835938 278.132812 L 167.6875 273.429688 L 166.789062 272.460938 L 162.085938 269.921875 L 158.503906 266.039062 L 157.535156 263.277344 L 157.617188 262.511719 L 157.9375 163.757812 L 157.9375 161.21875 L 157.300781 158.359375 L 156.667969 156.136719 L 155.078125 153.914062 Z M 275.964844 153.75 "/>
<path fill-rule="evenodd" fill="rgb(0%, 0%, 100%)" fill-opacity="1" stroke-width="0.75" stroke-linecap="round" stroke-linejoin="round" stroke="rgb(0%, 0%, 0%)" stroke-opacity="1" stroke-miterlimit="10" d="M 331.777344 86.445312 L 343.082031 92.824219 L 347.140625 95.183594 L 340.8125 91.605469 L 331.710938 86.566406 Z M 331.777344 86.445312 "/>
<path fill-rule="evenodd" fill="rgb(0%, 0%, 100%)" fill-opacity="1" stroke-width="0.75" stroke-linecap="round" stroke-linejoin="round" stroke="rgb(0%, 0%, 0%)" stroke-opacity="1" stroke-miterlimit="10" d="M 358.214844 102.488281 L 359.402344 103.34375 L 353.015625 98.992188 Z M 358.214844 102.488281 "/>
<path fill-rule="evenodd" fill="rgb(0%, 0%, 100%)" fill-opacity="1" stroke-width="0.75" stroke-linecap="round" stroke-linejoin="round" stroke="rgb(0%, 0%, 0%)" stroke-opacity="1" stroke-miterlimit="10" d="M 369.152344 107.410156 L 373.710938 108.503906 L 373.527344 120.902344 L 373.527344 132.9375 L 373.894531 139.5 L 374.441406 148.796875 L 375.898438 169.035156 L 376.808594 189.820312 L 377.722656 195.835938 L 373.164062 195.835938 L 367.511719 195.65625 L 360.539062 195.511719 L 377.121094 195.644531 L 375.375 163.527344 L 372.933594 134.898438 L 373.28125 123.027344 L 372.933594 108.714844 L 364.203125 106.617188 L 363.074219 105.847656 Z M 369.152344 107.410156 "/>
<path fill-rule="evenodd" fill="rgb(62.745098%, 12.54902%, 94.117647%)" fill-opacity="1" stroke-width="0.75" stroke-linecap="round" stroke-linejoin="round" stroke="rgb(0%, 0%, 0%)" stroke-opacity="1" stroke-miterlimit="10" d="M 302.421875 153.902344 L 302.421875 140.777344 L 331.710938 86.566406 L 340.8125 91.605469 L 347.140625 95.183594 L 348.730469 96.105469 L 353.015625 98.992188 L 359.402344 103.34375 L 362.769531 105.769531 L 363.074219 105.847656 L 364.203125 106.617188 L 372.933594 108.714844 L 373.28125 123.027344 L 372.933594 134.898438 L 375.375 163.527344 L 377.121094 195.644531 L 360.539062 195.511719 L 358.578125 195.472656 L 355.535156 195.472656 L 333.480469 195.296875 L 333.480469 236.144531 L 275.875 236.84375 L 275.875 216.941406 L 276.574219 210.660156 L 276.921875 199.484375 L 276.574219 172.605469 L 275.875 164.574219 L 276.007812 154.328125 L 276.007812 153.75 Z M 302.421875 153.902344 "/>
</svg>
