<?xml version="1.0" encoding="UTF-8"?>
<svg xmlns="http://www.w3.org/2000/svg" xmlns:xlink="http://www.w3.org/1999/xlink" width="504pt" height="360pt" viewBox="0 0 504 360">
<defs>
<clipPath id="clip-0">
<path clip-rule="nonzero" d="M 59.039062 59.039062 L 473.757812 59.039062 L 473.757812 286.558594 L 59.039062 286.558594 Z M 59.039062 59.039062 "/>
</clipPath>
</defs>
<rect x="-50.4" y="-36" width="604.8" height="432" fill="rgb(100%, 100%, 100%)" fill-opacity="1"/>
<g clip-path="url(#clip-0)">
<path fill-rule="nonzero" fill="rgb(100%, 100%, 100%)" fill-opacity="1" stroke-width="0.75" stroke-linecap="round" stroke-linejoin="round" stroke="rgb(100%, 100%, 100%)" stroke-opacity="1" stroke-miterlimit="10" d="M 59.039062 286.558594 L 473.757812 286.558594 L 473.757812 59.039062 L 59.039062 59.039062 Z M 59.039062 286.558594 "/>
</g>
<path fill="none" stroke-width="0.75" stroke-linecap="round" stroke-linejoin="round" stroke="rgb(0%, 0%, 0%)" stroke-opacity="1" stroke-miterlimit="10" d="M 120.304688 68.011719 L 120.308594 89.921875 L 120.320312 112.089844 L 120.316406 134.097656 L 120.3125 148.550781 L 120.316406 156.230469 L 120.3125 161.15625 L 120.316406 180.738281 L 120.3125 205.164062 L 120.304688 227.160156 L 120.304688 244.230469 "/>
<path fill="none" stroke-width="0.75" stroke-linecap="round" stroke-linejoin="round" stroke="rgb(0%, 0%, 0%)" stroke-opacity="1" stroke-miterlimit="10" d="M 377.417969 204.003906 L 367.0625 223.351562 "/>
<path fill="none" stroke-width="0.75" stroke-linecap="round" stroke-linejoin="round" stroke="rgb(0%, 0%, 0%)" stroke-opacity="1" stroke-miterlimit="10" d="M 380.808594 158.019531 L 370.738281 176.421875 L 360.648438 194.847656 "/>
<path fill="none" stroke-width="0.75" stroke-linecap="round" stroke-linejoin="round" stroke="rgb(0%, 0%, 0%)" stroke-opacity="1" stroke-miterlimit="10" d="M 394.867188 145.574219 L 386.566406 161.128906 "/>
<path fill="none" stroke-width="0.75" stroke-linecap="round" stroke-linejoin="round" stroke="rgb(0%, 0%, 0%)" stroke-opacity="1" stroke-miterlimit="10" d="M 408.613281 144.59375 L 396.839844 166.664062 "/>
<path fill="none" stroke-width="0.75" stroke-linecap="round" stroke-linejoin="round" stroke="rgb(0%, 0%, 0%)" stroke-opacity="1" stroke-miterlimit="10" d="M 208.339844 67.464844 L 208.339844 67.703125 L 208.335938 89.714844 L 208.332031 111.722656 L 208.316406 133.742188 L 208.304688 148.667969 L 208.304688 151.265625 L 208.292969 155.875 "/>
<path fill="none" stroke-width="0.75" stroke-linecap="round" stroke-linejoin="round" stroke="rgb(0%, 0%, 0%)" stroke-opacity="1" stroke-miterlimit="10" d="M 195.457031 67.464844 L 195.335938 67.726562 L 195.332031 89.761719 L 195.316406 111.78125 L 195.300781 133.789062 L 195.296875 144.929688 L 195.296875 155.933594 "/>
<path fill="none" stroke-width="0.75" stroke-linecap="round" stroke-linejoin="round" stroke="rgb(0%, 0%, 0%)" stroke-opacity="1" stroke-miterlimit="10" d="M 183.441406 67.464844 L 183.441406 67.753906 "/>
<path fill="none" stroke-width="0.75" stroke-linecap="round" stroke-linejoin="round" stroke="rgb(0%, 0%, 0%)" stroke-opacity="1" stroke-miterlimit="10" d="M 431 74.292969 L 423.644531 88.09375 L 408.53125 116.480469 "/>
<path fill="none" stroke-width="0.75" stroke-linecap="round" stroke-linejoin="round" stroke="rgb(0%, 0%, 0%)" stroke-opacity="1" stroke-miterlimit="10" d="M 411.039062 117.820312 L 405.933594 127.378906 "/>
<path fill="none" stroke-width="0.75" stroke-linecap="round" stroke-linejoin="round" stroke="rgb(0%, 0%, 0%)" stroke-opacity="1" stroke-miterlimit="10" d="M 386.644531 209.042969 L 383.691406 214.554688 L 376.269531 228.097656 L 366.554688 246.257812 L 356.828125 264.441406 L 356.039062 265.886719 L 352.859375 271.710938 L 349.355469 278.132812 "/>
<path fill="none" stroke-width="0.75" stroke-linecap="round" stroke-linejoin="round" stroke="rgb(0%, 0%, 0%)" stroke-opacity="1" stroke-miterlimit="10" d="M 281.898438 67.464844 L 281.9375 67.628906 "/>
<path fill="none" stroke-width="0.75" stroke-linecap="round" stroke-linejoin="round" stroke="rgb(0%, 0%, 0%)" stroke-opacity="1" stroke-miterlimit="10" d="M 258.746094 67.464844 L 258.746094 111.652344 L 258.738281 132.75 L 258.730469 148.71875 L 258.730469 155.683594 L 258.726562 161.386719 L 258.710938 180.167969 L 258.714844 193.28125 L 258.699219 204.675781 L 258.695312 216.285156 L 258.6875 226.671875 L 258.683594 238.332031 L 258.675781 243.839844 L 258.667969 267.960938 L 258.664062 278.132812 "/>
<path fill="none" stroke-width="0.75" stroke-linecap="round" stroke-linejoin="round" stroke="rgb(0%, 0%, 0%)" stroke-opacity="1" stroke-miterlimit="10" d="M 284.449219 155.585938 L 284.445312 161.472656 L 284.441406 180.167969 L 284.433594 193.164062 L 284.417969 205.199219 L 284.417969 216.214844 L 284.40625 227.21875 L 284.40625 238.238281 L 284.386719 269.660156 L 284.246094 278.132812 "/>
<path fill="none" stroke-width="0.75" stroke-linecap="round" stroke-linejoin="round" stroke="rgb(0%, 0%, 0%)" stroke-opacity="1" stroke-miterlimit="10" d="M 233.574219 67.464844 L 233.574219 111.699219 L 233.582031 133.683594 L 233.578125 148.695312 L 233.578125 155.777344 L 233.53125 161.007812 L 233.511719 164.027344 L 233.375 180.273438 L 233.363281 204.785156 L 233.359375 226.792969 L 233.347656 243.914062 "/>
<path fill="none" stroke-width="0.75" stroke-linecap="round" stroke-linejoin="round" stroke="rgb(0%, 0%, 0%)" stroke-opacity="1" stroke-miterlimit="10" d="M 154.15625 156.089844 L 154.152344 161.210938 L 154.144531 180.597656 L 154.140625 205.105469 L 154.136719 227.019531 L 154.125 244.136719 "/>
<path fill="none" stroke-width="0.75" stroke-linecap="round" stroke-linejoin="round" stroke="rgb(0%, 0%, 0%)" stroke-opacity="1" stroke-miterlimit="10" d="M 143.148438 156.128906 L 143.144531 161.117188 L 143.136719 180.636719 L 143.132812 205.160156 L 143.117188 227.058594 L 143.109375 243.171875 L 142.519531 244.164062 L 142.492188 266.769531 L 142.476562 278.132812 "/>
<path fill="none" stroke-width="0.75" stroke-linecap="round" stroke-linejoin="round" stroke="rgb(0%, 0%, 0%)" stroke-opacity="1" stroke-miterlimit="10" d="M 406.3125 67.464844 L 402.183594 74.980469 L 387.71875 101.960938 L 379.082031 118.074219 L 362.902344 148.214844 L 352.824219 166.640625 L 342.742188 185.066406 "/>
<path fill="none" stroke-width="0.75" stroke-linecap="round" stroke-linejoin="round" stroke="rgb(0%, 0%, 0%)" stroke-opacity="1" stroke-miterlimit="10" d="M 355.578125 84.542969 L 364.695312 67.464844 "/>
<path fill="none" stroke-width="0.75" stroke-linecap="round" stroke-linejoin="round" stroke="rgb(0%, 0%, 0%)" stroke-opacity="1" stroke-miterlimit="10" d="M 363.183594 67.464844 L 354.40625 83.921875 L 336.480469 117.417969 L 336.046875 118.050781 L 335.582031 118.375 L 334.972656 118.554688 L 333.824219 118.550781 L 333.390625 118.492188 L 333.066406 118.378906 L 332.792969 118.183594 "/>
<path fill="none" stroke-width="0.75" stroke-linecap="round" stroke-linejoin="round" stroke="rgb(0%, 0%, 0%)" stroke-opacity="1" stroke-miterlimit="10" d="M 145.613281 67.464844 L 145.757812 67.894531 L 145.691406 89.804688 L 145.625 111.984375 L 145.558594 133.992188 L 145.515625 148.515625 L 145.492188 156.125 "/>
<path fill="none" stroke-width="0.75" stroke-linecap="round" stroke-linejoin="round" stroke="rgb(0%, 0%, 0%)" stroke-opacity="1" stroke-miterlimit="10" d="M 318.859375 67.464844 L 318.867188 68.996094 L 318.945312 83.917969 L 319.011719 96.585938 L 319.113281 114.578125 L 319.210938 132.585938 L 319.273438 143.203125 L 319.296875 148.746094 L 319.339844 155.445312 "/>
<path fill="none" stroke-width="0.75" stroke-linecap="round" stroke-linejoin="round" stroke="rgb(0%, 0%, 0%)" stroke-opacity="1" stroke-miterlimit="10" d="M 291.003906 95.328125 L 291.113281 114.667969 L 291.210938 132.664062 L 291.296875 148.761719 L 291.328125 155.558594 "/>
<path fill="none" stroke-width="0.75" stroke-linecap="round" stroke-linejoin="round" stroke="rgb(0%, 0%, 0%)" stroke-opacity="1" stroke-miterlimit="10" d="M 410.765625 129.964844 L 405.75 139.355469 L 402.726562 145.011719 "/>
<path fill="none" stroke-width="0.75" stroke-linecap="round" stroke-linejoin="round" stroke="rgb(0%, 0%, 0%)" stroke-opacity="1" stroke-miterlimit="10" d="M 348.554688 67.464844 L 342.914062 77.992188 L 336.050781 90.796875 L 332.660156 94.222656 "/>
<path fill="none" stroke-width="0.75" stroke-linecap="round" stroke-linejoin="round" stroke="rgb(0%, 0%, 0%)" stroke-opacity="1" stroke-miterlimit="10" d="M 332.726562 67.464844 L 332.714844 74.179688 L 332.558594 76.519531 L 332.597656 83.871094 L 332.660156 94.222656 L 332.671875 96.539062 L 332.773438 114.546875 L 332.792969 118.183594 L 332.875 132.574219 "/>
<path fill="none" stroke-width="0.75" stroke-linecap="round" stroke-linejoin="round" stroke="rgb(0%, 0%, 0%)" stroke-opacity="1" stroke-miterlimit="10" d="M 397.121094 214.761719 L 386.886719 233.878906 L 378.644531 249.289062 L 377.152344 252.0625 L 366.585938 271.628906 L 365.785156 273.082031 L 363.023438 278.132812 "/>
<path fill="none" stroke-width="0.75" stroke-linecap="round" stroke-linejoin="round" stroke="rgb(0%, 0%, 0%)" stroke-opacity="1" stroke-miterlimit="10" d="M 99.046875 244.300781 L 99.042969 255.21875 L 99.050781 266.222656 L 99.035156 277.238281 L 99.035156 278.132812 "/>
<path fill="none" stroke-width="0.75" stroke-linecap="round" stroke-linejoin="round" stroke="rgb(0%, 0%, 0%)" stroke-opacity="1" stroke-miterlimit="10" d="M 450.105469 142.398438 L 439.382812 162.464844 L 428.128906 183.53125 L 417.714844 203.023438 L 408.210938 220.835938 L 398 239.953125 L 388.285156 258.136719 L 377.570312 278.132812 "/>
<path fill="none" stroke-width="0.75" stroke-linecap="round" stroke-linejoin="round" stroke="rgb(0%, 0%, 0%)" stroke-opacity="1" stroke-miterlimit="10" d="M 271.40625 238.285156 L 271.378906 269.683594 "/>
<path fill="none" stroke-width="0.75" stroke-linecap="round" stroke-linejoin="round" stroke="rgb(0%, 0%, 0%)" stroke-opacity="1" stroke-miterlimit="10" d="M 107.722656 68.070312 L 107.738281 89.980469 L 107.738281 112.136719 L 107.734375 134.15625 L 107.738281 148.511719 L 107.734375 156.277344 L 107.742188 161.410156 L 107.730469 180.785156 L 107.726562 205.222656 L 107.730469 227.207031 L 107.730469 244.277344 "/>
<path fill="none" stroke-width="0.75" stroke-linecap="round" stroke-linejoin="round" stroke="rgb(0%, 0%, 0%)" stroke-opacity="1" stroke-miterlimit="10" d="M 237.5625 243.898438 L 237.535156 266.492188 L 237.523438 278.132812 "/>
<path fill="none" stroke-width="0.75" stroke-linecap="round" stroke-linejoin="round" stroke="rgb(0%, 0%, 0%)" stroke-opacity="1" stroke-miterlimit="10" d="M 121.183594 244.222656 L 121.164062 263.28125 L 121.152344 266.835938 L 121.136719 278.132812 "/>
<path fill="none" stroke-width="0.75" stroke-linecap="round" stroke-linejoin="round" stroke="rgb(0%, 0%, 0%)" stroke-opacity="1" stroke-miterlimit="10" d="M 245.914062 67.464844 L 245.910156 67.632812 L 245.914062 88.003906 L 245.914062 111.675781 L 245.910156 133.671875 L 245.90625 148.730469 L 245.90625 155.730469 L 245.929688 161.105469 L 245.953125 164.273438 L 246.058594 180.214844 L 246.035156 204.722656 L 246.03125 226.734375 L 246.023438 232.894531 L 246.019531 238.40625 L 246.023438 243.875 "/>
<path fill="none" stroke-width="0.75" stroke-linecap="round" stroke-linejoin="round" stroke="rgb(0%, 0%, 0%)" stroke-opacity="1" stroke-miterlimit="10" d="M 365.609375 197.554688 L 355.214844 216.960938 L 345.652344 234.84375 L 339.9375 245.285156 L 333.511719 257.011719 "/>
<path fill="none" stroke-width="0.75" stroke-linecap="round" stroke-linejoin="round" stroke="rgb(0%, 0%, 0%)" stroke-opacity="1" stroke-miterlimit="10" d="M 353.121094 142.945312 L 343.074219 161.3125 L 333.773438 178.308594 "/>
<path fill="none" stroke-width="0.75" stroke-linecap="round" stroke-linejoin="round" stroke="rgb(0%, 0%, 0%)" stroke-opacity="1" stroke-miterlimit="10" d="M 170.941406 67.464844 L 170.941406 67.773438 L 170.875 89.855469 L 170.808594 111.878906 L 170.742188 133.898438 L 170.699219 148.664062 L 170.667969 156.03125 L 170.691406 158.433594 L 170.472656 159.632812 L 170.097656 160.808594 L 169.964844 161.125 L 169.40625 162.175781 L 168.675781 163.171875 L 166.488281 165.992188 L 165.917969 167.019531 L 165.460938 168.246094 L 165.214844 169.394531 L 165.140625 170.730469 "/>
<path fill="none" stroke-width="0.75" stroke-linecap="round" stroke-linejoin="round" stroke="rgb(0%, 0%, 0%)" stroke-opacity="1" stroke-miterlimit="10" d="M 158.289062 67.464844 L 158.429688 67.824219 L 158.363281 89.757812 L 158.296875 111.9375 L 158.230469 133.945312 L 158.1875 148.675781 L 158.164062 156.078125 "/>
<path fill="none" stroke-width="0.75" stroke-linecap="round" stroke-linejoin="round" stroke="rgb(0%, 0%, 0%)" stroke-opacity="1" stroke-miterlimit="10" d="M 441.808594 79.964844 L 436.066406 90.734375 L 431.4375 99.410156 L 426.726562 108.242188 L 421.238281 110.996094 L 420.84375 111.34375 L 420.558594 111.746094 L 418.253906 115.9375 L 415.921875 120.296875 "/>
<path fill="none" stroke-width="0.75" stroke-linecap="round" stroke-linejoin="round" stroke="rgb(0%, 0%, 0%)" stroke-opacity="1" stroke-miterlimit="10" d="M 110.175781 244.273438 L 110.144531 266.863281 L 110.132812 278.132812 "/>
<path fill="none" stroke-width="0.75" stroke-linecap="round" stroke-linejoin="round" stroke="rgb(0%, 0%, 0%)" stroke-opacity="1" stroke-miterlimit="10" d="M 184.753906 244.046875 L 184.726562 266.652344 L 184.714844 278.132812 "/>
<path fill="none" stroke-width="0.75" stroke-linecap="round" stroke-linejoin="round" stroke="rgb(0%, 0%, 0%)" stroke-opacity="1" stroke-miterlimit="10" d="M 209.199219 204.882812 L 209.183594 226.84375 L 209.171875 243.976562 "/>
<path fill="none" stroke-width="0.75" stroke-linecap="round" stroke-linejoin="round" stroke="rgb(0%, 0%, 0%)" stroke-opacity="1" stroke-miterlimit="10" d="M 435.503906 119.039062 L 429.871094 129.570312 L 425.464844 137.820312 L 422.371094 143.597656 L 407.113281 172.203125 "/>
<path fill="none" stroke-width="0.75" stroke-linecap="round" stroke-linejoin="round" stroke="rgb(0%, 0%, 0%)" stroke-opacity="1" stroke-miterlimit="10" d="M 383.363281 67.464844 L 370.125 92.15625 L 359.640625 111.734375 L 345.195312 138.675781 "/>
<path fill="none" stroke-width="0.75" stroke-linecap="round" stroke-linejoin="round" stroke="rgb(0%, 0%, 0%)" stroke-opacity="1" stroke-miterlimit="10" d="M 304.941406 83.976562 L 305.015625 96.632812 L 305.105469 114.625 L 305.207031 132.617188 L 305.292969 148.816406 L 305.332031 155.5 "/>
<path fill="none" stroke-width="0.75" stroke-linecap="round" stroke-linejoin="round" stroke="rgb(0%, 0%, 0%)" stroke-opacity="1" stroke-miterlimit="10" d="M 227.007812 243.929688 L 226.980469 266.523438 L 226.964844 278.132812 "/>
<path fill="none" stroke-width="0.75" stroke-linecap="round" stroke-linejoin="round" stroke="rgb(0%, 0%, 0%)" stroke-opacity="1" stroke-miterlimit="10" d="M 333.664062 156.1875 L 333.691406 161.804688 L 333.722656 167.910156 L 333.773438 178.308594 L 333.789062 180.175781 L 333.855469 192.953125 L 333.578125 205.046875 L 333.414062 216.050781 L 333.25 228.0625 L 333.242188 238.046875 L 333.261719 241.640625 L 333.511719 257.011719 L 333.585938 269.667969 L 333.628906 277.09375 L 333.628906 278.132812 "/>
<path fill="none" stroke-width="0.75" stroke-linecap="round" stroke-linejoin="round" stroke="rgb(0%, 0%, 0%)" stroke-opacity="1" stroke-miterlimit="10" d="M 94.808594 67.464844 L 94.808594 68.128906 L 95.15625 90.027344 L 95.167969 112.183594 L 95.171875 134.203125 L 95.167969 148.535156 L 95.164062 156.335938 L 95.167969 161.429688 L 95.167969 180.84375 L 95.164062 205.28125 L 95.167969 227.265625 L 95.167969 244.324219 "/>
<path fill="none" stroke-width="0.75" stroke-linecap="round" stroke-linejoin="round" stroke="rgb(0%, 0%, 0%)" stroke-opacity="1" stroke-miterlimit="10" d="M 354.628906 191.554688 L 344.246094 210.960938 L 334.683594 228.84375 "/>
<path fill="none" stroke-width="0.75" stroke-linecap="round" stroke-linejoin="round" stroke="rgb(0%, 0%, 0%)" stroke-opacity="1" stroke-miterlimit="10" d="M 391.082031 163.554688 L 380.972656 182.007812 L 370.894531 200.433594 "/>
<path fill="none" stroke-width="0.75" stroke-linecap="round" stroke-linejoin="round" stroke="rgb(0%, 0%, 0%)" stroke-opacity="1" stroke-miterlimit="10" d="M 296.871094 67.464844 L 296.878906 68.664062 L 296.921875 78.324219 L 296.945312 84 L 297.007812 96.644531 "/>
<path fill="none" stroke-width="0.75" stroke-linecap="round" stroke-linejoin="round" stroke="rgb(0%, 0%, 0%)" stroke-opacity="1" stroke-miterlimit="10" d="M 153.074219 244.136719 L 153.046875 266.738281 L 153.035156 278.132812 "/>
<path fill="none" stroke-width="0.75" stroke-linecap="round" stroke-linejoin="round" stroke="rgb(0%, 0%, 0%)" stroke-opacity="1" stroke-miterlimit="10" d="M 132.976562 67.464844 L 133.085938 67.953125 L 133.019531 89.863281 L 132.953125 112.03125 L 132.886719 134.050781 L 132.84375 148.601562 L 132.8125 154.53125 L 132.144531 156.179688 L 132.136719 161.203125 L 132.128906 180.6875 L 132.125 205.199219 L 132.121094 227.109375 L 132.109375 244.191406 L 131.929688 266.796875 L 131.917969 278.132812 "/>
<path fill="none" stroke-width="0.75" stroke-linecap="round" stroke-linejoin="round" stroke="rgb(0%, 0%, 0%)" stroke-opacity="1" stroke-miterlimit="10" d="M 220.871094 67.464844 L 220.871094 88.039062 L 220.867188 89.714844 L 220.863281 111.722656 L 220.871094 132.300781 L 221.160156 133.710938 L 221.15625 148.707031 L 221.152344 154.164062 L 220.722656 155.828125 L 220.71875 161.019531 L 220.710938 180.324219 L 220.699219 204.832031 L 220.6875 226.804688 L 220.675781 243.949219 "/>
<path fill="none" stroke-width="0.75" stroke-linecap="round" stroke-linejoin="round" stroke="rgb(0%, 0%, 0%)" stroke-opacity="1" stroke-miterlimit="10" d="M 187.195312 155.957031 L 187.191406 161.089844 L 187.183594 180.464844 L 187.1875 186.375 L 187.175781 200.632812 L 187.171875 204.976562 L 187.167969 226.910156 L 187.15625 244.042969 "/>
<path fill="none" stroke-width="0.75" stroke-linecap="round" stroke-linejoin="round" stroke="rgb(0%, 0%, 0%)" stroke-opacity="1" stroke-miterlimit="10" d="M 353.121094 142.945312 L 343.074219 161.3125 L 333.773438 178.308594 "/>
<path fill="none" stroke-width="0.75" stroke-linecap="round" stroke-linejoin="round" stroke="rgb(0%, 0%, 0%)" stroke-opacity="1" stroke-miterlimit="10" d="M 336.414062 67.464844 L 336.269531 67.734375 L 332.714844 74.179688 "/>
<path fill="none" stroke-width="0.75" stroke-linecap="round" stroke-linejoin="round" stroke="rgb(0%, 0%, 0%)" stroke-opacity="1" stroke-miterlimit="10" d="M 248.125 243.871094 L 248.097656 266.460938 L 248.085938 278.132812 "/>
<path fill="none" stroke-width="0.75" stroke-linecap="round" stroke-linejoin="round" stroke="rgb(0%, 0%, 0%)" stroke-opacity="1" stroke-miterlimit="10" d="M 205.878906 243.988281 L 205.855469 266.59375 L 205.835938 278.132812 "/>
<path fill="none" stroke-width="0.75" stroke-linecap="round" stroke-linejoin="round" stroke="rgb(0%, 0%, 0%)" stroke-opacity="1" stroke-miterlimit="10" d="M 176.167969 180.507812 L 176.171875 186.476562 L 176.164062 205.015625 L 176.152344 226.953125 L 176.140625 239.824219 L 175.160156 244.066406 L 174.1875 248.300781 L 174.15625 255.941406 L 173.980469 256.5625 L 173.699219 257.058594 L 173.332031 257.433594 L 171.359375 259.039062 L 172.152344 260.777344 L 172.8125 262.601562 L 173.460938 264.917969 L 173.800781 266.679688 L 174.027344 268.441406 L 174.164062 269.847656 L 174.152344 278.132812 "/>
<path fill="none" stroke-width="0.75" stroke-linecap="round" stroke-linejoin="round" stroke="rgb(0%, 0%, 0%)" stroke-opacity="1" stroke-miterlimit="10" d="M 365.742188 222.707031 L 356.179688 240.589844 L 351.945312 248.339844 L 349.0625 253.609375 L 346.304688 258.675781 L 339.929688 270.339844 L 335.683594 278.132812 "/>
<path fill="none" stroke-width="0.75" stroke-linecap="round" stroke-linejoin="round" stroke="rgb(0%, 0%, 0%)" stroke-opacity="1" stroke-miterlimit="10" d="M 343.652344 185.554688 L 340.746094 190.992188 L 336.644531 199.050781 L 333.578125 205.046875 "/>
<path fill="none" stroke-width="0.75" stroke-linecap="round" stroke-linejoin="round" stroke="rgb(0%, 0%, 0%)" stroke-opacity="1" stroke-miterlimit="10" d="M 418.417969 67.707031 L 411.75 80.199219 L 411.058594 81.496094 L 396.097656 109.503906 L 390.863281 119.320312 L 388.75 123.292969 L 385.847656 128.71875 L 376.121094 146.917969 L 373.1875 152.40625 L 371.945312 153.238281 L 361.898438 171.589844 L 351.816406 190.019531 "/>
<path fill="none" stroke-width="0.75" stroke-linecap="round" stroke-linejoin="round" stroke="rgb(0%, 0%, 0%)" stroke-opacity="1" stroke-miterlimit="10" d="M 438.652344 138.472656 L 436.207031 142.617188 L 415.875 176.933594 "/>
<path fill="none" stroke-width="0.75" stroke-linecap="round" stroke-linejoin="round" stroke="rgb(0%, 0%, 0%)" stroke-opacity="1" stroke-miterlimit="10" d="M 182.492188 67.75 L 182.488281 89.808594 L 182.480469 111.828125 L 182.464844 133.847656 L 182.460938 148.699219 L 182.460938 155.980469 "/>
<path fill="none" stroke-width="0.75" stroke-linecap="round" stroke-linejoin="round" stroke="rgb(0%, 0%, 0%)" stroke-opacity="1" stroke-miterlimit="10" d="M 395.351562 67.464844 L 393.710938 70.539062 L 379.726562 96.625 L 354.503906 143.6875 "/>
<path fill="none" stroke-width="0.75" stroke-linecap="round" stroke-linejoin="round" stroke="rgb(0%, 0%, 0%)" stroke-opacity="1" stroke-miterlimit="10" d="M 307.84375 67.464844 L 307.84375 68.601562 L 307.941406 83.960938 "/>
<path fill="none" stroke-width="0.75" stroke-linecap="round" stroke-linejoin="round" stroke="rgb(0%, 0%, 0%)" stroke-opacity="1" stroke-miterlimit="10" d="M 163.605469 261.964844 L 163.597656 264.234375 L 163.601562 266.710938 "/>
<path fill="none" stroke-width="0.75" stroke-linecap="round" stroke-linejoin="round" stroke="rgb(0%, 0%, 0%)" stroke-opacity="1" stroke-miterlimit="10" d="M 377.269531 278.132812 L 372.964844 275.796875 L 372.148438 275.355469 L 371.988281 275.273438 L 371.886719 275.210938 L 371.324219 274.90625 L 368.480469 273.371094 L 365.785156 273.082031 L 352.859375 271.710938 L 339.929688 270.339844 L 333.585938 269.667969 L 332.851562 269.59375 L 321.578125 269.609375 L 309.742188 269.625 L 297.898438 269.640625 L 284.386719 269.660156 L 271.378906 269.683594 L 267.8125 269.6875 L 265.902344 269.621094 L 263.714844 269.359375 L 261.5625 268.902344 L 260.726562 268.671875 L 258.667969 267.960938 L 255.730469 267.152344 L 254.027344 266.808594 L 252.652344 266.609375 L 250.472656 266.46875 L 248.097656 266.460938 L 237.535156 266.492188 L 226.980469 266.523438 L 216.417969 266.5625 L 205.855469 266.59375 L 195.289062 266.621094 L 184.726562 266.652344 L 173.800781 266.679688 L 163.601562 266.710938 L 153.046875 266.738281 L 142.492188 266.769531 L 131.929688 266.796875 L 121.152344 266.835938 L 110.144531 266.863281 L 99.050781 266.222656 L 82.695312 266.269531 "/>
<path fill="none" stroke-width="0.75" stroke-linecap="round" stroke-linejoin="round" stroke="rgb(0%, 0%, 0%)" stroke-opacity="1" stroke-miterlimit="10" d="M 450.105469 141.9375 L 447.800781 141.386719 L 443.007812 140.246094 L 441.273438 139.671875 L 439.589844 138.949219 L 438.652344 138.472656 L 437.21875 137.621094 L 435.726562 136.5625 L 434.074219 135.113281 L 432.828125 133.789062 L 431.691406 132.351562 L 429.871094 129.570312 L 428.734375 128 L 427.859375 127.027344 L 426.710938 126.019531 L 425.460938 125.164062 L 415.921875 120.296875 L 411.039062 117.820312 L 408.53125 116.480469 L 396.984375 110.308594 L 396.097656 109.503906 L 387.71875 101.960938 L 385.511719 100.035156 L 384.152344 99.0625 L 382.710938 98.222656 L 379.726562 96.625 L 370.125 92.15625 L 361.625 87.714844 L 360.738281 87.238281 L 355.578125 84.542969 L 354.40625 83.921875 L 343.769531 78.3125 L 342.914062 77.992188 L 332.714844 74.179688 L 318.867188 68.996094 L 317.777344 68.578125 L 307.84375 68.601562 L 300.796875 68.652344 L 296.878906 68.664062 L 281.9375 67.628906 L 280.542969 67.550781 L 258.746094 67.609375 L 245.910156 67.632812 L 233.574219 67.65625 L 220.871094 67.679688 L 208.339844 67.703125 L 195.335938 67.726562 L 183.441406 67.753906 L 182.492188 67.75 L 170.941406 67.773438 L 158.429688 67.824219 L 155.683594 67.839844 L 145.757812 67.894531 L 133.085938 67.953125 L 120.304688 68.011719 L 119.203125 68.019531 L 107.722656 68.070312 L 106.984375 68.066406 L 94.808594 68.128906 L 82.695312 68.1875 "/>
<path fill="none" stroke-width="0.75" stroke-linecap="round" stroke-linejoin="round" stroke="rgb(0%, 0%, 0%)" stroke-opacity="1" stroke-miterlimit="10" d="M 424.898438 278.132812 L 421.753906 276.417969 L 410.78125 270.429688 L 405.476562 267.539062 L 399.8125 264.429688 L 388.285156 258.136719 L 384.414062 256.015625 L 383.464844 255.492188 L 383.121094 255.308594 L 382.960938 255.210938 L 382.832031 255.136719 L 382.488281 254.953125 L 377.960938 252.464844 L 377.152344 252.0625 L 372.183594 249.34375 L 371.304688 248.855469 L 366.554688 246.257812 L 356.179688 240.589844 L 345.652344 234.84375 L 334.683594 228.84375 L 333.25 228.0625 L 331.050781 227.050781 L 284.40625 227.21875 L 260.019531 227.308594 L 258.6875 226.671875 L 246.03125 226.734375 L 233.359375 226.792969 L 220.6875 226.804688 L 209.183594 226.84375 L 198.175781 226.882812 L 187.167969 226.910156 L 176.152344 226.953125 L 165.132812 226.980469 L 154.136719 227.019531 L 143.117188 227.058594 L 132.121094 227.109375 L 120.304688 227.160156 L 107.730469 227.207031 L 95.167969 227.265625 L 82.695312 227.308594 "/>
<path fill="none" stroke-width="0.75" stroke-linecap="round" stroke-linejoin="round" stroke="rgb(0%, 0%, 0%)" stroke-opacity="1" stroke-miterlimit="10" d="M 332.671875 96.539062 L 319.011719 96.585938 L 305.015625 96.632812 L 297.007812 96.644531 L 293.394531 96.660156 L 291.003906 95.328125 L 284.945312 91.988281 L 283.777344 91.546875 L 282.546875 91.300781 L 281.445312 91.238281 L 280.191406 91.355469 L 276 92.410156 L 273.382812 93.046875 L 272.078125 93.1875 L 270.757812 93.148438 L 269.464844 92.914062 L 268.355469 92.570312 L 267.609375 92.253906 L 258.746094 87.980469 L 245.914062 88.003906 L 233.574219 88.015625 L 220.871094 88.039062 "/>
<path fill="none" stroke-width="0.75" stroke-linecap="round" stroke-linejoin="round" stroke="rgb(0%, 0%, 0%)" stroke-opacity="1" stroke-miterlimit="10" d="M 405.75 139.355469 L 385.847656 128.71875 "/>
<path fill="none" stroke-width="0.75" stroke-linecap="round" stroke-linejoin="round" stroke="rgb(0%, 0%, 0%)" stroke-opacity="1" stroke-miterlimit="10" d="M 450.105469 243.710938 L 447.902344 242.503906 L 442.113281 239.34375 L 431.140625 233.359375 L 420.160156 227.359375 L 408.210938 220.835938 L 397.121094 214.761719 L 386.644531 209.042969 L 377.417969 204.003906 L 370.894531 200.433594 L 365.609375 197.554688 L 360.648438 194.847656 L 354.628906 191.554688 L 351.816406 190.019531 L 343.652344 185.554688 L 342.742188 185.066406 L 337.257812 182.078125 L 333.789062 180.175781 L 333.277344 179.96875 L 313.605469 180.046875 L 297.234375 180.121094 L 284.441406 180.167969 L 272.203125 180.21875 L 258.710938 180.167969 L 246.058594 180.214844 L 233.375 180.273438 L 220.710938 180.324219 L 214.710938 180.355469 "/>
<path fill="none" stroke-width="0.75" stroke-linecap="round" stroke-linejoin="round" stroke="rgb(0%, 0%, 0%)" stroke-opacity="1" stroke-miterlimit="10" d="M 258.746094 111.652344 L 245.914062 111.675781 L 233.574219 111.699219 L 220.863281 111.722656 L 208.332031 111.722656 L 195.316406 111.78125 L 182.480469 111.828125 L 170.808594 111.878906 L 158.296875 111.9375 L 132.953125 112.03125 L 120.320312 112.089844 L 107.738281 112.136719 L 95.167969 112.183594 L 82.695312 112.242188 "/>
<path fill="none" stroke-width="0.75" stroke-linecap="round" stroke-linejoin="round" stroke="rgb(0%, 0%, 0%)" stroke-opacity="1" stroke-miterlimit="10" d="M 366.585938 271.628906 L 361.332031 268.761719 L 360.433594 268.273438 L 356.039062 265.886719 "/>
<path fill="none" stroke-width="0.75" stroke-linecap="round" stroke-linejoin="round" stroke="rgb(0%, 0%, 0%)" stroke-opacity="1" stroke-miterlimit="10" d="M 187.183594 180.464844 L 176.167969 180.507812 L 165.152344 180.546875 L 154.144531 180.597656 L 143.136719 180.636719 L 132.128906 180.6875 L 120.316406 180.738281 L 107.730469 180.785156 L 95.167969 180.84375 L 82.695312 180.902344 "/>
<path fill="none" stroke-width="0.75" stroke-linecap="round" stroke-linejoin="round" stroke="rgb(0%, 0%, 0%)" stroke-opacity="1" stroke-miterlimit="10" d="M 356.828125 264.441406 L 346.304688 258.675781 L 341.027344 255.796875 "/>
<path fill="none" stroke-width="0.75" stroke-linecap="round" stroke-linejoin="round" stroke="rgb(0%, 0%, 0%)" stroke-opacity="1" stroke-miterlimit="10" d="M 220.867188 89.714844 L 208.335938 89.714844 L 195.332031 89.761719 L 182.488281 89.808594 L 170.875 89.855469 L 158.363281 89.757812 L 145.691406 89.804688 L 133.019531 89.863281 L 120.308594 89.921875 L 107.738281 89.980469 L 95.15625 90.027344 L 82.695312 90.242188 "/>
<path fill="none" stroke-width="0.75" stroke-linecap="round" stroke-linejoin="round" stroke="rgb(0%, 0%, 0%)" stroke-opacity="1" stroke-miterlimit="10" d="M 388.75 123.292969 L 379.082031 118.074219 "/>
<path fill="none" stroke-width="0.75" stroke-linecap="round" stroke-linejoin="round" stroke="rgb(0%, 0%, 0%)" stroke-opacity="1" stroke-miterlimit="10" d="M 332.773438 114.546875 L 319.113281 114.578125 L 305.105469 114.625 L 291.113281 114.667969 L 276.117188 114.710938 "/>
<path fill="none" stroke-width="0.75" stroke-linecap="round" stroke-linejoin="round" stroke="rgb(0%, 0%, 0%)" stroke-opacity="1" stroke-miterlimit="10" d="M 450.105469 268.398438 L 443.246094 264.65625 L 437.648438 261.609375 L 431.691406 258.351562 L 420.707031 252.355469 L 415.332031 249.425781 L 409.738281 246.367188 L 398 239.953125 L 386.886719 233.878906 L 376.269531 228.097656 L 367.0625 223.351562 L 365.742188 222.707031 L 355.214844 216.960938 L 344.246094 210.960938 L 333.578125 205.046875 L 306.757812 205.128906 L 284.417969 205.199219 L 271.734375 205.234375 L 258.699219 204.675781 L 246.035156 204.722656 L 233.363281 204.785156 L 220.699219 204.832031 L 209.199219 204.882812 L 198.191406 204.921875 L 187.171875 204.976562 L 176.164062 205.015625 L 165.136719 205.054688 L 154.140625 205.105469 L 143.132812 205.160156 L 132.125 205.199219 L 120.3125 205.164062 L 107.726562 205.222656 L 95.164062 205.28125 L 85.382812 200.75 L 82.695312 200.71875 "/>
<path fill="none" stroke-width="0.75" stroke-linecap="round" stroke-linejoin="round" stroke="rgb(0%, 0%, 0%)" stroke-opacity="1" stroke-miterlimit="10" d="M 425.464844 137.820312 L 410.765625 129.964844 L 405.933594 127.378906 L 390.863281 119.320312 "/>
<path fill="none" stroke-width="0.75" stroke-linecap="round" stroke-linejoin="round" stroke="rgb(0%, 0%, 0%)" stroke-opacity="1" stroke-miterlimit="10" d="M 450.105469 195.386719 L 447.125 193.773438 L 440.429688 190.164062 L 428.128906 183.53125 L 415.875 176.933594 L 407.113281 172.203125 L 396.839844 166.664062 L 391.082031 163.554688 L 386.566406 161.128906 L 380.808594 158.019531 L 371.945312 153.238281 L 362.902344 148.214844 L 354.503906 143.6875 L 353.121094 142.945312 L 345.195312 138.675781 L 336.828125 134.1875 L 334.871094 133.125 L 333.863281 132.761719 L 332.875 132.574219 L 319.210938 132.585938 L 305.207031 132.617188 L 291.210938 132.664062 L 276.207031 132.703125 L 258.738281 132.75 L 257.917969 132.820312 L 252.917969 133.621094 L 252.082031 133.667969 L 245.910156 133.671875 L 233.582031 133.683594 L 221.160156 133.710938 L 208.316406 133.742188 L 195.300781 133.789062 L 182.464844 133.847656 L 170.742188 133.898438 L 158.230469 133.945312 L 145.558594 133.992188 L 132.886719 134.050781 L 120.316406 134.097656 L 107.734375 134.15625 L 95.171875 134.203125 L 82.695312 134.25 "/>
<path fill="none" stroke-width="0.75" stroke-linecap="round" stroke-linejoin="round" stroke="rgb(0%, 0%, 0%)" stroke-opacity="1" stroke-miterlimit="10" d="M 216.445312 243.960938 L 216.417969 266.5625 L 216.40625 278.132812 "/>
<path fill="none" stroke-width="0.75" stroke-linecap="round" stroke-linejoin="round" stroke="rgb(0%, 0%, 0%)" stroke-opacity="1" stroke-miterlimit="10" d="M 297.734375 238.191406 L 297.898438 269.640625 L 297.941406 278.132812 "/>
<path fill="none" stroke-width="0.75" stroke-linecap="round" stroke-linejoin="round" stroke="rgb(0%, 0%, 0%)" stroke-opacity="1" stroke-miterlimit="10" d="M 198.191406 204.921875 L 198.175781 226.882812 L 198.164062 244.003906 "/>
<path fill="none" stroke-width="0.75" stroke-linecap="round" stroke-linejoin="round" stroke="rgb(0%, 0%, 0%)" stroke-opacity="1" stroke-miterlimit="10" d="M 313.605469 180.046875 L 313.679688 193.039062 "/>
<path fill="none" stroke-width="0.75" stroke-linecap="round" stroke-linejoin="round" stroke="rgb(0%, 0%, 0%)" stroke-opacity="1" stroke-miterlimit="10" d="M 333.722656 167.910156 L 297.167969 168.035156 "/>
<path fill="none" stroke-width="0.75" stroke-linecap="round" stroke-linejoin="round" stroke="rgb(0%, 0%, 0%)" stroke-opacity="1" stroke-miterlimit="10" d="M 447.800781 141.386719 L 436.207031 142.617188 L 422.371094 143.597656 L 408.613281 144.59375 L 402.726562 145.011719 L 394.867188 145.574219 L 376.121094 146.917969 "/>
<path fill="none" stroke-width="0.75" stroke-linecap="round" stroke-linejoin="round" stroke="rgb(0%, 0%, 0%)" stroke-opacity="1" stroke-miterlimit="10" d="M 276 92.410156 L 276.117188 114.710938 L 276.207031 132.703125 L 276.289062 148.828125 L 276.332031 155.613281 "/>
<path fill="none" stroke-width="0.75" stroke-linecap="round" stroke-linejoin="round" stroke="rgb(0%, 0%, 0%)" stroke-opacity="1" stroke-miterlimit="10" d="M 171.359375 259.039062 L 170.96875 258.214844 L 167.894531 252.355469 L 167.121094 250.597656 L 166.460938 248.773438 L 165.929688 246.914062 L 165.394531 244.097656 L 165.277344 243.152344 L 165.140625 241.222656 L 165.132812 226.980469 L 165.136719 205.054688 L 165.152344 180.546875 L 165.140625 170.730469 "/>
<path fill="none" stroke-width="0.75" stroke-linecap="round" stroke-linejoin="round" stroke="rgb(0%, 0%, 0%)" stroke-opacity="1" stroke-miterlimit="10" d="M 163.601562 266.710938 L 163.585938 278.132812 "/>
<path fill="none" stroke-width="0.75" stroke-linecap="round" stroke-linejoin="round" stroke="rgb(0%, 0%, 0%)" stroke-opacity="1" stroke-miterlimit="10" d="M 450.105469 220.289062 L 440.804688 215.609375 L 429.792969 209.632812 L 417.714844 203.023438 L 416.535156 202.378906 L 415.246094 200.3125 L 414.027344 198.609375 L 412.269531 196.445312 L 410.859375 194.902344 L 409.359375 193.429688 L 407.253906 191.589844 L 405.027344 189.910156 L 402.6875 188.398438 L 400.863281 187.363281 L 398.351562 186.144531 L 396.414062 185.335938 L 393.769531 184.421875 L 391.078125 183.695312 L 388.339844 183.167969 L 386.261719 182.894531 L 384.171875 182.730469 L 382.191406 182.675781 L 380.972656 182.007812 L 370.738281 176.421875 L 361.898438 171.589844 L 352.824219 166.640625 L 343.074219 161.3125 L 333.664062 156.1875 L 332.234375 155.40625 L 319.339844 155.445312 L 305.332031 155.5 L 297.09375 155.539062 L 291.328125 155.558594 L 284.449219 155.585938 L 276.332031 155.613281 L 272.210938 155.636719 L 258.730469 155.683594 L 245.90625 155.730469 L 233.578125 155.777344 L 220.722656 155.828125 L 208.292969 155.875 L 195.296875 155.933594 L 187.195312 155.957031 L 182.460938 155.980469 L 170.667969 156.03125 L 164.09375 156.058594 L 158.164062 156.078125 L 154.15625 156.089844 L 145.492188 156.125 L 143.148438 156.128906 L 132.144531 156.179688 L 120.316406 156.230469 L 107.734375 156.277344 L 95.164062 156.335938 L 82.695312 156.367188 "/>
<path fill="none" stroke-width="0.75" stroke-linecap="round" stroke-linejoin="round" stroke="rgb(0%, 0%, 0%)" stroke-opacity="1" stroke-miterlimit="10" d="M 339.9375 245.285156 L 333.261719 241.640625 "/>
<path fill="none" stroke-width="0.75" stroke-linecap="round" stroke-linejoin="round" stroke="rgb(0%, 0%, 0%)" stroke-opacity="1" stroke-miterlimit="10" d="M 306.710938 193.070312 L 306.757812 205.128906 "/>
<path fill="none" stroke-width="0.75" stroke-linecap="round" stroke-linejoin="round" stroke="rgb(0%, 0%, 0%)" stroke-opacity="1" stroke-miterlimit="10" d="M 297.09375 155.539062 L 297.136719 161.628906 L 297.167969 168.035156 L 297.234375 180.121094 "/>
<path fill="none" stroke-width="0.75" stroke-linecap="round" stroke-linejoin="round" stroke="rgb(0%, 0%, 0%)" stroke-opacity="1" stroke-miterlimit="10" d="M 332.597656 83.871094 L 318.945312 83.917969 L 307.941406 83.960938 L 304.941406 83.976562 L 296.945312 84 "/>
<path fill="none" stroke-width="0.75" stroke-linecap="round" stroke-linejoin="round" stroke="rgb(0%, 0%, 0%)" stroke-opacity="1" stroke-miterlimit="10" d="M 195.316406 244.019531 L 195.289062 266.621094 L 195.277344 278.132812 "/>
<path fill="none" stroke-width="0.75" stroke-linecap="round" stroke-linejoin="round" stroke="rgb(0%, 0%, 0%)" stroke-opacity="1" stroke-miterlimit="10" d="M 258.675781 243.839844 L 248.125 243.871094 L 246.023438 243.875 L 237.5625 243.898438 L 233.347656 243.914062 L 227.007812 243.929688 L 220.675781 243.949219 L 216.445312 243.960938 L 209.171875 243.976562 L 205.878906 243.988281 L 198.164062 244.003906 L 195.316406 244.019531 L 187.15625 244.042969 L 184.753906 244.046875 L 175.160156 244.066406 L 165.394531 244.097656 L 154.125 244.136719 L 153.074219 244.136719 L 142.519531 244.164062 L 132.109375 244.191406 L 121.183594 244.222656 L 120.304688 244.230469 L 110.175781 244.273438 L 107.730469 244.277344 L 99.046875 244.300781 L 95.167969 244.324219 L 82.695312 244.394531 "/>
<path fill="none" stroke-width="0.75" stroke-linecap="round" stroke-linejoin="round" stroke="rgb(0%, 0%, 0%)" stroke-opacity="1" stroke-miterlimit="10" d="M 309.570312 238.140625 L 309.742188 269.625 "/>
<path fill="none" stroke-width="0.75" stroke-linecap="round" stroke-linejoin="round" stroke="rgb(0%, 0%, 0%)" stroke-opacity="1" stroke-miterlimit="10" d="M 296.921875 78.324219 L 290.570312 78.339844 L 283.734375 78.371094 "/>
<path fill="none" stroke-width="0.75" stroke-linecap="round" stroke-linejoin="round" stroke="rgb(0%, 0%, 0%)" stroke-opacity="1" stroke-miterlimit="10" d="M 321.40625 238.101562 L 321.578125 269.609375 L 321.625 278.132812 "/>
<path fill="none" stroke-width="0.75" stroke-linecap="round" stroke-linejoin="round" stroke="rgb(0%, 0%, 0%)" stroke-opacity="1" stroke-miterlimit="10" d="M 333.242188 238.046875 L 321.40625 238.101562 L 309.570312 238.140625 L 297.734375 238.191406 L 284.40625 238.238281 L 271.40625 238.285156 L 258.683594 238.332031 "/>
<path fill="none" stroke-width="0.75" stroke-linecap="round" stroke-linejoin="round" stroke="rgb(0%, 0%, 0%)" stroke-opacity="1" stroke-miterlimit="10" d="M 333.855469 192.953125 L 313.851562 193.039062 L 313.679688 193.039062 L 306.710938 193.070312 L 284.433594 193.164062 L 258.714844 193.28125 "/>
<path fill="none" stroke-width="0.75" stroke-linecap="round" stroke-linejoin="round" stroke="rgb(0%, 0%, 0%)" stroke-opacity="1" stroke-miterlimit="10" d="M 272.210938 155.636719 L 272.214844 161.425781 L 272.203125 180.21875 "/>
<path fill="none" stroke-width="0.75" stroke-linecap="round" stroke-linejoin="round" stroke="rgb(0%, 0%, 0%)" stroke-opacity="1" stroke-miterlimit="10" d="M 99.042969 255.21875 L 82.695312 255.265625 "/>
<path fill="none" stroke-width="0.75" stroke-linecap="round" stroke-linejoin="round" stroke="rgb(0%, 0%, 0%)" stroke-opacity="1" stroke-miterlimit="10" d="M 333.414062 216.050781 L 284.417969 216.214844 L 258.695312 216.285156 "/>
<path fill="none" stroke-width="2.25" stroke-linecap="round" stroke-linejoin="round" stroke="rgb(100%, 0%, 0%)" stroke-opacity="1" stroke-miterlimit="10" d="M 372.25 275.066406 L 369.800781 273.980469 L 366.550781 273.042969 L 364.5 272.699219 L 359.371094 272.273438 L 353.132812 271.503906 L 346.722656 270.90625 L 340.484375 270.304688 L 335.242188 269.714844 L 328.261719 269.410156 L 268.003906 269.535156 L 262.019531 268.9375 L 258.910156 267.972656 L 258.175781 267.742188 L 253.558594 266.460938 L 153.300781 266.945312 L 111.492188 267.144531 L 103.210938 266.355469 L 82.695312 266.355469 L 82.726562 156.167969 L 170.667969 155.894531 L 171.0625 110.527344 L 170.945312 67.617188 L 183.296875 67.558594 L 208.378906 67.464844 L 272.828125 67.523438 L 281.882812 67.617188 L 288.621094 67.976562 L 293.054688 68.28125 L 296.703125 68.488281 L 303.832031 68.535156 L 307.082031 68.558594 L 313.933594 68.464844 L 317.300781 68.558594 L 319.113281 69.023438 L 332.558594 73.941406 L 342.976562 77.890625 L 345.59375 79.050781 L 355.222656 84.039062 L 361.6875 87.496094 L 384.054688 98.75 L 385.191406 99.492188 L 386.179688 100.234375 L 387.859375 101.714844 L 389.09375 103 L 391.066406 104.875 L 392.796875 106.453125 L 394.128906 107.640625 L 395.3125 108.578125 L 396.25 109.269531 L 397.585938 110.257812 L 398.820312 111.144531 L 402.128906 113.070312 L 405.542969 114.859375 L 409.535156 116.921875 L 416.746094 120.628906 L 423.941406 123.988281 L 425.398438 124.761719 L 426.851562 125.828125 L 427.59375 126.464844 L 428.496094 127.429688 L 429.261719 128.339844 L 430.078125 129.5 L 430.65625 130.371094 L 431.332031 131.410156 L 431.839844 132.160156 L 432.578125 133.121094 L 432.980469 133.601562 L 433.378906 134.070312 L 434.011719 134.6875 L 434.582031 135.210938 L 435.460938 135.96875 L 436.332031 136.730469 L 437.148438 137.4375 L 437.964844 137.980469 L 438.671875 138.417969 L 439.488281 138.796875 L 440.195312 139.179688 L 441.117188 139.449219 L 442.316406 139.777344 L 444.441406 140.324219 L 446.75 140.980469 L 448.089844 141.359375 L 449.140625 141.683594 L 450.105469 142.0625 L 387.972656 257.898438 L 388.292969 258.074219 L 377.605469 278.132812 L 375.703125 277.113281 Z M 372.25 275.066406 "/>
<path fill-rule="nonzero" fill="rgb(62.745098%, 12.54902%, 94.117647%)" fill-opacity="1" d="M 264.132812 155.683594 C 264.132812 162.882812 253.332031 162.882812 253.332031 155.683594 C 253.332031 148.484375 264.132812 148.484375 264.132812 155.683594 "/>
<path fill-rule="nonzero" fill="rgb(62.745098%, 12.54902%, 94.117647%)" fill-opacity="1" d="M 423.113281 203.023438 C 423.113281 210.226562 412.3125 210.226562 412.3125 203.023438 C 412.3125 195.824219 423.113281 195.824219 423.113281 203.023438 "/>
<path fill-rule="nonzero" fill="rgb(62.745098%, 12.54902%, 94.117647%)" fill-opacity="1" d="M 176.066406 156.03125 C 176.066406 163.230469 165.265625 163.230469 165.265625 156.03125 C 165.265625 148.828125 176.066406 148.828125 176.066406 156.03125 "/>
<path fill-rule="nonzero" fill="rgb(62.745098%, 12.54902%, 94.117647%)" fill-opacity="1" d="M 87.953125 156.371094 C 87.953125 163.570312 77.152344 163.570312 77.152344 156.371094 C 77.152344 149.167969 87.953125 149.167969 87.953125 156.371094 "/>
<path fill="none" stroke-width="0.75" stroke-linecap="round" stroke-linejoin="round" stroke="rgb(62.745098%, 12.54902%, 94.117647%)" stroke-opacity="1" stroke-miterlimit="10" d="M 275.402344 155.683594 L 275.378906 156.554688 L 275.308594 157.425781 L 275.195312 158.289062 L 275.035156 159.148438 L 274.832031 159.996094 L 274.585938 160.832031 L 274.292969 161.65625 L 273.960938 162.460938 L 273.585938 163.25 L 273.167969 164.015625 L 272.710938 164.761719 L 272.21875 165.480469 L 271.6875 166.171875 L 271.121094 166.835938 L 270.519531 167.46875 L 269.886719 168.070312 L 269.222656 168.636719 L 268.53125 169.167969 L 267.808594 169.664062 L 267.066406 170.117188 L 266.300781 170.535156 L 265.511719 170.910156 L 264.707031 171.246094 L 263.882812 171.535156 L 263.046875 171.785156 L 262.195312 171.988281 L 261.339844 172.148438 L 260.472656 172.261719 L 259.605469 172.328125 L 258.730469 172.351562 L 257.859375 172.328125 L 256.988281 172.261719 L 256.125 172.148438 L 255.265625 171.988281 L 254.417969 171.785156 L 253.578125 171.535156 L 252.757812 171.246094 L 251.949219 170.910156 L 251.164062 170.535156 L 250.394531 170.117188 L 249.652344 169.664062 L 248.933594 169.167969 L 248.242188 168.636719 L 247.578125 168.070312 L 246.945312 167.46875 L 246.34375 166.835938 L 245.777344 166.171875 L 245.246094 165.480469 L 244.75 164.761719 L 244.292969 164.015625 L 243.878906 163.25 L 243.503906 162.460938 L 243.167969 161.65625 L 242.878906 160.832031 L 242.628906 159.996094 L 242.425781 159.148438 L 242.265625 158.289062 L 242.152344 157.425781 L 242.085938 156.554688 L 242.0625 155.683594 L 242.085938 154.808594 L 242.152344 153.941406 L 242.265625 153.074219 L 242.425781 152.214844 L 242.628906 151.367188 L 242.878906 150.53125 L 243.167969 149.707031 L 243.503906 148.902344 L 243.878906 148.113281 L 244.292969 147.347656 L 244.75 146.601562 L 245.246094 145.882812 L 245.777344 145.191406 L 246.34375 144.527344 L 246.945312 143.894531 L 247.578125 143.292969 L 248.242188 142.726562 L 248.933594 142.195312 L 249.652344 141.703125 L 250.394531 141.246094 L 251.164062 140.828125 L 251.949219 140.453125 L 252.757812 140.121094 L 253.578125 139.828125 L 254.417969 139.582031 L 255.265625 139.375 L 256.125 139.21875 L 256.988281 139.105469 L 257.859375 139.035156 L 258.730469 139.011719 L 259.605469 139.035156 L 260.472656 139.105469 L 261.339844 139.21875 L 262.195312 139.375 L 263.046875 139.582031 L 263.882812 139.828125 L 264.707031 140.121094 L 265.511719 140.453125 L 266.300781 140.828125 L 267.066406 141.246094 L 267.808594 141.703125 L 268.53125 142.195312 L 269.222656 142.726562 L 269.886719 143.292969 L 270.519531 143.894531 L 271.121094 144.527344 L 271.6875 145.191406 L 272.21875 145.882812 L 272.710938 146.601562 L 273.167969 147.347656 L 273.585938 148.113281 L 273.960938 148.902344 L 274.292969 149.707031 L 274.585938 150.53125 L 274.832031 151.367188 L 275.035156 152.214844 L 275.195312 153.074219 L 275.308594 153.941406 L 275.378906 154.808594 Z M 275.402344 155.683594 "/>
<path fill="none" stroke-width="0.75" stroke-linecap="round" stroke-linejoin="round" stroke="rgb(62.745098%, 12.54902%, 94.117647%)" stroke-opacity="1" stroke-miterlimit="10" d="M 434.382812 203.023438 L 434.359375 203.898438 L 434.292969 204.769531 L 434.175781 205.632812 L 434.019531 206.492188 L 433.816406 207.339844 L 433.566406 208.175781 L 433.277344 209 L 432.941406 209.804688 L 432.566406 210.59375 L 432.148438 211.359375 L 431.695312 212.105469 L 431.199219 212.824219 L 430.667969 213.515625 L 430.101562 214.179688 L 429.5 214.8125 L 428.867188 215.414062 L 428.203125 215.980469 L 427.511719 216.511719 L 426.792969 217.003906 L 426.046875 217.460938 L 425.28125 217.878906 L 424.492188 218.253906 L 423.6875 218.585938 L 422.863281 218.878906 L 422.027344 219.128906 L 421.179688 219.332031 L 420.320312 219.488281 L 419.457031 219.605469 L 418.585938 219.671875 L 417.714844 219.695312 L 416.839844 219.671875 L 415.96875 219.605469 L 415.105469 219.488281 L 414.246094 219.332031 L 413.398438 219.128906 L 412.5625 218.878906 L 411.738281 218.585938 L 410.933594 218.253906 L 410.144531 217.878906 L 409.378906 217.460938 L 408.632812 217.003906 L 407.914062 216.511719 L 407.222656 215.980469 L 406.558594 215.414062 L 405.925781 214.8125 L 405.324219 214.179688 L 404.757812 213.515625 L 404.226562 212.824219 L 403.734375 212.105469 L 403.277344 211.359375 L 402.859375 210.59375 L 402.484375 209.804688 L 402.152344 209 L 401.859375 208.175781 L 401.613281 207.339844 L 401.40625 206.492188 L 401.25 205.632812 L 401.132812 204.769531 L 401.066406 203.898438 L 401.042969 203.023438 L 401.066406 202.152344 L 401.132812 201.28125 L 401.25 200.417969 L 401.40625 199.558594 L 401.613281 198.710938 L 401.859375 197.875 L 402.152344 197.050781 L 402.484375 196.246094 L 402.859375 195.457031 L 403.277344 194.691406 L 403.734375 193.945312 L 404.226562 193.226562 L 404.757812 192.535156 L 405.324219 191.871094 L 405.925781 191.238281 L 406.558594 190.636719 L 407.222656 190.070312 L 407.914062 189.539062 L 408.632812 189.042969 L 409.378906 188.589844 L 410.144531 188.171875 L 410.933594 187.796875 L 411.738281 187.460938 L 412.5625 187.171875 L 413.398438 186.921875 L 414.246094 186.71875 L 415.105469 186.5625 L 415.96875 186.445312 L 416.839844 186.378906 L 417.714844 186.355469 L 418.585938 186.378906 L 419.457031 186.445312 L 420.320312 186.5625 L 421.179688 186.71875 L 422.027344 186.921875 L 422.863281 187.171875 L 423.6875 187.460938 L 424.492188 187.796875 L 425.28125 188.171875 L 426.046875 188.589844 L 426.792969 189.042969 L 427.511719 189.539062 L 428.203125 190.070312 L 428.867188 190.636719 L 429.5 191.238281 L 430.101562 191.871094 L 430.667969 192.535156 L 431.199219 193.226562 L 431.695312 193.945312 L 432.148438 194.691406 L 432.566406 195.457031 L 432.941406 196.246094 L 433.277344 197.050781 L 433.566406 197.875 L 433.816406 198.710938 L 434.019531 199.558594 L 434.175781 200.417969 L 434.292969 201.28125 L 434.359375 202.152344 Z M 434.382812 203.023438 "/>
<path fill="none" stroke-width="0.75" stroke-linecap="round" stroke-linejoin="round" stroke="rgb(62.745098%, 12.54902%, 94.117647%)" stroke-opacity="1" stroke-miterlimit="10" d="M 187.335938 156.03125 L 187.3125 156.902344 L 187.246094 157.773438 L 187.132812 158.636719 L 186.972656 159.496094 L 186.769531 160.34375 L 186.519531 161.179688 L 186.230469 162.003906 L 185.894531 162.808594 L 185.519531 163.597656 L 185.101562 164.363281 L 184.648438 165.109375 L 184.152344 165.828125 L 183.621094 166.519531 L 183.054688 167.183594 L 182.453125 167.816406 L 181.820312 168.417969 L 181.15625 168.984375 L 180.464844 169.515625 L 179.746094 170.011719 L 179 170.464844 L 178.234375 170.882812 L 177.445312 171.257812 L 176.640625 171.59375 L 175.816406 171.882812 L 174.980469 172.132812 L 174.132812 172.335938 L 173.273438 172.496094 L 172.410156 172.609375 L 171.539062 172.675781 L 170.667969 172.699219 L 169.792969 172.675781 L 168.925781 172.609375 L 168.058594 172.496094 L 167.199219 172.335938 L 166.351562 172.132812 L 165.515625 171.882812 L 164.691406 171.59375 L 163.886719 171.257812 L 163.097656 170.882812 L 162.332031 170.464844 L 161.585938 170.011719 L 160.867188 169.515625 L 160.175781 168.984375 L 159.511719 168.417969 L 158.878906 167.816406 L 158.277344 167.183594 L 157.710938 166.519531 L 157.179688 165.828125 L 156.6875 165.109375 L 156.230469 164.363281 L 155.8125 163.597656 L 155.4375 162.808594 L 155.105469 162.003906 L 154.8125 161.179688 L 154.566406 160.34375 L 154.359375 159.496094 L 154.203125 158.636719 L 154.089844 157.773438 L 154.019531 156.902344 L 153.996094 156.03125 L 154.019531 155.15625 L 154.089844 154.289062 L 154.203125 153.421875 L 154.359375 152.5625 L 154.566406 151.714844 L 154.8125 150.878906 L 155.105469 150.054688 L 155.4375 149.25 L 155.8125 148.460938 L 156.230469 147.695312 L 156.6875 146.949219 L 157.179688 146.230469 L 157.710938 145.539062 L 158.277344 144.875 L 158.878906 144.242188 L 159.511719 143.640625 L 160.175781 143.074219 L 160.867188 142.542969 L 161.585938 142.050781 L 162.332031 141.59375 L 163.097656 141.175781 L 163.886719 140.800781 L 164.691406 140.46875 L 165.515625 140.175781 L 166.351562 139.929688 L 167.199219 139.722656 L 168.058594 139.566406 L 168.925781 139.453125 L 169.792969 139.382812 L 170.667969 139.359375 L 171.539062 139.382812 L 172.410156 139.453125 L 173.273438 139.566406 L 174.132812 139.722656 L 174.980469 139.929688 L 175.816406 140.175781 L 176.640625 140.46875 L 177.445312 140.800781 L 178.234375 141.175781 L 179 141.59375 L 179.746094 142.050781 L 180.464844 142.542969 L 181.15625 143.074219 L 181.820312 143.640625 L 182.453125 144.242188 L 183.054688 144.875 L 183.621094 145.539062 L 184.152344 146.230469 L 184.648438 146.949219 L 185.101562 147.695312 L 185.519531 148.460938 L 185.894531 149.25 L 186.230469 150.054688 L 186.519531 150.878906 L 186.769531 151.714844 L 186.972656 152.5625 L 187.132812 153.421875 L 187.246094 154.289062 L 187.3125 155.15625 Z M 187.335938 156.03125 "/>
<path fill="none" stroke-width="0.75" stroke-linecap="round" stroke-linejoin="round" stroke="rgb(62.745098%, 12.54902%, 94.117647%)" stroke-opacity="1" stroke-miterlimit="10" d="M 99.222656 156.371094 L 99.199219 157.242188 L 99.128906 158.113281 L 99.015625 158.976562 L 98.855469 159.835938 L 98.652344 160.683594 L 98.40625 161.519531 L 98.113281 162.34375 L 97.78125 163.148438 L 97.40625 163.9375 L 96.988281 164.703125 L 96.53125 165.449219 L 96.039062 166.167969 L 95.507812 166.859375 L 94.941406 167.523438 L 94.339844 168.15625 L 93.707031 168.757812 L 93.042969 169.324219 L 92.351562 169.855469 L 91.628906 170.351562 L 90.886719 170.804688 L 90.121094 171.222656 L 89.332031 171.597656 L 88.527344 171.933594 L 87.703125 172.222656 L 86.867188 172.472656 L 86.019531 172.675781 L 85.160156 172.832031 L 84.292969 172.949219 L 83.425781 173.015625 L 82.550781 173.039062 L 81.679688 173.015625 L 80.808594 172.949219 L 79.945312 172.832031 L 79.085938 172.675781 L 78.238281 172.472656 L 77.402344 172.222656 L 76.578125 171.933594 L 75.773438 171.597656 L 74.984375 171.222656 L 74.21875 170.804688 L 73.472656 170.351562 L 72.753906 169.855469 L 72.0625 169.324219 L 71.398438 168.757812 L 70.765625 168.15625 L 70.164062 167.523438 L 69.597656 166.859375 L 69.066406 166.167969 L 68.570312 165.449219 L 68.117188 164.703125 L 67.699219 163.9375 L 67.324219 163.148438 L 66.988281 162.34375 L 66.699219 161.519531 L 66.449219 160.683594 L 66.246094 159.835938 L 66.085938 158.976562 L 65.972656 158.113281 L 65.90625 157.242188 L 65.882812 156.371094 L 65.90625 155.496094 L 65.972656 154.625 L 66.085938 153.761719 L 66.246094 152.902344 L 66.449219 152.054688 L 66.699219 151.21875 L 66.988281 150.394531 L 67.324219 149.589844 L 67.699219 148.800781 L 68.117188 148.035156 L 68.570312 147.289062 L 69.066406 146.570312 L 69.597656 145.878906 L 70.164062 145.214844 L 70.765625 144.582031 L 71.398438 143.980469 L 72.0625 143.414062 L 72.753906 142.882812 L 73.472656 142.390625 L 74.21875 141.933594 L 74.984375 141.515625 L 75.773438 141.140625 L 76.578125 140.808594 L 77.402344 140.515625 L 78.238281 140.265625 L 79.085938 140.0625 L 79.945312 139.90625 L 80.808594 139.789062 L 81.679688 139.722656 L 82.550781 139.699219 L 83.425781 139.722656 L 84.292969 139.789062 L 85.160156 139.90625 L 86.019531 140.0625 L 86.867188 140.265625 L 87.703125 140.515625 L 88.527344 140.808594 L 89.332031 141.140625 L 90.121094 141.515625 L 90.886719 141.933594 L 91.628906 142.390625 L 92.351562 142.882812 L 93.042969 143.414062 L 93.707031 143.980469 L 94.339844 144.582031 L 94.941406 145.214844 L 95.507812 145.878906 L 96.039062 146.570312 L 96.53125 147.289062 L 96.988281 148.035156 L 97.40625 148.800781 L 97.78125 149.589844 L 98.113281 150.394531 L 98.40625 151.21875 L 98.652344 152.054688 L 98.855469 152.902344 L 99.015625 153.761719 L 99.128906 154.625 L 99.199219 155.496094 Z M 99.222656 156.371094 "/>
</svg>
