<?xml version="1.0" encoding="UTF-8"?>
<svg xmlns="http://www.w3.org/2000/svg" xmlns:xlink="http://www.w3.org/1999/xlink" width="504" height="360" viewBox="0 0 504 360">
<defs>
<clipPath id="clip-0">
<path clip-rule="nonzero" d="M 59.039062 59.039062 L 473.757812 59.039062 L 473.757812 286.558594 L 59.039062 286.558594 Z M 59.039062 59.039062 "/>
</clipPath>
</defs>
<rect x="-50.4" y="-36" width="604.8" height="432" fill="rgb(100%, 100%, 100%)" fill-opacity="1"/>
<g clip-path="url(#clip-0)">
<path fill-rule="nonzero" fill="rgb(100%, 100%, 100%)" fill-opacity="1" stroke-width="0.75" stroke-linecap="round" stroke-linejoin="round" stroke="rgb(100%, 100%, 100%)" stroke-opacity="1" stroke-miterlimit="10" d="M 59.039062 286.558594 L 473.757812 286.558594 L 473.757812 59.039062 L 59.039062 59.039062 Z M 59.039062 286.558594 "/>
</g>
<path fill="none" stroke-width="0.75" stroke-linecap="round" stroke-linejoin="round" stroke="rgb(0%, 0%, 0%)" stroke-opacity="1" stroke-miterlimit="10" d="M 229.589844 250.191406 L 233.609375 250.167969 L 234.84375 250.160156 L 237.609375 250.152344 L 238.390625 250.152344 L 241.613281 250.140625 L 241.894531 250.136719 L 245.375 250.128906 L 248.6875 250.117188 L 252.046875 250.109375 L 252.382812 250.109375 L 255.972656 250.097656 L 259.082031 250.085938 L 258.769531 251.433594 L 258.761719 253.867188 L 258.707031 254.066406 L 258.613281 254.222656 L 258.5 254.34375 L 257.871094 254.855469 L 258.121094 255.40625 L 258.332031 255.988281 L 258.539062 256.726562 L 258.648438 257.289062 L 258.71875 257.847656 L 258.765625 258.296875 L 258.757812 264.058594 L 255.394531 264.070312 L 248.667969 264.085938 L 245.308594 264.101562 L 241.875 264.109375 L 238.371094 264.117188 L 234.84375 264.128906 L 231.566406 264.148438 L 229.589844 264.152344 Z M 229.589844 250.191406 "/>
<path fill="none" stroke-width="0.75" stroke-linecap="round" stroke-linejoin="round" stroke="rgb(0%, 0%, 0%)" stroke-opacity="1" stroke-miterlimit="10" d="M 257.871094 254.855469 L 258.5 254.34375 L 258.613281 254.222656 L 258.707031 254.066406 L 258.761719 253.867188 L 258.769531 251.433594 L 259.082031 250.085938 L 262.136719 250.082031 L 262.902344 250.078125 L 265.5 250.070312 L 266.40625 250.066406 L 268.863281 250.0625 L 269.910156 250.058594 L 272.226562 250.054688 L 272.21875 257.25 L 272.210938 264.019531 L 272.199219 271.003906 L 272.191406 277.660156 L 271.957031 278.109375 L 268.828125 278.117188 L 268.328125 278.121094 L 265.46875 278.121094 L 262.960938 278.125 L 262.105469 278.128906 L 258.742188 278.132812 L 258.75 271.042969 L 258.757812 264.058594 L 258.765625 258.296875 L 258.71875 257.847656 L 258.648438 257.289062 L 258.539062 256.726562 L 258.332031 255.988281 L 258.121094 255.40625 Z M 257.871094 254.855469 "/>
<path fill="none" stroke-width="0.75" stroke-linecap="round" stroke-linejoin="round" stroke="rgb(0%, 0%, 0%)" stroke-opacity="1" stroke-miterlimit="10" d="M 272.191406 277.660156 L 272.199219 271.003906 L 272.210938 264.019531 L 272.21875 257.25 L 272.226562 250.054688 L 273.574219 250.050781 L 275.589844 250.042969 L 277.609375 250.039062 L 278.949219 250.035156 L 281.644531 250.027344 L 282.3125 250.023438 L 285.671875 250.015625 L 285.671875 257.695312 L 285.667969 263.980469 L 285.667969 264.507812 L 285.664062 270.964844 L 285.660156 278.089844 L 282.996094 278.09375 L 282.371094 278.09375 L 279.328125 278.097656 L 278.917969 278.101562 L 275.554688 278.105469 L 271.957031 278.109375 Z M 272.191406 277.660156 "/>
<path fill="none" stroke-width="0.75" stroke-linecap="round" stroke-linejoin="round" stroke="rgb(0%, 0%, 0%)" stroke-opacity="1" stroke-miterlimit="10" d="M 285.675781 248.261719 L 289.726562 248.246094 L 293.863281 248.230469 L 298.109375 248.214844 L 301.878906 248.199219 L 305.648438 248.1875 L 309.414062 248.171875 L 309.421875 249.3125 L 309.5 254.210938 L 309.523438 258.238281 L 309.289062 258.214844 L 305.703125 258.21875 L 301.933594 258.226562 L 298.160156 258.230469 L 293.859375 258.238281 L 289.71875 258.242188 L 288.582031 258.246094 L 287.972656 258.222656 L 287.277344 258.140625 L 286.59375 257.996094 L 286.324219 257.921875 L 285.671875 257.695312 L 285.671875 250.015625 Z M 285.675781 248.261719 "/>
<path fill="none" stroke-width="0.75" stroke-linecap="round" stroke-linejoin="round" stroke="rgb(0%, 0%, 0%)" stroke-opacity="1" stroke-miterlimit="10" d="M 309.46875 241.167969 L 309.523438 237.664062 L 309.609375 233.8125 L 309.589844 229.742188 L 310.695312 230.347656 L 312.441406 231.300781 L 312.730469 231.457031 L 315.328125 232.878906 L 316.226562 233.367188 L 318.140625 234.414062 L 319.722656 235.277344 L 321.402344 236.195312 L 323.480469 237.332031 L 326.417969 238.933594 L 329.753906 240.757812 L 326.496094 246.84375 L 323.871094 251.75 L 323.398438 252.632812 L 321.8125 251.765625 L 321.535156 251.613281 L 320.023438 250.785156 L 316.71875 248.980469 L 313.367188 247.148438 L 309.875 245.238281 L 309.417969 244.992188 Z M 309.46875 241.167969 "/>
<path fill="none" stroke-width="0.75" stroke-linecap="round" stroke-linejoin="round" stroke="rgb(0%, 0%, 0%)" stroke-opacity="1" stroke-miterlimit="10" d="M 215.5625 137.855469 L 218.738281 137.863281 L 219.058594 137.863281 L 222.554688 137.871094 L 223.117188 137.871094 L 226.054688 137.875 L 226.265625 137.878906 L 226.886719 137.878906 L 229.660156 137.882812 L 229.664062 140.726562 L 229.664062 148.265625 L 229.605469 150.246094 L 229.558594 151.914062 L 229.558594 154.125 L 229.5625 158.027344 L 229.5625 165.9375 L 225.953125 165.941406 L 222.398438 165.945312 L 218.84375 165.953125 L 215.582031 165.957031 L 215.574219 161.972656 L 215.574219 158.042969 L 215.570312 157.238281 L 215.570312 153.730469 L 215.566406 150.230469 L 215.566406 144.976562 L 215.5625 141.472656 L 215.566406 138.882812 Z M 215.5625 137.855469 "/>
<path fill="none" stroke-width="0.75" stroke-linecap="round" stroke-linejoin="round" stroke="rgb(0%, 0%, 0%)" stroke-opacity="1" stroke-miterlimit="10" d="M 315.328125 232.878906 L 318.539062 227.011719 L 321.738281 221.167969 L 322.132812 220.902344 L 323.070312 219.152344 L 326.164062 213.359375 L 327.089844 211.632812 L 327.761719 210.367188 L 329.429688 207.242188 L 329.710938 207.496094 L 333.386719 209.460938 L 334.1875 209.890625 L 335.742188 210.679688 L 338.777344 212.226562 L 339.175781 212.5 L 339.542969 212.820312 L 339.820312 213.132812 L 340.183594 213.628906 L 338.78125 216.257812 L 337.792969 218.097656 L 333.414062 218.414062 L 329.664062 225.441406 L 327.832031 224.453125 L 324.613281 230.328125 L 321.402344 236.195312 L 319.722656 235.277344 L 318.140625 234.414062 L 316.226562 233.367188 Z M 315.328125 232.878906 "/>
<path fill="none" stroke-width="0.75" stroke-linecap="round" stroke-linejoin="round" stroke="rgb(0%, 0%, 0%)" stroke-opacity="1" stroke-miterlimit="10" d="M 277.679688 193.917969 L 281.609375 193.910156 L 285.695312 193.902344 L 285.695312 207.925781 L 281.609375 207.933594 L 277.679688 207.941406 Z M 277.679688 193.917969 "/>
<path fill="none" stroke-width="0.75" stroke-linecap="round" stroke-linejoin="round" stroke="rgb(0%, 0%, 0%)" stroke-opacity="1" stroke-miterlimit="10" d="M 269.644531 193.933594 L 273.636719 193.925781 L 277.679688 193.917969 L 277.679688 207.941406 L 273.632812 207.949219 L 269.644531 207.949219 Z M 269.644531 193.933594 "/>
<path fill="none" stroke-width="0.75" stroke-linecap="round" stroke-linejoin="round" stroke="rgb(0%, 0%, 0%)" stroke-opacity="1" stroke-miterlimit="10" d="M 237.609375 237.71875 L 241.617188 237.699219 L 245.378906 237.710938 L 245.375 244.6875 L 245.375 250.128906 L 241.894531 250.136719 L 241.613281 250.140625 L 238.390625 250.152344 L 237.609375 250.152344 Z M 237.609375 237.71875 "/>
<path fill="none" stroke-width="0.75" stroke-linecap="round" stroke-linejoin="round" stroke="rgb(0%, 0%, 0%)" stroke-opacity="1" stroke-miterlimit="10" d="M 309.417969 244.992188 L 309.875 245.238281 L 313.367188 247.148438 L 316.71875 248.980469 L 320.023438 250.785156 L 321.535156 251.613281 L 321.8125 251.765625 L 323.398438 252.632812 L 323.652344 252.761719 L 325.09375 253.554688 L 325.203125 253.613281 L 325.246094 253.636719 L 325.296875 253.667969 L 325.40625 253.722656 L 325.707031 253.890625 L 326.941406 254.566406 L 323.507812 260.972656 L 320.527344 266.535156 L 316.886719 264.613281 L 313.535156 262.785156 L 310.179688 260.957031 L 309.539062 260.601562 L 309.523438 258.238281 L 309.5 254.210938 L 309.421875 249.3125 L 309.414062 248.171875 Z M 309.417969 244.992188 "/>
<path fill="none" stroke-width="0.75" stroke-linecap="round" stroke-linejoin="round" stroke="rgb(0%, 0%, 0%)" stroke-opacity="1" stroke-miterlimit="10" d="M 187.582031 81.6875 L 190.070312 81.675781 L 190.898438 81.671875 L 191.136719 81.671875 L 193.210938 81.664062 L 194.589844 81.65625 L 195.882812 81.652344 L 197.988281 81.644531 L 201.507812 81.628906 L 208.519531 81.597656 L 208.542969 90.253906 L 208.554688 94.507812 L 208.558594 96.257812 L 208.566406 98.207031 L 208.578125 102.03125 L 208.585938 105.855469 L 208.574219 109.808594 L 201.542969 109.804688 L 197.984375 109.796875 L 194.585938 109.792969 L 191.082031 109.785156 L 187.550781 109.78125 L 187.578125 102.773438 L 187.582031 96.554688 L 187.582031 95.734375 L 187.578125 92.207031 L 187.582031 88.703125 Z M 187.582031 81.6875 "/>
<path fill="none" stroke-width="0.75" stroke-linecap="round" stroke-linejoin="round" stroke="rgb(0%, 0%, 0%)" stroke-opacity="1" stroke-miterlimit="10" d="M 229.53125 81.503906 L 236.523438 81.503906 L 241.15625 81.507812 L 245.277344 81.503906 L 249.121094 81.507812 L 257.570312 81.507812 L 257.578125 87.128906 L 257.585938 92.722656 L 256.796875 92.753906 L 255.207031 92.820312 L 253.511719 92.886719 L 251.195312 92.980469 L 249.117188 93.0625 L 247.589844 93.128906 L 245.273438 93.222656 L 244.265625 93.265625 L 241.183594 93.425781 L 237.261719 93.59375 L 236.71875 93.613281 L 229.582031 93.917969 L 229.570312 91.378906 L 229.566406 90.46875 L 229.550781 86.328125 Z M 229.53125 81.503906 "/>
<path fill="none" stroke-width="0.75" stroke-linecap="round" stroke-linejoin="round" stroke="rgb(0%, 0%, 0%)" stroke-opacity="1" stroke-miterlimit="10" d="M 229.582031 93.917969 L 236.71875 93.613281 L 237.261719 93.59375 L 241.183594 93.425781 L 244.265625 93.265625 L 245.273438 93.222656 L 247.589844 93.128906 L 249.117188 93.0625 L 251.195312 92.980469 L 253.511719 92.886719 L 255.207031 92.820312 L 256.796875 92.753906 L 257.585938 92.722656 L 257.589844 109.71875 L 255.242188 109.726562 L 253.113281 109.734375 L 251.230469 109.742188 L 248.640625 109.75 L 244.339844 109.769531 L 242.953125 109.777344 L 242.128906 109.78125 L 239.988281 109.792969 L 239.878906 109.789062 L 238.699219 109.796875 L 237.992188 109.796875 L 236.816406 109.800781 L 234.085938 109.8125 L 231.769531 109.824219 L 229.648438 109.832031 L 229.628906 105.875 L 229.628906 105.375 L 229.617188 102.054688 L 229.609375 101.554688 L 229.605469 100.007812 L 229.605469 99.4375 L 229.601562 98.875 L 229.597656 98.066406 L 229.597656 97.503906 L 229.589844 95.984375 Z M 229.582031 93.917969 "/>
<path fill="none" stroke-width="0.75" stroke-linecap="round" stroke-linejoin="round" stroke="rgb(0%, 0%, 0%)" stroke-opacity="1" stroke-miterlimit="10" d="M 257.542969 67.472656 L 261.066406 67.472656 L 264.585938 67.46875 L 268.109375 67.46875 L 271.628906 67.472656 L 276.917969 67.46875 L 280.777344 67.46875 L 281.390625 67.480469 L 285.714844 67.464844 L 285.714844 77.871094 L 285.710938 81.480469 L 285.710938 85.933594 L 285.707031 91.542969 L 282.097656 91.695312 L 281.039062 91.738281 L 278.703125 91.839844 L 276.351562 91.9375 L 275.195312 91.984375 L 271.679688 92.128906 L 269.933594 92.203125 L 268.160156 92.277344 L 267.59375 92.304688 L 264.605469 92.425781 L 264.324219 92.4375 L 261.035156 92.578125 L 257.585938 92.722656 L 257.578125 87.128906 L 257.570312 81.507812 L 257.5625 76.722656 Z M 257.542969 67.472656 "/>
<path fill="none" stroke-width="0.75" stroke-linecap="round" stroke-linejoin="round" stroke="rgb(0%, 0%, 0%)" stroke-opacity="1" stroke-miterlimit="10" d="M 257.589844 109.71875 L 261.046875 109.703125 L 261.734375 109.699219 L 264.347656 109.691406 L 265.992188 109.679688 L 267.617188 109.675781 L 268.695312 109.667969 L 271.796875 109.660156 L 275.300781 109.640625 L 278.808594 109.628906 L 282.308594 109.617188 L 285.703125 109.597656 L 285.703125 115.121094 L 285.707031 117.882812 L 285.703125 121.855469 L 285.703125 137.746094 L 282.199219 137.707031 L 281.914062 137.707031 L 278.449219 137.722656 L 278.128906 137.722656 L 275.300781 137.730469 L 274.117188 137.734375 L 271.796875 137.746094 L 269.820312 137.75 L 268.691406 137.753906 L 265.992188 137.761719 L 264.878906 137.765625 L 263.964844 137.769531 L 262.808594 137.777344 L 258.417969 134.113281 L 257.621094 133.441406 L 257.617188 133.03125 L 257.617188 132.613281 L 257.613281 130.003906 L 257.609375 127.289062 L 257.597656 118.550781 Z M 257.589844 109.71875 "/>
<path fill="none" stroke-width="0.75" stroke-linecap="round" stroke-linejoin="round" stroke="rgb(0%, 0%, 0%)" stroke-opacity="1" stroke-miterlimit="10" d="M 229.648438 109.832031 L 231.769531 109.824219 L 234.085938 109.8125 L 236.816406 109.800781 L 237.992188 109.796875 L 242.003906 117.621094 L 242.109375 117.820312 L 242.917969 119.257812 L 243.289062 119.839844 L 243.613281 120.296875 L 243.6875 120.402344 L 244.191406 121.109375 L 244.875 122 L 245.261719 122.464844 L 245.589844 122.863281 L 245.855469 123.160156 L 246.335938 123.703125 L 247.109375 124.515625 L 247.929688 125.3125 L 248.5625 125.84375 L 250.792969 127.714844 L 257.621094 133.441406 L 257.621094 137.789062 L 253.882812 137.808594 L 253.585938 137.804688 L 250.140625 137.820312 L 247.976562 137.824219 L 246.402344 137.832031 L 244.261719 137.835938 L 242.675781 137.84375 L 240.539062 137.847656 L 236.824219 137.859375 L 234.117188 137.871094 L 233.375 137.871094 L 229.660156 137.882812 L 229.660156 134.113281 L 229.65625 132.5 L 229.65625 128.226562 L 229.652344 127.394531 L 229.652344 122.144531 L 229.648438 118.640625 Z M 229.648438 109.832031 "/>
<path fill="none" stroke-width="0.75" stroke-linecap="round" stroke-linejoin="round" stroke="rgb(0%, 0%, 0%)" stroke-opacity="1" stroke-miterlimit="10" d="M 238.699219 109.796875 L 239.878906 109.789062 L 239.988281 109.792969 L 242.128906 109.78125 L 242.953125 109.777344 L 244.339844 109.769531 L 248.640625 109.75 L 251.230469 109.742188 L 253.113281 109.734375 L 255.242188 109.726562 L 257.589844 109.71875 L 257.597656 118.550781 L 257.609375 127.289062 L 257.613281 130.003906 L 257.617188 132.613281 L 257.617188 133.03125 L 257.621094 133.441406 L 250.792969 127.714844 L 248.5625 125.84375 L 247.929688 125.3125 L 247.109375 124.515625 L 246.335938 123.703125 L 245.855469 123.160156 L 245.589844 122.863281 L 245.261719 122.464844 L 244.875 122 L 244.191406 121.109375 L 243.6875 120.402344 L 243.613281 120.296875 L 243.289062 119.839844 L 242.917969 119.257812 L 242.109375 117.820312 L 242.003906 117.621094 L 237.992188 109.796875 Z M 238.699219 109.796875 "/>
<path fill="none" stroke-width="0.75" stroke-linecap="round" stroke-linejoin="round" stroke="rgb(0%, 0%, 0%)" stroke-opacity="1" stroke-miterlimit="10" d="M 187.550781 109.78125 L 191.082031 109.785156 L 194.585938 109.792969 L 197.984375 109.796875 L 201.542969 109.804688 L 208.574219 109.808594 L 208.570312 123.820312 L 215.5625 123.851562 L 215.5625 125.601562 L 229.652344 125.652344 L 229.652344 127.394531 L 229.65625 128.226562 L 229.65625 132.5 L 229.660156 134.113281 L 229.660156 137.882812 L 226.886719 137.878906 L 226.265625 137.878906 L 226.054688 137.875 L 223.117188 137.871094 L 222.554688 137.871094 L 219.058594 137.863281 L 218.738281 137.863281 L 215.5625 137.855469 L 214.75 137.855469 L 212.046875 137.847656 L 208.550781 137.835938 L 202.402344 137.824219 L 201.574219 137.824219 L 198.820312 137.820312 L 196.242188 137.808594 L 194.96875 137.804688 L 192.527344 137.796875 L 189.328125 137.789062 L 187.546875 137.785156 L 187.546875 123.789062 L 187.550781 120.289062 L 187.546875 116.785156 L 187.550781 113.28125 Z M 187.550781 109.78125 "/>
<path fill="none" stroke-width="0.75" stroke-linecap="round" stroke-linejoin="round" stroke="rgb(0%, 0%, 0%)" stroke-opacity="1" stroke-miterlimit="10" d="M 321.402344 236.195312 L 324.613281 230.328125 L 327.832031 224.453125 L 329.664062 225.441406 L 333.414062 218.414062 L 337.792969 218.097656 L 338.78125 216.257812 L 340.183594 213.628906 L 340.761719 214.515625 L 341.125 214.972656 L 341.519531 215.394531 L 342.046875 215.855469 L 342.523438 216.195312 L 342.976562 216.464844 L 343.277344 216.617188 L 343.8125 216.847656 L 344.367188 217.03125 L 345.890625 217.394531 L 346.695312 217.585938 L 343.210938 224.105469 L 339.628906 230.8125 L 336.3125 237.019531 L 333.285156 242.691406 L 329.753906 240.757812 L 326.417969 238.933594 L 323.480469 237.332031 Z M 321.402344 236.195312 "/>
<path fill="none" stroke-width="0.75" stroke-linecap="round" stroke-linejoin="round" stroke="rgb(0%, 0%, 0%)" stroke-opacity="1" stroke-miterlimit="10" d="M 229.59375 222.164062 L 233.609375 222.152344 L 237.613281 222.132812 L 241.617188 222.121094 L 245.382812 222.105469 L 245.382812 223.703125 L 245.378906 229.90625 L 245.378906 237.710938 L 241.617188 237.699219 L 237.609375 237.71875 L 237.609375 250.152344 L 234.84375 250.160156 L 233.609375 250.167969 L 229.589844 250.191406 L 229.59375 244.75 L 229.589844 237.75 L 229.59375 236.285156 L 229.59375 229.976562 L 229.589844 226.097656 L 229.59375 223.796875 Z M 229.59375 222.164062 "/>
<path fill="none" stroke-width="0.75" stroke-linecap="round" stroke-linejoin="round" stroke="rgb(0%, 0%, 0%)" stroke-opacity="1" stroke-miterlimit="10" d="M 323.398438 252.632812 L 323.871094 251.75 L 326.496094 246.84375 L 329.753906 240.757812 L 333.285156 242.691406 L 337.089844 244.765625 L 340.585938 246.675781 L 337.265625 252.726562 L 334.105469 258.480469 L 332.414062 257.5625 L 330.609375 256.570312 L 326.941406 254.566406 L 325.707031 253.890625 L 325.40625 253.722656 L 325.296875 253.667969 L 325.246094 253.636719 L 325.203125 253.613281 L 325.09375 253.554688 L 323.652344 252.761719 Z M 323.398438 252.632812 "/>
<path fill="none" stroke-width="0.75" stroke-linecap="round" stroke-linejoin="round" stroke="rgb(0%, 0%, 0%)" stroke-opacity="1" stroke-miterlimit="10" d="M 259.394531 248.734375 L 259.394531 244.636719 L 259.402344 237.652344 L 262.90625 237.640625 L 266.414062 237.625 L 269.917969 237.609375 L 269.914062 244.601562 L 269.910156 250.058594 L 268.863281 250.0625 L 266.40625 250.066406 L 265.5 250.070312 L 262.902344 250.078125 L 262.136719 250.082031 L 259.082031 250.085938 Z M 259.394531 248.734375 "/>
<path fill="none" stroke-width="0.75" stroke-linecap="round" stroke-linejoin="round" stroke="rgb(0%, 0%, 0%)" stroke-opacity="1" stroke-miterlimit="10" d="M 269.644531 207.949219 L 273.632812 207.949219 L 277.679688 207.941406 L 281.609375 207.933594 L 285.695312 207.925781 L 285.691406 214.644531 L 285.691406 221.945312 L 281.605469 221.960938 L 277.679688 221.976562 L 273.589844 221.992188 L 269.628906 222.007812 L 269.632812 220.539062 L 269.632812 219.710938 L 269.636719 214.960938 Z M 269.644531 207.949219 "/>
<path fill="none" stroke-width="0.75" stroke-linecap="round" stroke-linejoin="round" stroke="rgb(0%, 0%, 0%)" stroke-opacity="1" stroke-miterlimit="10" d="M 257.660156 219.710938 L 257.675781 215.007812 L 257.695312 207.996094 L 261.414062 207.980469 L 265.5 207.964844 L 269.644531 207.949219 L 269.636719 214.960938 L 269.632812 219.710938 L 269.632812 220.539062 L 269.628906 222.007812 L 265.492188 222.023438 L 262.914062 222.03125 L 261.40625 222.039062 L 257.648438 222.054688 Z M 257.660156 219.710938 "/>
<path fill="none" stroke-width="0.75" stroke-linecap="round" stroke-linejoin="round" stroke="rgb(0%, 0%, 0%)" stroke-opacity="1" stroke-miterlimit="10" d="M 257.585938 92.722656 L 261.035156 92.578125 L 264.324219 92.4375 L 264.605469 92.425781 L 267.59375 92.304688 L 268.160156 92.277344 L 269.933594 92.203125 L 271.679688 92.128906 L 271.691406 99.730469 L 271.796875 109.660156 L 268.695312 109.667969 L 267.617188 109.675781 L 265.992188 109.679688 L 264.347656 109.691406 L 261.734375 109.699219 L 261.046875 109.703125 L 257.589844 109.71875 Z M 257.585938 92.722656 "/>
<path fill="none" stroke-width="0.75" stroke-linecap="round" stroke-linejoin="round" stroke="rgb(0%, 0%, 0%)" stroke-opacity="1" stroke-miterlimit="10" d="M 208.574219 109.808594 L 212.238281 109.8125 L 215.5625 109.816406 L 222.554688 109.828125 L 224.125 109.828125 L 229.648438 109.832031 L 229.648438 118.640625 L 229.652344 122.144531 L 229.652344 125.652344 L 215.5625 125.601562 L 215.5625 123.851562 L 208.570312 123.820312 Z M 208.574219 109.808594 "/>
<path fill="none" stroke-width="0.75" stroke-linecap="round" stroke-linejoin="round" stroke="rgb(0%, 0%, 0%)" stroke-opacity="1" stroke-miterlimit="10" d="M 245.382812 222.105469 L 248.886719 222.085938 L 249.632812 222.085938 L 252.394531 222.074219 L 253.667969 222.070312 L 255.558594 222.066406 L 255.890625 226.734375 L 255.894531 229.863281 L 259.402344 229.847656 L 259.402344 237.652344 L 255.890625 237.664062 L 252.386719 237.683594 L 248.882812 237.699219 L 245.378906 237.710938 L 245.378906 229.90625 L 245.382812 223.703125 Z M 245.382812 222.105469 "/>
<path fill="none" stroke-width="0.75" stroke-linecap="round" stroke-linejoin="round" stroke="rgb(0%, 0%, 0%)" stroke-opacity="1" stroke-miterlimit="10" d="M 257.644531 155.324219 L 260.863281 155.320312 L 261.464844 155.316406 L 264.832031 155.308594 L 265.273438 155.308594 L 268.785156 155.300781 L 269.828125 155.300781 L 272.683594 155.292969 L 274.125 155.289062 L 278.136719 155.28125 L 280.753906 155.273438 L 281.910156 155.273438 L 285.699219 155.265625 L 285.703125 160.382812 L 285.703125 165.785156 L 281.613281 165.800781 L 280.738281 165.804688 L 277.683594 165.8125 L 276.886719 165.8125 L 273.632812 165.824219 L 273.25 165.824219 L 272.402344 165.828125 L 270.039062 165.832031 L 268.765625 165.835938 L 266.972656 165.839844 L 264.808594 165.84375 L 264.332031 165.847656 L 260.855469 165.855469 L 257.652344 165.863281 L 257.652344 160.589844 Z M 257.644531 155.324219 "/>
<path fill="none" stroke-width="0.75" stroke-linecap="round" stroke-linejoin="round" stroke="rgb(0%, 0%, 0%)" stroke-opacity="1" stroke-miterlimit="10" d="M 309.585938 229.148438 L 312.546875 223.738281 L 315.746094 217.890625 L 316.183594 218.125 L 324.214844 203.140625 L 325.167969 203.648438 L 325.625 203.917969 L 326.058594 204.226562 L 326.761719 204.839844 L 329.429688 207.242188 L 327.761719 210.367188 L 327.089844 211.632812 L 326.164062 213.359375 L 323.070312 219.152344 L 322.132812 220.902344 L 321.738281 221.167969 L 318.539062 227.011719 L 315.328125 232.878906 L 312.730469 231.457031 L 312.441406 231.300781 L 310.695312 230.347656 L 309.589844 229.742188 Z M 309.585938 229.148438 "/>
<path fill="none" stroke-width="0.75" stroke-linecap="round" stroke-linejoin="round" stroke="rgb(0%, 0%, 0%)" stroke-opacity="1" stroke-miterlimit="10" d="M 309.199219 196.738281 L 309.246094 195.992188 L 312.496094 197.207031 L 312.769531 197.308594 L 316.15625 199.097656 L 316.527344 199.292969 L 318.171875 200.152344 L 318.453125 200.304688 L 321.160156 201.71875 L 324.214844 203.140625 L 316.183594 218.125 L 315.746094 217.890625 L 313.222656 216.53125 L 310.558594 215.101562 L 309.933594 214.761719 L 309.613281 214.644531 L 309.296875 214.585938 L 309.273438 210.003906 L 309.265625 208.847656 L 309.234375 203.113281 L 309.230469 202.375 L 309.210938 199.082031 Z M 309.199219 196.738281 "/>
<path fill="none" stroke-width="0.75" stroke-linecap="round" stroke-linejoin="round" stroke="rgb(0%, 0%, 0%)" stroke-opacity="1" stroke-miterlimit="10" d="M 208.519531 81.597656 L 211.789062 81.582031 L 212.316406 81.582031 L 212.652344 81.578125 L 213.027344 81.574219 L 213.433594 81.578125 L 214.140625 81.570312 L 215.472656 81.566406 L 222.453125 81.535156 L 224 81.527344 L 229.53125 81.503906 L 229.550781 86.328125 L 229.566406 90.46875 L 229.570312 91.378906 L 229.582031 93.917969 L 229.589844 95.984375 L 229.597656 97.503906 L 229.597656 98.066406 L 229.601562 98.875 L 229.605469 99.4375 L 229.605469 100.007812 L 229.609375 101.554688 L 229.617188 102.054688 L 229.628906 105.375 L 229.628906 105.875 L 229.648438 109.832031 L 224.125 109.828125 L 222.554688 109.828125 L 215.5625 109.816406 L 212.238281 109.8125 L 208.574219 109.808594 L 208.585938 105.855469 L 208.578125 102.03125 L 208.566406 98.207031 L 208.558594 96.257812 L 208.554688 94.507812 L 208.542969 90.253906 Z M 208.519531 81.597656 "/>
<path fill="none" stroke-width="0.75" stroke-linecap="round" stroke-linejoin="round" stroke="rgb(0%, 0%, 0%)" stroke-opacity="1" stroke-miterlimit="10" d="M 273.589844 221.992188 L 277.679688 221.976562 L 281.605469 221.960938 L 285.691406 221.945312 L 285.6875 223.761719 L 285.683594 229.742188 L 285.683594 233.917969 L 285.679688 237.542969 L 281.648438 237.558594 L 277.613281 237.578125 L 273.582031 237.59375 L 273.585938 229.789062 L 273.585938 223.644531 Z M 273.589844 221.992188 "/>
<path fill="none" stroke-width="0.75" stroke-linecap="round" stroke-linejoin="round" stroke="rgb(0%, 0%, 0%)" stroke-opacity="1" stroke-miterlimit="10" d="M 271.679688 92.128906 L 275.195312 91.984375 L 276.351562 91.9375 L 278.703125 91.839844 L 281.039062 91.738281 L 282.097656 91.695312 L 285.707031 91.542969 L 285.710938 95.59375 L 285.707031 99.667969 L 285.707031 103.601562 L 285.703125 109.597656 L 282.308594 109.617188 L 278.808594 109.628906 L 275.300781 109.640625 L 271.796875 109.660156 L 271.691406 99.730469 Z M 271.679688 92.128906 "/>
<path fill="none" stroke-width="0.75" stroke-linecap="round" stroke-linejoin="round" stroke="rgb(0%, 0%, 0%)" stroke-opacity="1" stroke-miterlimit="10" d="M 285.691406 221.945312 L 289.984375 221.929688 L 291.292969 221.921875 L 293.878906 221.914062 L 293.878906 223.789062 L 293.875 229.742188 L 293.875 233.878906 L 293.871094 237.710938 L 289.832031 237.722656 L 285.679688 237.542969 L 285.683594 233.917969 L 285.683594 229.742188 L 285.6875 223.761719 Z M 285.691406 221.945312 "/>
<path fill="none" stroke-width="0.75" stroke-linecap="round" stroke-linejoin="round" stroke="rgb(0%, 0%, 0%)" stroke-opacity="1" stroke-miterlimit="10" d="M 285.695312 193.902344 L 292.636719 193.882812 L 293.078125 193.90625 L 297.835938 194.238281 L 299.085938 194.234375 L 301.328125 194.21875 L 304.492188 194.210938 L 304.839844 194.34375 L 309.246094 195.992188 L 309.199219 196.738281 L 309.210938 199.082031 L 309.230469 202.375 L 309.234375 203.113281 L 309.265625 208.847656 L 309.273438 210.003906 L 309.296875 214.585938 L 309.613281 214.644531 L 309.933594 214.761719 L 310.558594 215.101562 L 313.222656 216.53125 L 315.746094 217.890625 L 312.546875 223.738281 L 309.550781 222.105469 L 309.09375 221.855469 L 304.988281 221.867188 L 300.527344 221.886719 L 297.90625 221.898438 L 296.070312 221.90625 L 293.878906 221.914062 L 291.292969 221.921875 L 289.984375 221.929688 L 285.691406 221.945312 L 285.691406 214.644531 L 285.695312 207.925781 Z M 285.695312 193.902344 "/>
<path fill="none" stroke-width="0.75" stroke-linecap="round" stroke-linejoin="round" stroke="rgb(0%, 0%, 0%)" stroke-opacity="1" stroke-miterlimit="10" d="M 257.714844 200.984375 L 257.738281 193.953125 L 261.414062 193.945312 L 261.71875 193.945312 L 265.503906 193.9375 L 269.644531 193.933594 L 269.644531 207.949219 L 265.5 207.964844 L 261.414062 207.980469 L 257.695312 207.996094 Z M 257.714844 200.984375 "/>
<path fill="none" stroke-width="0.75" stroke-linecap="round" stroke-linejoin="round" stroke="rgb(0%, 0%, 0%)" stroke-opacity="1" stroke-miterlimit="10" d="M 285.679688 237.542969 L 289.832031 237.722656 L 293.871094 237.710938 L 300.980469 237.6875 L 309.523438 237.664062 L 309.46875 241.167969 L 309.417969 244.992188 L 309.414062 248.171875 L 305.648438 248.1875 L 301.878906 248.199219 L 298.109375 248.214844 L 293.863281 248.230469 L 289.726562 248.246094 L 285.675781 248.261719 L 285.675781 244.546875 L 285.679688 241.242188 Z M 285.679688 237.542969 "/>
<path fill="none" stroke-width="0.75" stroke-linecap="round" stroke-linejoin="round" stroke="rgb(0%, 0%, 0%)" stroke-opacity="1" stroke-miterlimit="10" d="M 293.878906 221.914062 L 296.070312 221.90625 L 297.90625 221.898438 L 300.527344 221.886719 L 304.988281 221.867188 L 309.09375 221.855469 L 309.550781 222.105469 L 312.546875 223.738281 L 309.585938 229.148438 L 309.589844 229.742188 L 309.609375 233.8125 L 309.523438 237.664062 L 300.980469 237.6875 L 293.871094 237.710938 L 293.875 233.878906 L 293.875 229.742188 L 293.878906 223.789062 Z M 293.878906 221.914062 "/>
<path fill="none" stroke-width="0.75" stroke-linecap="round" stroke-linejoin="round" stroke="rgb(0%, 0%, 0%)" stroke-opacity="1" stroke-miterlimit="10" d="M 255.558594 222.066406 L 257.648438 222.054688 L 261.40625 222.039062 L 262.914062 222.03125 L 265.492188 222.023438 L 269.628906 222.007812 L 273.589844 221.992188 L 273.585938 223.644531 L 273.585938 229.789062 L 273.582031 237.59375 L 269.917969 237.609375 L 266.414062 237.625 L 262.90625 237.640625 L 259.402344 237.652344 L 259.402344 229.847656 L 255.894531 229.863281 L 255.890625 226.734375 Z M 255.558594 222.066406 "/>
<path fill="none" stroke-width="0.75" stroke-linecap="round" stroke-linejoin="round" stroke="rgb(0%, 0%, 0%)" stroke-opacity="1" stroke-miterlimit="10" d="M 269.917969 237.609375 L 273.582031 237.59375 L 277.613281 237.578125 L 281.648438 237.558594 L 285.679688 237.542969 L 285.679688 241.242188 L 285.675781 244.546875 L 285.675781 248.261719 L 285.671875 250.015625 L 282.3125 250.023438 L 281.644531 250.027344 L 278.949219 250.035156 L 277.609375 250.039062 L 275.589844 250.042969 L 273.574219 250.050781 L 272.226562 250.054688 L 269.910156 250.058594 L 269.914062 244.601562 Z M 269.917969 237.609375 "/>
<path fill="none" stroke-width="0.75" stroke-linecap="round" stroke-linejoin="round" stroke="rgb(0%, 0%, 0%)" stroke-opacity="1" stroke-miterlimit="10" d="M 245.378906 237.710938 L 248.882812 237.699219 L 252.386719 237.683594 L 255.890625 237.664062 L 259.402344 237.652344 L 259.394531 244.636719 L 259.394531 248.734375 L 259.082031 250.085938 L 255.972656 250.097656 L 252.382812 250.109375 L 252.046875 250.109375 L 248.6875 250.117188 L 245.375 250.128906 L 245.375 244.6875 Z M 245.378906 237.710938 "/>
<path fill="none" stroke-width="0.75" stroke-linecap="round" stroke-linejoin="round" stroke="rgb(0%, 0%, 0%)" stroke-opacity="1" stroke-miterlimit="10" d="M 186.113281 137.785156 L 187.546875 137.785156 L 189.328125 137.789062 L 192.527344 137.796875 L 194.96875 137.804688 L 196.242188 137.808594 L 198.820312 137.820312 L 201.574219 137.824219 L 202.402344 137.824219 L 208.550781 137.835938 L 212.046875 137.847656 L 214.75 137.855469 L 215.5625 137.855469 L 215.566406 138.882812 L 215.5625 141.472656 L 215.566406 144.976562 L 215.566406 150.230469 L 215.570312 153.730469 L 215.570312 157.238281 L 215.574219 158.042969 L 215.574219 161.972656 L 215.582031 165.957031 L 215.289062 165.957031 L 212.097656 165.960938 L 208.519531 165.964844 L 204.222656 165.972656 L 203.914062 165.96875 L 201.570312 165.972656 L 199.652344 165.976562 L 198.765625 165.980469 L 196.296875 165.984375 L 195.960938 165.984375 L 192.699219 165.988281 L 189.511719 165.992188 L 186.105469 165.980469 L 186.105469 144.816406 Z M 186.113281 137.785156 "/>
<path fill="none" stroke-width="0.75" stroke-linecap="round" stroke-linejoin="round" stroke="rgb(0%, 0%, 0%)" stroke-opacity="1" stroke-miterlimit="10" d="M 229.558594 151.914062 L 229.605469 150.246094 L 229.664062 148.265625 L 229.664062 140.726562 L 229.660156 137.882812 L 233.375 137.871094 L 234.117188 137.871094 L 236.824219 137.859375 L 240.539062 137.847656 L 242.675781 137.84375 L 244.261719 137.835938 L 244.265625 144.949219 L 244.261719 151.863281 L 244.269531 155.367188 L 244.269531 160.628906 L 244.640625 160.628906 L 244.648438 165.898438 L 241.730469 165.90625 L 241.238281 165.910156 L 239.5 165.910156 L 237.347656 165.914062 L 236.839844 165.917969 L 233.453125 165.925781 L 229.5625 165.9375 L 229.5625 158.027344 L 229.558594 154.125 Z M 229.558594 151.914062 "/>
<path fill="none" stroke-width="0.75" stroke-linecap="round" stroke-linejoin="round" stroke="rgb(0%, 0%, 0%)" stroke-opacity="1" stroke-miterlimit="10" d="M 244.261719 137.835938 L 246.402344 137.832031 L 247.976562 137.824219 L 250.140625 137.820312 L 253.585938 137.804688 L 253.882812 137.808594 L 257.621094 137.789062 L 257.628906 146.785156 L 257.636719 151.8125 L 257.644531 155.324219 L 257.652344 160.589844 L 257.652344 165.863281 L 255.140625 165.867188 L 252.878906 165.878906 L 251.546875 165.882812 L 249.480469 165.886719 L 247.738281 165.890625 L 245.132812 165.898438 L 244.648438 165.898438 L 244.640625 160.628906 L 244.269531 160.628906 L 244.269531 155.367188 L 244.261719 151.863281 L 244.265625 144.949219 Z M 244.261719 137.835938 "/>
<path fill="none" stroke-width="0.75" stroke-linecap="round" stroke-linejoin="round" stroke="rgb(0%, 0%, 0%)" stroke-opacity="1" stroke-miterlimit="10" d="M 257.621094 133.441406 L 258.417969 134.113281 L 262.808594 137.777344 L 263.964844 137.769531 L 264.878906 137.765625 L 265.992188 137.761719 L 268.691406 137.753906 L 269.820312 137.75 L 271.796875 137.746094 L 274.117188 137.734375 L 275.300781 137.730469 L 278.128906 137.722656 L 278.449219 137.722656 L 281.914062 137.707031 L 282.199219 137.707031 L 285.703125 137.746094 L 285.703125 150.195312 L 285.699219 150.785156 L 285.699219 155.265625 L 281.910156 155.273438 L 280.753906 155.273438 L 278.136719 155.28125 L 274.125 155.289062 L 272.683594 155.292969 L 269.828125 155.300781 L 268.785156 155.300781 L 265.273438 155.308594 L 264.832031 155.308594 L 261.464844 155.316406 L 260.863281 155.320312 L 257.644531 155.324219 L 257.636719 151.8125 L 257.628906 146.785156 L 257.621094 137.789062 Z M 257.621094 133.441406 "/>
<path fill="none" stroke-width="2.25" stroke-linecap="round" stroke-linejoin="round" stroke="rgb(100%, 0%, 0%)" stroke-opacity="1" stroke-miterlimit="10" d="M 322.933594 260.609375 L 321.835938 259.957031 L 321.054688 259.613281 L 320.019531 259.3125 L 319.367188 259.203125 L 317.734375 259.066406 L 315.75 258.824219 L 313.707031 258.632812 L 311.722656 258.441406 L 310.050781 258.253906 L 307.828125 258.15625 L 288.644531 258.195312 L 286.738281 258.007812 L 285.746094 257.699219 L 285.511719 257.625 L 284.042969 257.21875 L 252.121094 257.371094 L 238.808594 257.433594 L 236.171875 257.183594 L 229.640625 257.183594 L 229.648438 222.101562 L 257.652344 222.011719 L 257.777344 207.566406 L 257.738281 193.90625 L 261.671875 193.886719 L 269.65625 193.855469 L 290.179688 193.875 L 293.0625 193.90625 L 295.207031 194.019531 L 296.621094 194.113281 L 297.78125 194.183594 L 300.050781 194.195312 L 301.085938 194.203125 L 303.269531 194.175781 L 304.339844 194.203125 L 304.917969 194.351562 L 309.199219 195.917969 L 312.515625 197.175781 L 313.347656 197.546875 L 316.414062 199.132812 L 318.472656 200.234375 L 325.59375 203.816406 L 325.957031 204.054688 L 326.269531 204.289062 L 326.804688 204.761719 L 327.199219 205.167969 L 327.828125 205.765625 L 328.378906 206.269531 L 328.800781 206.648438 L 329.179688 206.945312 L 329.476562 207.167969 L 329.902344 207.480469 L 330.296875 207.765625 L 331.347656 208.375 L 332.4375 208.945312 L 333.707031 209.601562 L 336.003906 210.78125 L 338.292969 211.851562 L 338.757812 212.097656 L 339.222656 212.4375 L 339.457031 212.640625 L 339.746094 212.949219 L 339.988281 213.238281 L 340.25 213.609375 L 340.433594 213.886719 L 340.648438 214.21875 L 340.808594 214.453125 L 341.046875 214.761719 L 341.171875 214.914062 L 341.300781 215.0625 L 341.5 215.261719 L 341.683594 215.425781 L 342.238281 215.910156 L 342.5 216.136719 L 342.757812 216.308594 L 342.984375 216.445312 L 343.246094 216.570312 L 343.46875 216.691406 L 343.765625 216.777344 L 344.144531 216.878906 L 344.820312 217.054688 L 345.554688 217.261719 L 345.984375 217.382812 L 346.316406 217.488281 L 346.625 217.609375 L 326.84375 254.492188 L 326.945312 254.546875 L 323.539062 260.933594 Z M 322.933594 260.609375 "/>
<path fill="none" stroke-width="2.25" stroke-linecap="round" stroke-linejoin="round" stroke="rgb(100%, 0%, 0%)" stroke-opacity="1" stroke-miterlimit="10" d="M 285.910156 165.691406 L 257.785156 165.75 L 229.617188 165.804688 L 185.957031 165.894531 L 186.121094 137.8125 L 187.527344 137.8125 L 187.613281 109.734375 L 187.703125 81.71875 L 201.4375 81.621094 L 211.277344 81.550781 L 211.761719 81.527344 L 212.277344 81.53125 L 213.042969 81.515625 L 213.417969 81.507812 L 213.84375 81.5 L 214.273438 81.265625 L 215.53125 81.488281 L 224.058594 81.488281 L 229.542969 81.484375 L 249.113281 81.484375 L 252.304688 81.488281 L 285.910156 81.410156 Z M 285.910156 165.691406 "/>
</svg>
